<?xml version="1.0" encoding="UTF-8" standalone="no"?>
<svg>
<g transform="translate(0.000000,48.000000) scale(0.100000,-0.100000)">
		<path d="M155 335 c-38 -14 -71 -25 -72 -25 -1 0 -4 -13 -8 -30 -10 -45 35
		      -120 88 -148 70 -37 102 -35 164 11 57 43 62 56 38 105 -23 46 -76 56 -74 14
		      0 -14 2 -14 8 2 7 17 10 15 36 -18 34 -44 29 -59 -31 -93 -52 -30 -88 -29
		      -134 4 -42 31 -87 103 -75 122 9 15 90 51 114 51 12 0 24 -14 34 -37 15 -38
		      15 -38 16 -1 1 21 -6 43 -15 52 -8 9 -16 16 -17 16 -1 0 -33 -12 -72 -25z"/>
		<path d="M260 236 c0 -8 5 -18 10 -21 6 -3 10 1 10 9 0 8 -4 18 -10 21 -5 3
		      -10 -1 -10 -9z"/>
		<path d="M225 210 c-3 -5 -2 -10 4 -10 5 0 13 5 16 10 3 6 2 10 -4 10 -5 0
		      -13 -4 -16 -10z"/>
</g>
</svg>
