<?xml version="1.0" encoding="UTF-8" standalone="no"?>
<svg>
<g transform="translate(0.000000,48.000000) scale(0.100000,-0.100000)">
		<path d="M194 385 c4 -10 -3 -20 -19 -27 -16 -7 -25 -19 -24 -32 1 -17 2 -18
		      6 -3 2 9 11 18 19 18 8 1 19 2 25 3 7 0 17 9 23 19 8 14 8 20 -4 27 -22 14
		      -33 12 -26 -5z"/>
		<path d="M315 370 c-3 -11 -9 -19 -13 -19 -21 3 -32 -3 -32 -16 0 -12 9 -10
		      40 10 38 24 40 24 50 6 14 -27 13 -74 -2 -91 -7 -7 -1 -5 14 6 32 22 35 53 11
		      95 -20 34 -58 39 -68 9z"/>
		<path d="M94 335 c-3 -14 -4 -32 0 -40 6 -17 46 -21 46 -5 0 6 -5 10 -11 10
		      -7 0 -9 11 -5 30 7 38 -20 43 -30 5z"/>
		<path d="M312 310 c0 -14 2 -19 5 -12 2 6 2 18 0 25 -3 6 -5 1 -5 -13z"/>
		<path d="M337 301 c-3 -12 -2 -23 3 -26 11 -7 20 19 10 34 -5 9 -9 7 -13 -8z"/>
		<path d="M86 252 c-2 -4 -3 -34 -1 -66 3 -52 8 -64 37 -93 30 -30 40 -33 105
		      -38 54 -3 72 -1 70 8 -1 7 5 11 14 9 18 -3 68 66 72 99 1 12 -4 24 -12 27 -8
		      3 -11 0 -7 -6 8 -14 -15 -61 -40 -83 -24 -21 -71 -32 -79 -19 -4 6 -21 8 -41
		      4 -30 -5 -40 -2 -65 22 -26 24 -29 34 -25 73 2 25 9 47 15 49 6 2 9 8 5 13 -6
		      11 -41 12 -48 1z"/>
</g>
</svg>
