<?xml version="1.0" encoding="UTF-8" standalone="no"?>
<svg>
<g transform="translate(0.000000,48.000000) scale(0.050000,-0.050000)">
	<path d="M580 859 c0 -5 -5 -7 -12 -3 -7 5 -8 3 -3 -6 4 -7 11 -28 15 -47 7
	      -28 5 -35 -10 -41 -27 -10 -3 -39 35 -44 22 -2 31 -9 33 -25 5 -37 22 -26 22
	      13 0 37 -23 73 -35 54 -14 -22 -25 4 -25 56 0 30 -4 54 -10 54 -5 0 -10 -5
	      -10 -11z"/>
	<path d="M757 858 c-20 -16 -37 -60 -37 -97 0 -16 -7 -34 -15 -41 -8 -6 -17
	      -22 -21 -33 -3 -12 -13 -30 -22 -40 -12 -13 -13 -20 -4 -29 6 -6 13 -10 14 -7
	      2 2 17 22 34 44 30 40 56 106 68 178 8 41 7 42 -17 25z"/>
	<path d="M435 840 c-3 -5 -1 -18 4 -27 9 -16 10 -14 11 10 0 28 -5 34 -15 17z"/>
	<path d="M352 807 c-7 -9 2 -23 33 -52 23 -23 47 -39 53 -37 15 5 52 -75 52
	      -112 0 -23 3 -27 12 -18 6 6 11 26 10 43 -1 39 -40 119 -57 119 -7 0 -18 7
	      -25 15 -7 9 -25 25 -40 35 -22 15 -30 17 -38 7z"/>
	<path d="M542 798 c6 -18 28 -21 28 -4 0 9 -7 16 -16 16 -9 0 -14 -5 -12 -12z"/>
	<path d="M280 755 c-8 -10 -8 -19 2 -36 10 -17 10 -23 1 -26 -21 -7 -15 -23 8
	      -23 15 0 19 5 15 15 -3 9 0 15 9 15 9 0 12 -6 9 -15 -4 -10 0 -15 13 -15 10 0
	      24 -9 31 -20 14 -22 48 -27 55 -7 4 12 -47 67 -63 67 -4 0 -21 13 -38 29 -25
	      24 -33 27 -42 16z"/>
	<path d="M817 740 c-6 -16 -15 -30 -19 -30 -4 0 -8 -6 -8 -13 0 -7 -20 -32
	      -45 -55 -45 -42 -58 -72 -30 -72 8 0 15 7 15 15 0 9 8 19 17 22 20 8 57 48 75
	      83 7 14 19 31 26 38 17 19 15 42 -4 42 -9 0 -21 -13 -27 -30z"/>
	<path d="M80 684 c0 -19 4 -25 14 -21 10 4 19 -4 27 -22 11 -24 21 -30 55 -34
	      48 -5 68 -20 78 -60 5 -22 12 -27 36 -27 17 0 30 -4 30 -8 0 -4 27 -14 60 -21
	      33 -8 60 -19 60 -25 0 -6 5 -3 11 6 18 32 16 33 -59 45 -24 4 -36 13 -43 30
	      -7 19 -14 23 -30 18 -22 -7 -89 31 -124 72 -11 12 -26 23 -33 23 -7 0 -12 4
	      -12 9 0 8 -54 41 -67 41 -1 0 -3 -12 -3 -26z"/>
	<path d="M576 695 c-7 -20 22 -87 37 -82 7 3 10 11 8 18 -2 8 -3 29 -3 47 1
	      25 -3 32 -17 32 -10 0 -21 -7 -25 -15z"/>
	<path d="M774 595 c-24 -24 -45 -35 -65 -35 -24 0 -29 -4 -29 -26 0 -33 -25
	      -61 -37 -41 -11 18 -53 29 -53 14 0 -7 9 -23 19 -36 16 -21 20 -22 42 -10 41
	      24 69 52 69 70 0 13 5 16 16 12 11 -4 23 2 35 18 15 20 19 21 19 6 0 -9 -5
	      -26 -12 -37 -14 -22 -8 -33 16 -24 10 4 16 18 16 38 0 20 7 37 20 46 11 8 20
	      20 20 27 0 25 -40 13 -76 -22z"/>
	<path d="M406 612 c-5 -9 50 -55 71 -58 9 -2 12 3 9 13 -3 8 -6 16 -6 19 0 4
	      -56 34 -64 34 -3 0 -7 -4 -10 -8z"/>
	<path d="M154 584 c3 -9 6 -18 6 -20 0 -2 8 -4 18 -4 10 0 23 -5 30 -12 23
	      -23 25 3 2 27 -27 28 -66 35 -56 9z"/>
	<path d="M586 584 c-3 -9 -2 -23 4 -32 5 -10 10 -12 10 -4 0 6 6 12 14 12 9 0
	      12 7 9 20 -6 24 -28 26 -37 4z"/>
	<path d="M507 540 c-3 -11 -10 -19 -15 -18 -12 4 -12 -10 -1 -41 8 -18 14 -22
	      34 -17 14 4 25 2 25 -4 0 -5 9 -10 19 -10 11 0 22 -6 24 -12 4 -9 6 -8 6 2 1
	      8 -9 20 -21 25 -13 6 -24 19 -26 30 -4 26 -23 65 -33 65 -3 0 -9 -9 -12 -20z
	      m23 -46 c0 -8 -5 -12 -10 -9 -6 4 -8 11 -5 16 9 14 15 11 15 -7z"/>
	<path d="M155 490 c-4 -6 -14 -9 -23 -8 -11 2 -17 -4 -17 -17 0 -14 6 -19 20
	      -17 100 16 155 32 107 32 -11 0 -24 5 -27 10 -8 13 -52 13 -60 0z"/>
	<path d="M740 480 c0 -6 7 -10 15 -10 8 0 15 2 15 4 0 2 -7 6 -15 10 -8 3 -15
	      1 -15 -4z"/>
	<path d="M357 454 c-3 -4 -30 -7 -59 -9 -70 -3 -68 -2 -68 -25 0 -13 -7 -20
	      -19 -20 -10 0 -21 -7 -25 -15 -3 -9 -19 -15 -41 -15 -22 0 -34 -4 -30 -10 3
	      -6 -4 -24 -16 -41 -32 -45 -9 -53 56 -20 29 14 46 27 39 29 -19 5 -18 29 2 36
	      9 3 31 6 50 6 23 0 34 5 34 15 0 19 63 52 68 36 2 -6 23 -11 47 -11 39 0 43 2
	      38 21 -4 16 -12 20 -29 16 -13 -2 -24 0 -24 4 0 10 -14 12 -23 3z"/>
	<path d="M692 437 c-7 -8 -32 -20 -55 -26 -54 -14 -103 -76 -110 -141 -3 -25
	      -9 -60 -13 -79 -5 -25 -3 -32 6 -29 8 2 18 13 24 23 6 10 21 28 33 40 12 11
	      23 36 25 55 2 30 6 35 25 32 19 -3 24 3 29 37 6 39 24 58 24 26 0 -8 12 -22
	      26 -32 15 -10 56 -46 92 -81 59 -56 68 -61 81 -47 14 13 13 17 -6 30 -26 18
	      -41 33 -74 72 -15 18 -39 33 -61 37 -28 5 -37 12 -41 31 -2 14 0 28 5 31 16
	      10 118 13 118 3 0 -5 16 -9 35 -9 39 0 49 23 13 28 -109 13 -165 13 -176 -1z
	      m-69 -82 c-3 -8 -11 -15 -17 -15 -7 0 -17 -12 -23 -27 -10 -27 -11 -27 -12 -4
	      -1 13 9 34 21 46 24 25 41 24 31 0z"/>
	<path d="M538 423 c-10 -3 -18 -11 -18 -19 0 -10 -13 -14 -45 -14 -25 0 -45
	      -4 -45 -10 0 -5 -15 -10 -34 -10 -38 0 -47 -13 -35 -47 7 -18 4 -25 -13 -34
	      -12 -7 -31 -20 -42 -30 -20 -19 -19 -19 12 -19 19 0 40 8 52 20 21 21 55 26
	      65 10 3 -5 9 -10 13 -10 10 0 44 62 37 68 -3 3 -22 0 -42 -6 -31 -10 -40 -9
	      -53 4 -13 13 -13 16 0 24 21 14 30 12 30 -5 0 -17 4 -18 28 -6 17 9 52 23 62
	      25 3 1 18 13 34 27 28 27 26 39 -6 32z"/>
	<path d="M721 405 c-2 -22 24 -35 66 -35 24 0 43 5 43 10 0 6 -22 10 -49 10
	      -30 0 -51 5 -54 13 -3 6 -6 7 -6 2z"/>
	<path d="M274 329 c-12 -11 -27 -22 -35 -23 -8 -1 -26 -9 -41 -16 -29 -14 -39
	      -50 -14 -50 8 0 21 -3 30 -6 12 -4 16 0 16 15 0 12 6 21 14 21 8 0 34 18 58
	      40 41 38 42 39 18 40 -14 0 -35 -9 -46 -21z"/>
	<path d="M839 339 c-10 -6 -7 -13 12 -28 13 -11 29 -20 36 -21 6 0 14 -6 16
	      -12 3 -7 6 -1 6 14 1 20 -6 30 -28 41 -16 8 -35 11 -42 6z"/>
	<path d="M660 310 c0 -5 5 -10 11 -10 5 0 7 5 4 10 -3 6 -8 10 -11 10 -2 0 -4
	      -4 -4 -10z"/>
	<path d="M695 280 c3 -5 8 -10 11 -10 2 0 4 5 4 10 0 6 -5 10 -11 10 -5 0 -7
	      -4 -4 -10z"/>
	<path d="M735 250 c3 -5 11 -10 16 -10 6 0 7 5 4 10 -3 6 -11 10 -16 10 -6 0
	      -7 -4 -4 -10z"/>
	<path d="M646 234 c-8 -22 3 -39 17 -25 15 15 32 14 19 -1 -13 -16 10 -76 33
	      -84 24 -10 39 10 20 26 -8 7 -15 22 -15 34 0 23 -38 66 -57 66 -6 0 -14 -7
	      -17 -16z"/>
	<path d="M250 215 c0 -28 -39 -50 -72 -42 -9 3 -25 -1 -34 -8 -16 -11 -15 -14
	      5 -34 21 -21 24 -22 41 -6 10 9 24 15 32 14 27 -3 37 2 57 29 26 37 30 57 11
	      57 -8 0 -21 4 -27 8 -9 6 -13 1 -13 -18z"/>
	<path d="M403 223 c-13 -2 -23 -8 -23 -12 0 -5 11 -6 25 -3 14 2 25 8 25 13 0
	      5 -1 8 -2 8 -2 -1 -13 -4 -25 -6z"/>
	<path d="M791 204 c0 -11 3 -14 6 -6 3 7 2 16 -1 19 -3 4 -6 -2 -5 -13z"/>
	<path d="M380 181 c0 -7 -7 -10 -17 -7 -25 7 -70 -54 -49 -66 8 -5 21 -6 29
	      -2 18 7 53 71 44 80 -4 4 -7 2 -7 -5z"/>
</g>
</svg>
