<?xml version="1.0" encoding="UTF-8" standalone="no"?>
<svg>
<g transform="translate(0.000000,48.000000) scale(0.100000,-0.100000)">
		<path d="M50 351 c0 -17 19 -22 39 -12 14 8 25 6 44 -9 14 -12 28 -16 31 -11
		      10 16 -36 41 -76 41 -21 0 -38 -4 -38 -9z"/>
		<path d="M218 344 c-38 -20 -35 -23 12 -17 25 4 46 1 55 -7 8 -7 15 -8 15 -3
		      0 6 15 15 33 21 32 11 32 11 -1 8 -18 -1 -35 1 -38 6 -8 13 -46 9 -76 -8z"/>
		<path d="M25 329 c-9 -14 32 -57 59 -61 14 -2 20 -9 19 -23 -3 -25 25 -97 40
		      -107 7 -4 22 -8 35 -8 13 0 30 -7 38 -15 35 -35 134 -3 187 60 20 24 37 52 37
		      62 0 11 5 24 12 31 16 16 -9 62 -35 62 -19 0 -19 -1 -2 -20 42 -47 -26 -147
		      -117 -171 -41 -11 -49 -11 -66 4 -10 9 -28 17 -40 17 -22 0 -51 23 -54 43 -1
		      7 -2 22 -2 35 -1 22 -27 43 -68 56 -10 3 -18 15 -18 26 0 21 -15 27 -25 9z"/>
		<path d="M341 303 c0 -4 4 -17 9 -28 8 -19 9 -19 9 2 1 12 -3 25 -9 28 -5 3
		      -10 3 -9 -2z"/>
		<path d="M235 249 c-11 -17 1 -21 15 -4 8 9 8 15 2 15 -6 0 -14 -5 -17 -11z"/>
		<path d="M322 213 c4 -40 38 -45 37 -6 -1 28 -1 28 -8 3 -5 -18 -9 -21 -15
		      -12 -4 7 -5 19 -2 27 3 8 1 15 -5 15 -6 0 -9 -12 -7 -27z"/>
</g>
</svg>
