<?xml version="1.0" encoding="UTF-8" standalone="no"?>
<svg>
<g><path d="M 2.7,0 C 1.4766883,0 0,1.5921362 0,3.0735241 c 0,1.6153164 1.1338312,2.9260415 2.625,2.9260415 0.049486,0 0.17617,0.00157 0.225,-0.00125 L 6,5.9995656 6,5.5 4.0714286,5.5 C 4.723781,4.9661089 5.4,4.0274571 5.4,3.0735241 5.4,1.7483862 3.9456329,0 2.7,0 z M 2.3776786,0.70530284 C 3.5179383,0.67100514 4.5,2.0734808 4.5,3.2235133 4.5,4.5074736 3.4082675,5.6468765 2.5577479,5.6245551 1.4397562,5.595214 0.33843316,4.4933828 0.35921637,3.2095906 0.3815378,1.8307818 1.504947,0.73155361 2.3776786,0.70530284 z"/></g>
</svg>
