<?xml version="1.0" encoding="UTF-8" standalone="no"?>
<svg>
<g><path d="m 23.982422,3.3535156 c -0.95758,1.0163796 -0.278519,3.0988206 -1.945313,3.7050782 -1.460641,0.8489763 -3.28104,0.1672451 -4.144531,-1.1660157 -1.179013,-0.5566419 -3.051212,-0.7878284 -4.082031,-0.3105469 0.590016,0.8272992 2.039764,2.385828 0.441406,3.0371094 -3.177863,1.1232135 -6.9012137,1.3311527 -9.3535155,3.8906254 -1.4976989,1.132734 -2.6819597,3.087444 -1.375,4.857422 0.3535746,0.565378 1.0374683,2.635478 1.9121094,2.035156 0.1332529,-1.919715 0.6775275,-3.943847 2.3730469,-5.111328 3.4973562,-2.713161 8.6906952,-3.561865 12.7089842,-1.580078 1.677654,1.078634 -0.133067,3.118326 -1.624395,3.05721 -1.957291,0.33484 -3.992503,-0.714 -5.799433,0.565836 -2.223142,1.26643 -5.1706445,2.722486 -5.7363281,5.435547 0.35688,1.778617 2.6493761,0.280835 3.5507811,-0.289062 2.414833,-1.697154 4.890568,-4.506943 8.172055,-3.587478 2.188854,0.13555 5.198995,-0.208723 5.603336,-2.8676 1.024795,-2.291957 3.983136,-1.090398 4.904947,0.645507 1.100259,0.951436 0.575795,2.522 -0.686197,3.014649 -1.199504,0.558304 -0.854331,1.735358 -0.02344,2.421875 1.288533,2.621705 -1.797403,4.870805 -3.956794,5.655276 -1.459228,0.107046 -2.60051,2.201382 -0.804924,2.69824 3.300981,-1.007796 7.219345,-2.908776 7.847325,-6.71922 0.300788,-2.575215 2.224674,-6.005625 -0.107091,-8.19289 -1.372473,-1.181552 -3.944499,-2.96205 -2.822266,-5.0468749 2.173111,-1.9465426 6.208958,-0.531877 6.889354,2.3095009 1.474157,4.625139 2.286362,10.000686 -0.379549,14.378705 -1.203004,2.01622 -1.806839,4.255397 -2.541055,6.428982 -1.588088,2.503803 -5.237535,3.018119 -6.515625,5.654297 2.947755,1.088834 5.867509,-1.324971 7.185547,-3.855469 0.856579,-1.485876 3.347741,-3.493138 4.761719,-1.529297 1.293766,2.091539 1.037647,5.23045 -1.335938,6.451172 -2.17479,1.680432 -5.253229,2.60791 -6.68164,5.035156 2.172972,0.986001 3.938178,-1.589712 5.531623,-2.703102 2.119553,-2.266534 5.217831,-4.444702 5.515252,-7.771507 -0.472136,-2.595937 -0.326494,-5.445583 1.42822,-7.587609 1.670148,-2.495546 3.832589,-5.960581 2.104983,-8.885048 -1.255589,-0.13662 -1.832847,2.824259 -3.410156,1.740235 C 40.003485,17.335207 41.099083,14.547192 39.677734,12.554688 38.269443,9.9514392 36.040658,7.8304422 34.939453,5.0488281 32.656036,4.5658267 30.372636,6.1963517 28.1875,6.828125 c -3.051326,0.94849 -0.802819,4.904619 -2.888672,6.492187 -2.392212,-0.0075 -2.494064,-3.4789807 -1.302734,-4.9570308 0.560931,-1.4115008 1.087554,-3.8117511 -0.01367,-5.0097656 z M 13.517578,21.427734 c -0.446261,1.03111 -0.34149,3.417851 1.408203,2.53125 1.119113,-0.02853 2.509382,-1.400974 0.71875,-1.882812 -0.691181,-0.236047 -1.382328,-0.658556 -2.126953,-0.648438 z m 27.080078,0.69336 c 1.997861,0.301191 2.347422,3.573183 0.966797,4.773437 -1.506332,1.186245 -4.517725,0.0495 -3.751953,-2.128906 0.404513,-1.181723 1.438986,-2.557549 2.785156,-2.644531 z m -25.537109,7.349609 c -1.464454,0.462978 0.6774,1.899456 1.164062,2.421875 1.50271,1.562372 4.273967,2.187272 4.947266,4.402344 -0.52224,1.48276 -2.7734,1.089204 -3.994141,0.832031 -2.986558,-0.857229 -3.921436,-4.419492 -6.523437,-5.677734 -1.1109801,3.019767 1.862842,5.789056 4.226562,7.261719 2.758755,1.882061 6.638208,1.938535 9.353516,0.01562 -0.43423,-1.410315 -1.224438,-2.875123 -1.132813,-4.472656 -1.240934,-2.931586 -5.040029,-4.621885 -8.041015,-4.783203 z" /></g>
</svg>
