<?xml version="1.0" encoding="UTF-8" standalone="no"?>
<svg>
<g><path d="m 27.746094,4.5488281 c 1.776271,1.75597 5.533754,0.6205047 6.287109,3.5371094 0.626143,1.4515958 -0.22145,3.5333075 -2.025391,3.2558595 -3.378579,-0.08049 -6.0721,-3.3219988 -9.416015,-2.8359376 0.0045,1.8274676 2.51053,1.8977776 3.775391,2.6542966 2.778449,1.756874 3.366703,5.4174 6.153756,7.210629 1.196239,0.870033 2.696943,2.363592 4.182181,2.170231 -0.09871,-2.687705 -3.809351,-4.094894 -2.998047,-7.033204 0.853866,-2.939528 5.824217,-2.229567 6.207031,0.720704 0.902499,2.327223 -0.284769,5.204947 1.212891,7.255859 1.246862,0.29638 3.252421,-0.604766 3.492188,-1.933594 C 43.655209,17.569009 42.609649,15.553132 42.507812,13.296875 40.788468,9.8645291 37.778862,6.8443685 34.191406,5.4140625 31.99931,5.3074761 29.82229,4.9475831 27.681641,4.4804688 l 0.06445,0.068359 z M 10.599609,21.367188 c -0.9934639,-0.125656 -1.7408122,0.578095 -0.7734371,1.349609 0.8722921,0.831796 2.0056751,2.866642 3.3359371,2.199219 1.19019,-0.867003 1.875031,-3.370719 -0.316406,-3.392578 -0.736294,-0.156845 -1.495049,-0.21448 -2.246094,-0.15625 z m -4.2187496,-0.0098 c -1.9095524,1.083949 -0.8418427,3.992926 0.057142,5.509396 0.7868676,1.204948 2.3010161,3.445173 3.960437,2.508182 0.879115,-2.528233 -2.6838487,-3.568081 -2.7128911,-6.027344 0.0083,-0.832615 -0.2167336,-2.04163 -1.3046875,-1.990234 z m 15.9921876,1.453125 c -1.336797,0.26116 0.225716,2.019233 0.475729,2.691821 0.911324,1.425542 2.997175,3.522657 1.555521,5.230054 -2.475886,1.316426 -4.591448,-1.955517 -6.861328,-2.013672 1.116277,3.073649 3.968333,5.11819 6.708984,6.685547 1.21039,0.542587 1.576801,2.570639 0.0039,2.84375 -3.118333,0.58402 -5.466222,-1.916557 -7.74414,-3.574219 -0.971426,-0.864444 -1.555986,0.114516 -0.931641,0.990234 1.561278,2.883211 3.79473,5.655015 6.773438,7.115235 3.411901,0.768852 6.026904,-2.563739 9.373046,-2.703125 2.088292,-0.146925 4.329132,0.615764 6.179688,-0.794922 3.400958,-1.909411 6.013784,-6.349752 4.175781,-10.142578 -1.84162,0.2233 -2.657349,2.675513 -3.816406,3.941406 -1.253061,1.941886 -4.36711,4.74826 -6.443359,2.361328 -0.4053,-2.654883 3.911038,-3.065132 3.548828,-5.716797 -0.379598,-1.858641 -2.411947,-1.303065 -3.113282,0.01172 -0.744961,0.991698 -2.736425,2.570307 -3.439453,0.697266 -0.62786,-1.36444 0.352889,-2.952591 1.814453,-2.955078 0.142571,-2.272676 -2.850731,-3.140569 -4.595703,-3.71875 -1.198879,-0.377571 -2.393646,-0.899277 -3.664062,-0.949219 z m 6.185547,11.324219 c 1.398318,-0.230578 3.269828,1.532259 1.683594,2.623046 -1.089101,0.966966 -4.146259,0.824232 -3.515626,-1.207031 0.187988,-0.843694 0.970719,-1.43861 1.832032,-1.416015 z" /></g>
</svg>
