<?xml version="1.0" encoding="UTF-8" standalone="no"?>
<svg>
<g><path d="m 29.910156,6.3105469 c -4.227789,-0.065308 -7.984017,2.2106745 -10.883686,5.0868671 -2.033599,2.053938 -4.686875,3.760063 -5.99522,6.376024 0.429499,1.343685 2.359384,2.292257 3.295964,0.780264 1.781583,-1.85357 5.775632,-2.963729 7.313411,-0.284171 0.877613,2.382285 3.620761,0.155903 5.367187,0.892578 2.415164,0.494164 2.374739,3.412202 1.800782,5.267579 -0.268355,1.802805 1.916929,1.339422 2.558594,0.246093 0.976157,-1.376592 3.598578,-2.947895 4.894531,-1.238281 0.103616,3.31484 -2.447019,6.355933 -2.097657,9.722656 1.726036,-0.8309 2.468671,-3.309803 3.138672,-5.036112 0.407397,-1.942651 0.368359,-4.153931 1.972657,-5.610372 0.312642,-2.424646 -2.722941,-3.478538 -4.5,-4.404297 -4.509545,-2.113878 -9.612964,-2.182989 -14.451172,-3.1875 -2.50587,-0.553839 -1.882658,-4.003492 0.01953,-4.9238281 2.422352,-1.6539899 5.534055,-1.1139066 7.978516,0.1601561 2.226147,0.553653 4.75826,0.58771 6.378738,2.507063 0.385832,0.311381 2.009281,1.557943 1.666184,0.272234 C 37.506423,10.51891 36.2164,7.4669172 33.544808,6.6708718 32.361674,6.3642706 31.129009,6.2774176 29.910156,6.3105469 Z M 8.9433594,20.013672 c -2.6764244,1.158806 -6.1195884,3.219619 -5.5761719,6.662109 -0.1443644,0.9267 0.7874504,3.009128 1.4609375,1.111328 0.3139389,-2.176261 3.0417321,-4.185595 4.9765625,-2.572265 1.1361035,1.594955 -0.7659158,4.556857 1.6230465,5.332031 2.747458,-0.207826 1.947911,-4.903603 4.925782,-4.658203 2.456044,0.404385 5.921169,1.160853 6.578125,3.966797 0.279352,2.961307 -2.939957,4.872441 -5.605324,4.570965 -4.032271,0.741026 -8.3257567,1.732216 -11.6524889,4.222004 -0.7740838,1.035347 -0.1435839,2.748846 1.3515625,2.085937 3.1457434,-1.128936 6.3629474,-3.06092 9.8476564,-2.113281 2.351061,0.310556 3.756737,2.471672 5.761719,3.365234 1.504655,-1.330588 1.056015,-3.901271 1.508851,-5.730727 0.696818,-4.250188 0.564831,-9.166819 -2.606508,-12.445054 -3.14125,-1.048602 -6.993621,1.480189 -9.902343,-0.832031 -1.200686,-0.66703 -1.33552,-2.804256 -2.6914066,-2.964844 z" /></g>
</svg>
