<?xml version="1.0" encoding="UTF-8" standalone="no"?>
<svg>
<g><path d="m 23.673828,7.3984375 c -1.72184,0.1827676 -2.603831,2.581451 -1.998047,3.9531245 1.670924,0.711971 5.49315,0.408701 4.533203,-2.2597651 C 25.95658,7.9618662 24.825392,7.2042588 23.673828,7.3984375 Z M 11.378906,17.466797 c -0.147493,3.352075 4.197431,4.688501 6.804688,3.75 -2.130567,-1.391563 -4.423402,-3.006358 -6.804688,-3.75 z m 20.783203,3.302734 c -1.135074,0.245833 -3.45619,-0.270833 -3.789062,1.152344 0.138779,1.628693 3.631624,1.480006 2.798828,3.392578 -2.136408,1.892582 -5.627363,0.257483 -7.792969,1.763672 1.921312,0.998799 4.363728,0.599444 6.454455,1.332015 3.14611,1.020362 6.704088,1.423868 9.656009,-0.284002 1.028443,-0.603851 2.857454,-1.130349 3.061411,-2.385904 -2.111005,-0.936576 -4.769873,1.270236 -6.683593,-0.21875 -0.91734,-1.896398 1.350975,-3.302389 2.771484,-3.96875 -1.741393,-1.086567 -4.418287,-0.702096 -6.476563,-0.783203 z M 8.7910156,22.445312 c -1.3767068,1.25203 0.9521368,2.558018 1.9335934,3.185547 2.006557,1.012868 4.274271,2.676763 6.570313,2.244141 1.165802,-1.264153 -0.926842,-1.581207 -1.839844,-1.705078 -2.533727,-0.681302 -4.142674,-3.147755 -6.6640624,-3.72461 z M 24.140625,33.511719 c -3.563196,0.661272 -7.56133,-0.120846 -10.763672,1.765625 0.339391,1.316385 3.25805,1.051961 3.048828,2.855468 -1.189704,1.71681 -3.787566,0.695454 -5.488281,0.56836 -0.778037,-0.275426 -2.3155862,0.195461 -1.0898438,1.003906 4.7245418,3.195146 11.1485458,3.888991 16.2929688,1.333984 1.255123,-0.714087 3.527012,-1.378101 3.429687,-3.08789 -1.050166,-1.345735 -2.479822,-0.128931 -3.347656,0.730469 -1.559323,0.663011 -3.731086,1.122583 -5.228515,0.25 0.08537,-1.778157 2.272234,-2.742791 3.083984,-4.257813 0.180412,-0.305305 1.036125,-1.372894 0.0625,-1.162109 z" /></g>
</svg>
