<?xml version="1.0" encoding="UTF-8" standalone="no"?>
<svg>
<g><path d="m 17.162109,3.3671875 c -4.00316,1.8764173 -6.920272,5.6208317 -9.7460934,8.9707035 1.9197292,0.82839 4.5121504,0.170902 5.0117184,-2.080079 C 13.183418,7.7655336 15.234808,5.8834629 17.644531,5.0117188 18.97236,4.239246 19.006009,3.1711656 17.162109,3.3671875 Z m 3.800782,2.1660156 c -1.126246,1.2468416 -0.136771,3.5887589 -1.822266,4.6679689 -2.53173,2.056563 -6.37019,2.719076 -7.806641,5.941406 -0.896059,1.472215 -2.8524061,0.883648 -3.9824215,1.759766 0.013046,2.016981 2.6610655,0.913107 3.7365485,0.478077 3.111916,-1.098796 6.334403,-4.021409 9.796655,-2.731983 1.873283,0.920384 0.963275,3.295348 1.93164,4.697265 1.472318,1.107437 2.068193,-1.348023 1.853516,-2.402344 -0.137424,-2.090497 2.254302,-2.758003 3.873047,-2.089843 2.425462,0.814159 6.099932,1.224069 6.761719,4.205078 0.474293,1.668282 -0.897197,4.003874 -2.8125,3.083984 -1.35716,-0.846759 -2.84188,-2.281344 -4.541016,-1.193359 -0.861464,0.573879 1.293714,1.069528 1.728516,1.527343 2.652098,1.66861 3.583802,4.787931 4.960937,7.388672 1.339269,1.598189 3.359921,-0.434242 4.558594,-1.267578 1.546082,-2.017143 0.397694,-4.953292 -0.10831,-7.117837 C 37.31997,18.125962 33.6579,13.836693 28.800781,13.076172 27.052994,12.895681 25.150435,15.006524 23.542969,13.412109 21.291677,11.331406 23.046731,7.6631457 21.113281,5.5234375 l -0.07031,-0.00195 -0.08008,0.011719 z m 17.144531,8.0312499 c 3.334007,3.183175 6.29029,6.824665 8.214844,11.03125 0.555573,0.74751 0.328272,-2.113884 0.144531,-2.785156 -1.224867,-3.405796 -4.584696,-5.466389 -7.264147,-7.658579 -0.19513,-0.109869 -1.219337,-0.847707 -1.095228,-0.587515 z m -20.416016,5.613281 c -2.851122,1.942414 -5.773511,5.782782 -9.7089841,4.458985 -0.9148268,-0.23106 -3.7583245,-0.305489 -3.0039063,1.271484 2.0349326,1.564226 4.9957067,1.115606 7.4316404,1.482422 2.881454,0.02855 5.787225,0.324592 8.65625,0.01367 -1.685381,-1.249842 -3.767472,-3.017291 -2.992187,-5.400391 0.04731,-0.638985 0.840371,-2.504541 0.182519,-2.240401 -0.188444,0.138077 -0.376888,0.276153 -0.565332,0.414229 z m 18.28125,4.578125 c 2.043035,-0.104548 4.044342,2.371943 2.945313,4.220703 -2.210382,1.220419 -5.294879,-2.003355 -3.714844,-4.050781 0.232809,-0.136888 0.503227,-0.17891 0.769531,-0.169922 z m -6.839844,7.316407 c -4.517257,0.698011 -8.870448,2.284264 -13.322265,3.289062 -2.87138,1.193342 -2.005005,5.169241 -0.171875,6.919922 2.410794,2.182353 6.096529,1.323274 8.996094,0.800781 2.935926,-0.887632 6.463207,-1.934025 8.027343,-4.800781 0.301317,-1.625589 -2.402155,-1.413327 -2.36914,-3.080078 -0.287541,-1.224977 1.196583,-3.419852 -1.160157,-3.128906 z m -1.511718,3.578125 c 1.395117,-0.287739 2.501123,1.819936 0.914062,2.359375 -1.024636,0.553735 -3.672753,0.625345 -3.396484,-1.066407 0.418328,-0.905238 1.554728,-1.27369 2.482422,-1.292968 z m -9.291016,1.988281 c 1.646366,0.06245 4.804983,-0.02316 4.746094,2.314453 -0.19746,2.694513 -3.522628,2.480724 -5.332031,1.675781 -1.171128,-0.469136 -3.509012,-1.621894 -2.664063,-3.173828 0.877031,-0.739508 2.166116,-0.741516 3.25,-0.816406 z" /></g>
</svg>
