<?xml version="1.0" encoding="UTF-8" standalone="no"?>
<svg>
<g><path d="M 30.480469,6.4121094 C 27.922035,6.9826679 24.789228,7.8096733 23.363281,10.125 c 1.211814,1.340569 3.51623,0.08553 4.9375,-0.4179688 1.526087,-0.7190682 3.201302,-2.0971624 4.050781,-3.3222656 -0.621675,-0.044122 -1.253277,-0.070741 -1.871093,0.027344 z M 12.029297,6.453125 c -3.6588621,0.81566 -8.0215423,2.928797 -8.2343751,7.208984 -0.2446928,3.32685 -0.3519323,6.777261 0.5292969,9.980469 2.667755,-0.856264 5.4476795,-2.210678 7.3300782,-4.302734 1.452655,-3.524523 5.868287,-5.013718 6.96875,-8.714844 -1.776806,0.136459 -3.572187,1.198245 -5.339844,1.683594 -1.216072,0.861859 -0.954502,2.765213 -2.455078,3.496094 -1.2547864,0.824687 -3.2900841,2.288735 -4.6933594,1.078124 -1.5834289,-2.796104 1.0718572,-6.487748 4.2128904,-6.251953 1.676207,-0.391662 2.660954,-2.6780124 2.126953,-4.1640621 -0.143119,-0.05083 -0.298912,-0.019173 -0.445312,-0.013672 z m 24.703125,1.90625 c -2.334445,0.3453686 -0.91519,3.950884 -3.31836,4.25 -2.346908,-0.0076 -4.999042,0.07813 -6.615106,2.096549 -2.136183,1.402657 -0.535456,4.123881 0.46081,5.524545 0.774161,-3.471501 5.261416,-5.170927 8.396484,-3.998047 2.428431,1.457012 1.385147,5.413151 -1.179688,6.138672 -1.046849,0.616086 -2.769901,0.553857 -3.537109,1.173828 3.247193,2.146048 7.166417,-0.404275 9.34375,-2.910156 2.284725,-2.930141 4.074627,-6.496967 4.261719,-10.244141 -0.04258,-1.5926008 -2.293786,-1.1016407 -2.136719,0.333984 0.328185,2.34493 -1.48939,5.184655 -4.109375,4.519532 -1.940463,-0.387321 -0.62548,-2.866618 -0.05489,-3.912899 0.734617,-1.085332 1.231245,-3.308058 -0.892373,-2.9699139 -0.206228,0.00914 -0.413148,-0.028903 -0.61914,-0.00195 z m -17.566406,7.353516 c -1.591694,1.052931 -1.262571,3.644302 -3.175782,4.583984 -1.259237,0.942445 -3.675504,0.67167 -3.880859,2.630859 -1.456595,2.702773 -2.7444027,5.825514 -5.2675781,7.69336 -1.3442316,0.774855 -2.2276006,-2.052013 -3.3984375,-0.921875 -0.1163459,2.061891 2.2135691,3.412508 3.3339844,4.966797 1.9754037,1.502697 3.6356282,4.844517 6.5410152,4.294922 2.289802,-0.403331 4.567951,-2.133274 6.931641,-1.525391 1.791775,1.562624 0.277425,4.113535 -0.412109,5.847656 -0.07696,1.123536 1.561155,-0.24956 1.980788,-0.51715 3.076312,-2.607301 6.859172,-6.459871 5.53093,-10.875428 -0.683889,-0.234929 -1.007178,1.525065 -1,2.130859 0.214738,2.347333 -2.972207,3.784242 -4.503906,1.917969 -1.918657,-1.431629 -0.847276,-3.912223 0.472656,-5.332031 2.122565,-2.354106 3.63508,-7.145363 0.359375,-9.171875 -1.927823,-1.216972 -2.060197,-3.589148 -2.908203,-5.429688 -0.14606,-0.173761 -0.36359,-0.33348 -0.603515,-0.292968 z m 1.332031,5.9375 c 1.73215,-0.341981 3.397822,1.194936 2.761719,2.951171 -0.409996,2.175936 -3.211404,2.0839 -3.931207,4.076338 -0.948596,1.886874 -1.753332,4.584086 -4.1977,4.857256 -1.376029,1.08093 -1.314575,4.03319 -3.710937,3.75586 -1.5048758,-0.206675 -3.6519226,-1.663389 -3.2050782,-3.355469 1.3564244,-1.511613 4.5770112,-1.457719 4.4277342,-4.136719 -0.270762,-2.345274 1.651566,-4.066025 3.65625,-4.828125 1.564616,-0.557891 1.001352,-2.753799 2.699219,-3.080078 0.48237,-0.165333 0.991271,-0.237028 1.5,-0.240234 z" /></g>
</svg>
