<?xml version="1.0" encoding="UTF-8" standalone="no"?>
<svg>
<g><path d="m 24.28125,5.5898438 c -2.561879,0.4496157 -5.291678,0.69055 -7.673828,1.6992187 -2.37253,2.0691726 -4.612757,4.6642525 -5.38086,7.7734375 1.134333,0.92517 2.812433,-0.877194 4.125,0.222656 5.073584,1.378865 10.495423,0.122534 15.572266,1.414063 1.569916,0.3451 1.704171,2.921223 -0.0957,2.982422 -3.82741,0.717177 -7.854404,-0.322825 -11.607422,0.6875 -0.979763,1.064511 -0.150929,3.111754 1.448585,2.504488 0.914938,-0.273127 3.256764,-0.292141 2.34829,1.149809 1.464823,1.521718 3.440875,2.640989 5.40625,3.308593 2.116892,-0.109595 3.455277,-2.95856 5.623047,-2.373047 1.356742,-1.567336 2.679476,-3.706593 2.496094,-5.833984 -1.217842,-2.793929 -4.802239,-3.840983 -5.761719,-6.712891 0.771924,-1.557443 2.904141,0.595796 3.927734,-0.27539 C 33.672125,8.9556772 30.087755,7.4488037 27.287109,6.0957031 26.335864,5.7112176 25.308109,5.5170344 24.28125,5.5898438 Z m -3.765625,3.0605468 c 1.819594,0.2351566 4.568688,-0.2069636 5.583984,1.6914064 0.813163,2.105462 -2.148802,3.189255 -3.714843,2.271484 -1.545509,-1.138876 -3.421993,-0.876877 -4.970704,0.03125 C 15.663799,13.420827 13.92526,11.286699 15.222656,9.7871094 16.554837,8.4917791 18.80587,8.7774078 20.515625,8.6503906 Z M 8.9433594,21.484375 c -1.5921469,2.220401 -1.9842407,5.954833 0.4140625,7.878906 1.2277661,1.445503 2.9170911,2.324957 4.7617191,2.585938 2.000216,0.711385 3.471748,3.428804 5.835937,2.05664 1.881072,-0.927772 4.789623,-1.396832 5.585938,-3.541015 -1.979084,0.249677 -3.955173,2.370591 -5.917969,0.83789 -2.715256,-1.431016 -4.608036,-4.144601 -7.494141,-5.234375 -1.557505,-1.157803 -1.608511,-3.55669 -3.1855466,-4.583984 z m 23.3632816,9.351563 c -3.18041,1.19569 -6.199351,3.46741 -7.955079,6.371093 0.271234,1.226394 2.044316,-0.221461 2.646485,-0.546875 2.085038,-1.623596 4.227248,-3.558179 5.457031,-5.84375 l -0.148437,0.01953 z m 1.396484,5.53125 c -1.17717,1.188482 -2.154203,2.744711 -3.894531,3.308593 -2.395599,0.944231 -5.205501,2.332211 -7.785156,1.410157 -1.593702,-1.340858 -4.110176,0.19398 -5.216797,1.49414 2.402599,1.444269 5.626163,1.789191 8.384765,1.273438 2.536105,-1.858866 6.080054,-0.748947 8.664063,-2.228516 0.612496,-1.538127 1.168988,-3.905981 0.0039,-5.269531 l -0.05664,-0.0039 -0.09961,0.01563 z" /></g>
</svg>
