<?xml version="1.0" encoding="UTF-8" standalone="no"?>
<svg>
<g><path d="m 20.296875,5.6699219 c -2.102307,0.2762412 -4.615035,-0.4155891 -6.451172,0.7714843 -1.017269,0.8707992 -0.441082,2.6301473 0.970703,1.9628907 1.06925,-0.3452421 3.574591,-0.9011469 3.511719,0.9003906 -0.46986,1.8775195 -3.175611,1.3601645 -3.896484,2.7753905 0.508784,1.237055 1.308492,2.923067 2.564453,3.41211 1.460477,-1.085825 3.147856,-3.425821 5.21289,-2.607422 3.179726,2.314398 6.060665,5.252153 8.044922,8.660156 0.157557,0.490605 0.03101,1.727953 0.832032,0.835937 1.817063,-1.485297 1.450232,-5.171549 4.123046,-5.625 2.173533,0.298613 1.404595,3.866928 3.832032,3.886719 1.556226,0.455673 1.667152,-1.13406 1.138488,-2.180926 C 39.108357,13.874775 37.168842,8.2270074 32.113892,6.8093558 28.308077,5.5958947 24.255623,5.6377726 20.296875,5.6699219 Z m 4.740234,1.3691406 c 1.814407,0.5704657 3.717867,0.3861196 5.521485,0.9550781 2.111578,1.1024902 4.754471,2.9248584 4.761718,5.5585934 -0.331074,1.373934 -1.071938,4.125881 -2.990234,3.332032 -2.510592,-1.728952 -4.628224,-4.712171 -8.009766,-4.628907 -1.567175,-0.05238 -3.064095,-1.561573 -2.089843,-3.1210934 0.52644,-1.0687223 1.573361,-2.0193819 2.80664,-2.0957031 z M 16.451172,19.367188 c -0.991599,0.132165 -2.361314,0.0099 -3.083984,0.707031 0.947254,1.776995 4.158128,2.037392 3.796874,4.566406 -0.0054,1.31812 -0.882637,3.030118 0.134766,4.072266 0.897551,-1.061021 2.03162,-2.082236 3.578472,-2.025615 1.529445,-0.332703 3.604071,0.270001 3.431294,2.19163 0.211378,3.093459 -0.610164,7.374676 -3.972656,8.433594 -2.643254,0.0509 -3.829921,-3.069116 -5.330079,-4.761719 -1.619056,-2.576848 -5.3820212,-1.949774 -7.5175778,-0.574219 1.8356408,1.245516 4.4235568,1.070273 6.1425138,2.690123 2.452084,1.640505 3.995392,4.44428 3.879047,7.405377 0.422281,2.12436 2.930101,0.552906 3.781174,-0.400187 5.38189,-4.607296 6.36974,-13.201202 2.914062,-19.21875 -1.664146,-2.570668 -4.885279,-3.274888 -7.753906,-3.085937 z" /></g>
</svg>
