<?xml version="1.0" encoding="UTF-8" standalone="no"?>
<svg>
<g><path d="m 30.03125,3.3515625 c -0.9532,-0.00911 -2.290507,0.1368139 -1.984375,1.4277344 0.411286,1.8669295 -1.280654,3.2786335 -3.039063,3.0703125 C 22.9882,7.463359 22.461475,9.5570853 22.421875,11.125 c 0.05333,1.455121 -1.438485,2.474833 -2.680073,1.561634 -1.039304,-0.128992 -2.217839,-1.45096 -3.230083,-0.924915 -0.390477,3.420583 -3.662147,5.625126 -4.894531,8.644531 2.431578,0.453603 5.170211,-1.217295 6.080078,-3.511719 2.808451,-3.217913 7.383071,-3.959879 10.39388,-6.9760611 1.814253,-1.7432444 4.422974,-3.3887397 5.002604,-5.9419074 -0.829803,-0.6372698 -2.062612,-0.6004165 -3.0625,-0.625 z m 5.125,6.0058594 c -3.521021,2.8164901 -7.175709,5.7226371 -10.005859,9.1972661 2.066748,0.238281 5.099,0.206281 6.085937,2.404296 -0.189606,1.566148 -2.361091,1.975098 -2.861328,3.253907 1.229057,1.056276 3.285145,3.410163 4.849609,1.664062 1.099459,-1.936571 4.496813,-3.309049 5.876953,-0.990234 1.129467,2.853111 -2.220417,5.132551 -4.724609,5.375 -2.466524,-0.293445 -4.04895,1.751102 -5.355469,3.498047 -1.190527,1.50102 -4.5004,2.545808 -5.273437,0.121093 -0.584043,-1.98211 1.180172,-3.523024 2.677734,-4.376953 0.644851,-1.842049 -2.119327,-2.303867 -3.072265,-1.041015 -1.915133,1.592828 -3.915688,3.91547 -3.351563,6.5625 -0.459164,2.027886 -3.148882,3.550022 -5.082031,2.724609 -2.334726,-1.655986 -0.07807,-5.757095 -2.981655,-6.950014 -0.809861,-0.524178 -1.931535,-0.47519 -1.578892,0.821108 0.350826,2.121927 -0.8341707,4.310358 -3,4.8125 -1.8629066,0.492093 -2.6322817,3.067917 -0.8886719,4.207031 0.8623153,0.590666 2.0541463,1.420993 3.0703125,1.230469 0.1141233,-1.05967 -0.089982,-3.299605 1.6484374,-2.90625 3.134117,1.520723 6.973048,1.025537 9.863281,3.080078 2.397544,2.176623 6.177322,1.611091 9.157338,1.098406 2.348043,-0.642991 4.208381,-2.691641 6.813366,-2.551531 2.971225,-1.193623 5.649632,-3.961949 6.208984,-7.177735 -0.206058,-2.518925 -0.757301,-5.252629 0.625,-7.621093 0.601639,-1.617443 2.421579,-3.144113 1.964844,-4.927735 -1.825219,-0.78765 -3.154731,2.235231 -5.160157,1.353516 C 38.627693,20.782621 39.99597,17.337984 42.017578,16.507812 43.358964,15.332254 41.54437,13.393929 40.619141,12.441406 39.04541,11.092333 37.275828,9.6535282 35.15625,9.3574219 Z m -0.798828,6.3105471 c 2.901666,0.128206 2.436699,5.026617 -0.01758,5.484375 -3.376778,0.02323 -3.303341,-5.411622 0.01758,-5.484375 z m -13.134766,4.759765 c -2.400632,1.189121 -4.158307,3.437288 -5.693359,5.560547 -0.438597,1.208457 1.960561,0.580137 2.365234,0.07617 1.639987,-1.348454 4.081388,-3.165974 3.611328,-5.535156 -0.05723,-0.09636 -0.179243,-0.125803 -0.283203,-0.101563 z m 17.220703,10.892578 c 1.582142,-0.262701 2.689092,1.956646 1.119141,2.791016 -2.425072,1.982255 -4.913148,4.183863 -7.886719,5.238281 -1.950703,-0.221915 -0.798065,-2.764275 -0.03125,-3.685547 1.586614,-2.188895 3.971283,-4.244985 6.798828,-4.34375 z m -13.029297,4.757813 c 1.968337,0.404842 3.936441,3.804698 1.449219,4.916016 -1.752389,1.096344 -4.798557,-0.52093 -3.6875,-2.720703 0.430984,-0.886547 1.159345,-2.090867 2.238281,-2.195313 z" /></g>
</svg>
