<?xml version="1.0" encoding="UTF-8" standalone="no"?>
<svg>
<g><path d="m 20.865234,6.4433594 c -1.445805,0.6838195 0.852803,1.9266994 1.574219,2.1347656 1.734911,0.852089 4.119212,2.028206 4.417969,4.117187 -1.128411,1.512963 -3.579798,1.056721 -5.181641,1.839844 -0.552372,0.169489 -3.029304,0.717728 -2.027343,1.541016 2.391644,0.804128 6.130644,-0.333302 7.396484,2.566406 0.71983,1.905368 -1.158626,3.96318 -3.136719,3.234375 -2.18795,-0.27509 -3.893525,-2.293774 -5.507812,-3.181641 -0.160405,4.008666 2.432396,7.677125 4.78456,10.727059 1.833615,2.323361 4.805326,3.22744 7.637315,3.411613 2.06689,0.341758 1.827462,3.14668 0.199218,3.925782 -2.221343,1.508103 -5.000701,0.865015 -7.451172,0.542968 1.935889,2.781538 6.293248,3.243398 9.164063,2.205078 1.707243,-1.17225 5.269414,-0.912184 5.615234,1.521485 -0.07459,1.74611 -2.707252,0.792393 -2.978515,2.095703 1.848422,1.291849 4.083676,-0.274155 5.660156,-1.384766 1.078447,-0.700249 3.130293,-0.274824 3.113281,-2.078125 0.308576,-1.314414 -0.886404,-1.808199 -1.953125,-1.474609 -2.247575,-0.02031 -1.842139,-3.750502 0.304688,-3.544922 1.397265,-0.63273 2.425349,-2.783917 1.828125,-4.11914 -3.072408,1.195219 -4.78329,5.33933 -8.371094,5.283203 -1.932148,-0.661488 -1.427447,-3.42106 -0.195313,-4.554688 1.642537,-2.327142 4.157494,-4.342708 5.646485,-6.507812 -1.847734,-0.262193 -3.826652,1.168019 -5.554688,0.388671 -0.397917,-1.467544 2.759373,-2.810649 0.929688,-4.095703 -2.777202,-1.52621 -6.904945,0.429828 -9.154297,-2.197265 -0.391711,-1.92537 2.276068,-2.42138 3.669103,-2.755533 1.035379,-0.314338 2.894192,-0.321254 3.313319,-1.394858 -0.720047,-0.496124 -2.046326,-0.51613 -2.216797,-1.736328 C 31.684133,10.880321 32.963049,8.8994564 34.316406,7.4453125 31.742943,6.948748 29.341115,7.8947755 26.955078,8.7011719 24.580723,9.0226234 23.239482,6.2095887 20.865234,6.4433594 Z m -7.251953,4.5429686 c -2.98465,0.740495 -6.1494459,2.297132 -7.8906248,4.949219 -0.9972677,2.55191 -2.4954178,5.042296 -1.9398588,7.909974 0.3665224,2.528556 0.2910364,5.633435 2.1507964,7.55487 1.6463986,1.436441 5.0185732,-0.217668 5.8320312,2.292968 0.56318,1.61443 -0.671967,3.482809 -2.4765625,3.056641 -1.8465818,-0.461264 -2.6009306,1.952876 -0.5722656,2.320312 3.3822601,0.414729 6.1778811,-2.448285 8.2089841,-4.833984 0.915279,-0.860284 2.093269,-3.845072 -0.126953,-3.621094 -0.52402,1.376265 -2.351461,2.375398 -3.626953,1.208985 -1.477515,-1.476679 0.55239,-3.376391 2.103516,-3.589844 1.395518,-0.51855 1.884343,-2.832212 0.890625,-3.746094 -3.286483,0.746433 -5.890694,4.119603 -9.4492191,3.769531 C 4.769807,27.706309 5.9613665,25.256288 7.0372565,24.421386 9.06248,22.140507 12.467251,21.258256 14.09375,18.677734 12.572729,17.782347 9.7433136,19.145053 8.828125,17.210938 c 0.345839,-2.466355 3.251043,-3.525994 4.572266,-5.382813 0.04767,-0.144595 0.901945,-0.984149 0.21289,-0.841797 z m 16.572266,12.69336 c 2.213798,-0.07433 4.702722,1.695159 4.048828,4.134765 -0.500565,2.61156 -4.083482,2.405748 -5.421875,0.605469 -1.684307,-1.430398 -1.028096,-4.675888 1.373047,-4.740234 z m -5.519531,1.375 c 1.852852,0.05685 2.414065,3.536348 0.15625,3.277343 -1.306661,-0.275608 -1.757157,-3.1204 -0.15625,-3.277343 z" /></g>
</svg>
