<?xml version="1.0" encoding="UTF-8" standalone="no"?>
<svg>
<g><path d="m 30.367188,7.3691406 c -1.758739,0.1658213 -0.271072,2.3004795 -0.580079,3.3886714 -0.110922,1.441259 -0.458184,4.171708 -2.361328,4.027344 -2.400857,-1.129728 -3.627114,-4.378424 -6.357422,-4.697265 -1.11737,1.283894 -3.00245,0.945513 -4.296875,1.666015 -0.969299,1.996871 0.380873,5.349497 -2.019531,6.587891 -2.158967,0.182425 -2.283117,-2.703451 -2.974609,-4.109375 -1.637492,-1.369094 -4.581217,1.16158 -6.058594,-0.785156 0.020971,-1.365769 -2.2179513,-1.486343 -1.9824219,0.144531 -0.6068997,6.349972 -0.558186,12.807912 0.1113281,19.152344 0.1466692,1.83722 0.9805302,-0.257479 0.8027344,-1.058594 -0.1285948,-2.074435 0.9524916,-5.313661 3.5878906,-4.738281 2.2022858,0.273 2.0812438,2.873252 1.5458277,4.464021 -0.3357594,0.833636 0.034739,3.459479 1.1787821,1.744963 0.430664,-1.317579 2.467717,-2.200935 3.111328,-0.568359 0.367831,1.219698 0.134794,3.291627 2.099609,3.066406 3.412026,-0.197235 3.523066,-4.204119 4.181314,-6.739318 0.332087,-3.037514 1.68875,-6.777056 -0.667642,-9.350526 -1.136441,-2.153082 -1.425748,-5.586883 0.650391,-7.251953 2.037878,-0.735561 2.654143,2.177471 3.003906,3.595703 0.413522,1.872164 0.561128,3.89319 1.527344,5.582031 1.670089,0.43144 3.86663,1.71781 3.091797,3.783204 -1.142931,2.952713 -2.614903,6.062407 -1.738282,9.300781 0.396967,2.377621 -2.291332,3.598082 -3.269531,5.066406 3.451588,-1.317828 4.84498,-5.137195 6.324219,-8.275391 1.064612,-2.328281 1.967969,-5.193127 0.115234,-7.396484 -0.731787,-1.681807 -2.582126,-3.896794 -1.322266,-5.716797 1.490113,-1.289261 3.703106,0.555677 5.136719,-0.326172 C 33.496644,14.536787 32.899964,11.063534 32.623047,7.7070312 31.947326,7.3228436 31.122141,7.3327183 30.367188,7.3691406 Z m 10.701171,2.0703125 c -2.647519,1.3441029 -3.973212,4.7357709 -3.007812,7.5722659 0.530355,3.907449 -3.244143,6.608702 -3.302735,10.441406 -0.09543,2.073133 -1.443661,4.135152 -1.046874,6.148437 2.644436,-1.190774 2.774986,-5.46918 6.041015,-5.9375 1.866004,-0.400677 3.231458,1.702479 2.306641,3.298829 -0.748604,2.592575 -4.711638,3.151176 -4.660156,6.001953 1.717808,0.820118 3.817798,-0.807245 5.019531,-2.025391 2.485844,-3.089797 2.564296,-7.52705 1.919922,-11.236328 -1.629593,-0.667463 -4.332054,1.511122 -5.560547,-0.435547 -0.371126,-3.285346 4.349194,-5.350859 3.101562,-8.724609 -0.9651,-1.566425 -0.343153,-3.506779 -0.574218,-5.0937502 -0.07487,-0.031983 -0.158927,-0.027524 -0.236329,-0.00977 z M 7.0058594,15.902344 c 2.2720669,0.48731 2.5048788,3.667542 1.9921875,5.521484 -0.274536,1.798645 -2.7639376,2.447089 -3.6386719,0.75 -0.9108814,-1.938258 -0.6293133,-4.926331 1.2421875,-6.189453 0.1281294,-0.0501 0.2667501,-0.08219 0.4042969,-0.08203 z m 6.7128906,5.818359 c 2.276622,-0.124042 5.012901,1.427234 4.576264,4.045262 -0.09516,1.960524 -0.403892,5.000064 -2.666108,5.583644 -2.167343,-0.598718 -2.783166,-3.363827 -3.509874,-5.216927 -0.365059,-1.373514 -1.194059,-3.902025 0.865343,-4.316276 0.240885,-0.05567 0.486354,-0.09492 0.734375,-0.0957 z m 3.955078,18.646485 c -0.474513,0.03851 -3.040378,0.183816 -2.011719,1.052734 1.490329,0.517685 3.263685,-0.04639 4.447266,-0.94336 -0.801142,-0.149544 -1.623955,-0.136234 -2.435547,-0.109374 z m 21.982422,1.033203 c -2.185357,0.192665 -3.054787,3.067527 -5.449219,2.683593 -1.462098,0.04746 -3.135544,-0.668472 -4.410156,-0.36914 2.064207,1.268571 5.177161,1.359579 7.167969,-0.169922 1.07924,-0.479646 3.95924,-0.356842 3.294922,-2.070313 -0.187498,-0.08647 -0.401514,-0.09431 -0.603516,-0.07422 z" /></g>
</svg>
