<?xml version="1.0" encoding="UTF-8" standalone="no"?>
<svg>
<g><path d="m 21.957031,7.4101562 c -1.580812,0.8840418 0.52202,2.5001355 1.438249,3.0126078 2.702094,1.620267 5.878153,3.188036 9.108626,2.526455 3.33182,0.543337 5.2803,3.82672 7.360635,6.166535 0.942355,0.991537 1.436468,2.33811 1.84835,3.497527 1.964846,-1.043107 0.309982,-3.762792 -0.402344,-5.207031 C 39.485849,14.595177 37.644013,11.119219 34.363778,9.8691075 30.769759,8.9230666 26.721713,10.079566 23.332031,8.3457031 22.992729,7.8923823 22.597217,7.3580219 21.957031,7.4101562 Z m -8.330078,4.0390628 c -3.8434877,0.23698 -9.1388062,1.37788 -10.0312499,5.830078 -0.04512,0.819767 -0.7563531,3.129313 0.578125,1.414062 1.7222917,-1.794146 3.8979496,-3.349002 6.4863279,-3.285156 2.396186,-0.708508 5.28096,-1.318764 6.97461,-3.191406 -0.976237,-1.012838 -2.710148,-0.728077 -4.007813,-0.767578 z m 10.714844,7.052734 c -0.848058,-0.148376 -1.3328,0.42236 -0.509766,0.828125 2.474604,1.645411 6.22945,1.843214 7.638672,4.81836 1.596095,0.767721 3.632874,0.771358 5.119141,2.001953 0.622293,0.526445 2.511387,1.080608 1.910156,-0.416016 -1.731805,-4.550454 -6.751318,-6.589271 -11.241096,-7.06454 -0.964312,-0.133062 -1.942985,-0.23324 -2.917107,-0.167882 z m -11.359375,0.951172 c -1.721261,0.221542 -4.4182507,0.463134 -4.8476564,2.462891 1.8598837,1.961082 5.0703594,0.320911 6.8847654,-1.023438 0.765999,-0.466163 0.861826,-1.533358 -0.353515,-1.388672 -0.557034,-0.07978 -1.122658,-0.08557 -1.683594,-0.05078 z m -3.5429689,7.021484 c -1.5662565,1.068492 0.8165429,2.647741 1.2529199,3.782963 0.472066,1.126243 1.865915,2.625653 1.135752,3.8186 C 9.6272433,33.482434 8.1817148,31.228504 6.5390625,29.732422 6.2428816,29.38497 4.7539002,27.742708 4.5996094,28.783203 c 0.5995108,2.009744 2.8421225,3.269635 2.8652344,5.542969 1.1124394,0.451114 2.1091315,1.361538 2.453125,2.638672 3.0153252,3.374668 7.8341232,4.449704 12.1269532,5.1875 3.095804,0.186265 6.203384,1.283395 9.28125,0.966797 0.668091,-1.371284 -1.199076,-2.767331 -1.906986,-3.869938 -2.05486,-2.421681 -4.562622,-5.082125 -7.981686,-5.053891 -2.496929,-0.478018 -3.220873,-3.328035 -5.443729,-4.316826 -2.042877,-1.318872 -4.228577,-2.694917 -6.5543179,-3.403877 z m 13.6894529,0.878907 c -2.416828,-0.23689 0.350789,0.874708 1.058423,1.460181 1.98772,1.243956 3.34925,3.197934 4.265796,5.276147 1.931463,0.851059 4.482755,-1.157258 6.220703,0.675781 0.827149,0.493474 1.563552,2.808464 2.636719,1.917969 1.081043,-3.120555 -1.577868,-5.755854 -4.188907,-6.935916 -3.05544,-1.619675 -6.51732,-2.57046 -9.992734,-2.394162 z m -8.441406,7.33789 c 3.410079,0.61058 6.793287,1.859464 9.810547,3.572266 0.952695,0.386535 1.024624,1.839846 -0.142578,1.929687 C 20.70072,40.75426 16.970511,39.032115 14.138672,36.837891 13.351291,36.22868 13.50659,34.650146 14.6875,34.691406 Z" /></g>
</svg>
