<?xml version="1.0" encoding="UTF-8" standalone="no"?>
<svg>
<g transform="translate(-24.000000,24.000000) scale(0.050000,-0.050000)">
	<path d="M500 860 c-7 -13 -9 -35 -6 -51 3 -16 1 -40 -4 -53 -5 -14 -10 -49
	      -12 -80 -2 -46 -7 -57 -25 -65 -16 -8 -23 -19 -23 -40 0 -16 5 -33 10 -36 6
	      -4 10 7 10 24 0 29 2 30 20 19 11 -7 16 -14 10 -16 -5 -2 -4 -12 3 -24 9 -16
	      9 -22 0 -25 -7 -3 -13 -10 -13 -16 1 -7 10 -1 21 12 12 14 17 31 13 43 -3 10
	      2 38 11 62 9 23 17 65 18 92 1 27 5 54 8 59 4 6 9 24 13 40 4 17 9 37 12 46 2
	      9 -1 16 -8 16 -7 0 -21 4 -30 8 -11 4 -20 0 -28 -15z"/>
	<path d="M740 842 c-19 -9 -39 -27 -45 -39 -5 -13 -13 -23 -17 -23 -5 0 -8 -6
	      -8 -14 0 -8 -6 -16 -14 -19 -7 -3 -16 -20 -21 -39 -4 -18 -9 -27 -12 -20 -2 6
	      -12 12 -20 12 -8 0 -13 -6 -10 -12 3 -7 8 -20 12 -29 4 -10 -3 -28 -18 -45
	      -29 -35 -26 -59 5 -43 11 6 23 7 27 3 3 -5 12 -10 19 -12 10 -2 11 7 6 33 -5
	      28 -3 35 10 35 9 0 16 7 16 15 0 26 50 116 60 110 6 -3 10 5 10 19 0 15 6 26
	      14 26 20 0 34 22 27 42 -6 17 -8 17 -41 0z"/>
	<path d="M276 835 c-9 -25 -7 -35 7 -35 7 0 18 -10 26 -22 12 -20 14 -20 26
	      -5 15 21 8 67 -10 67 -8 0 -20 3 -28 6 -8 3 -17 -2 -21 -11z"/>
	<path d="M396 802 c2 -69 3 -72 19 -66 16 7 22 74 6 74 -5 0 -8 7 -7 16 0 9
	      -3 18 -9 20 -6 2 -10 -16 -9 -44z"/>
	<path d="M340 705 c0 -2 9 -22 20 -44 16 -30 25 -38 41 -34 27 8 29 14 14 51
	      -12 26 -20 32 -45 32 -16 0 -30 -2 -30 -5z"/>
	<path d="M296 653 c-11 -11 -6 -23 9 -23 8 0 15 4 15 9 0 13 -16 22 -24 14z"/>
	<path d="M180 620 c0 -6 4 -9 9 -5 5 3 15 -11 22 -30 15 -40 20 -42 43 -17 15
	      18 15 20 -1 35 -24 21 -73 33 -73 17z"/>
	<path d="M660 615 c-10 -12 -9 -15 4 -15 10 0 24 7 32 15 14 13 13 15 -4 15
	      -11 0 -25 -7 -32 -15z"/>
	<path d="M321 614 c-1 -7 13 -27 29 -45 34 -38 40 -47 56 -75 6 -10 24 -21 40
	      -22 29 -4 29 -4 7 16 -13 11 -23 23 -23 28 0 5 -13 20 -30 34 -16 14 -30 30
	      -30 37 0 7 -9 13 -19 13 -11 0 -22 6 -24 13 -4 8 -6 8 -6 1z"/>
	<path d="M740 599 c-14 -11 -32 -26 -41 -33 -9 -8 -25 -18 -35 -24 -18 -10
	      -18 -11 1 -17 11 -4 28 -11 37 -16 19 -10 51 -1 43 12 -3 5 7 11 22 15 15 4
	      36 15 46 25 10 11 27 19 37 19 28 0 25 15 -5 28 -38 17 -77 14 -105 -9z"/>
	<path d="M257 546 c-8 -19 15 -37 32 -26 17 10 7 40 -13 40 -7 0 -16 -6 -19
	      -14z"/>
	<path d="M322 540 c0 -14 2 -19 5 -12 2 6 2 18 0 25 -3 6 -5 1 -5 -13z"/>
	<path d="M543 543 c-7 -3 -13 -11 -13 -18 0 -8 -9 -22 -20 -32 -15 -15 -20
	      -34 -21 -86 -1 -37 1 -70 4 -73 3 -4 14 7 24 24 15 25 22 28 37 20 13 -7 21
	      -7 26 2 5 8 19 10 42 6 23 -4 41 -1 57 10 18 13 36 15 82 10 49 -6 59 -4 59 9
	      0 11 -11 15 -47 15 -27 0 -57 3 -68 6 -13 3 -30 -3 -45 -16 -13 -11 -30 -18
	      -38 -15 -7 3 -29 5 -47 5 -27 0 -34 4 -37 23 -6 31 19 72 56 91 21 11 24 15
	      10 13 -12 -3 -27 -1 -35 3 -8 4 -20 5 -26 3z"/>
	<path d="M74 510 c0 -17 7 -20 43 -20 32 0 41 3 37 14 -3 8 -19 17 -36 20 -43
	      8 -44 8 -44 -14z"/>
	<path d="M633 506 c3 -8 -4 -21 -18 -30 -21 -14 -27 -37 -14 -51 3 -3 19 0 35
	      5 32 11 44 51 23 76 -15 18 -33 18 -26 0z"/>
	<path d="M154 455 c-4 -9 -19 -15 -35 -15 -16 0 -29 -4 -29 -9 0 -5 17 -7 38
	      -4 57 8 73 8 135 0 59 -7 69 -1 41 27 -21 22 -142 23 -150 1z"/>
	<path d="M357 434 c-32 -17 -35 -39 -7 -47 22 -6 28 -37 7 -37 -7 0 -28 -11
	      -45 -24 -18 -13 -52 -29 -76 -36 -25 -7 -59 -25 -78 -41 -32 -29 -32 -29 -8
	      -27 14 1 30 -1 36 -4 10 -7 62 15 74 30 3 4 29 20 59 35 38 20 56 25 61 17 5
	      -8 9 -7 14 5 3 9 4 21 1 25 -3 5 6 20 20 34 34 34 32 48 -7 44 -33 -3 -52 18
	      -21 24 10 2 13 6 8 10 -6 3 -22 0 -38 -8z"/>
	<path d="M207 403 c-18 -17 -5 -33 28 -33 37 0 43 8 23 28 -13 13 -41 16 -51
	      5z"/>
	<path d="M124 376 c-44 -19 -52 -46 -14 -46 59 0 105 38 64 54 -9 3 -16 6 -17
	      6 -1 -1 -16 -7 -33 -14z"/>
	<path d="M620 362 c0 -4 -18 -7 -39 -7 -22 0 -42 -3 -46 -6 -8 -9 19 -54 35
	      -57 8 -2 22 -10 31 -18 24 -21 29 -17 26 24 -2 36 -1 37 31 34 36 -2 40 4 15
	      24 -20 15 -53 19 -53 6z"/>
	<path d="M410 301 c0 -10 -9 -21 -20 -24 -20 -5 -29 -37 -10 -37 18 0 10 -18
	      -10 -23 -11 -3 -20 -10 -20 -17 0 -7 8 -9 20 -5 22 7 24 0 20 -95 -1 -40 1
	      -52 9 -44 13 12 20 40 28 107 3 26 10 50 14 53 5 3 9 17 9 31 0 14 10 34 22
	      44 11 11 19 19 17 20 -61 11 -79 9 -79 -10z"/>
	<path d="M510 275 c0 -8 5 -15 10 -15 6 0 10 -6 10 -14 0 -15 21 -26 47 -26
	      10 0 3 13 -21 35 -42 39 -46 41 -46 20z"/>
	<path d="M470 218 c0 -30 14 -50 31 -47 25 5 58 -11 64 -32 7 -20 35 -27 35
	      -8 0 6 7 9 15 5 9 -3 19 3 26 16 10 18 8 24 -11 40 -26 21 -50 24 -50 6 0 -10
	      -2 -10 -8 -1 -4 6 -20 15 -35 18 -15 4 -30 11 -33 16 -11 18 -34 9 -34 -13z"/>
</g>
</svg>
