<?xml version="1.0" encoding="UTF-8" standalone="no"?>
<svg>
<g transform=" scale(0.75,0.75) translate(-24.000000,24.000000) scale(0.100000,-0.100000)">
		<path d="M161 412 c-27 -4 -81 -53 -81 -74 0 -22 17 -41 29 -34 7 5 8 13 3 23
		      -6 10 -1 24 17 44 29 33 48 37 67 12 12 -17 13 -17 14 3 0 25 -14 32 -49 26z"/>
		<path d="M230 390 c0 -5 10 -10 23 -10 12 0 30 -9 40 -20 9 -11 23 -20 31 -20
		      18 0 29 -27 27 -67 -3 -46 11 -41 30 11 16 44 16 44 -12 65 -16 12 -35 21 -43
		      21 -7 0 -16 7 -20 15 -6 17 -76 21 -76 5z"/>
		<path d="M170 325 c-14 -16 -3 -20 19 -6 8 5 9 11 3 15 -5 3 -15 -1 -22 -9z"/>
		<path d="M160 252 c0 -31 5 -41 24 -52 26 -13 56 -8 56 10 0 6 -4 9 -10 5 -18
		      -11 -50 19 -50 47 0 16 -4 28 -10 28 -5 0 -10 -17 -10 -38z"/>
		<path d="M94 265 c-11 -27 2 -37 14 -11 7 16 8 26 1 26 -5 0 -12 -7 -15 -15z"/>
		<path d="M290 224 c0 -14 4 -23 10 -19 6 3 10 15 10 26 0 10 -4 19 -10 19 -5
		      0 -10 -12 -10 -26z"/>
		<path d="M394 238 c-4 -6 -2 -14 4 -16 7 -2 12 -8 12 -13 0 -4 -7 -6 -16 -2
		      -13 5 -15 2 -9 -15 12 -40 -3 -62 -41 -62 -30 0 -34 3 -34 25 0 16 6 25 15 25
		      8 0 15 5 15 10 0 16 -22 12 -36 -7 -28 -37 -12 -74 35 -77 39 -3 76 32 66 63
		      -4 12 -2 21 4 21 6 0 11 -7 11 -15 0 -8 5 -15 10 -15 14 0 12 64 -2 78 -15 15
		      -25 15 -34 0z"/>
		<path d="M73 209 c-17 -17 -16 -51 0 -74 16 -21 37 -12 37 16 0 11 -4 18 -9
		      14 -5 -3 -11 8 -13 25 -2 25 -5 29 -15 19z"/>
		<path d="M260 206 c0 -9 5 -16 10 -16 6 0 10 4 10 9 0 6 -4 13 -10 16 -5 3
		      -10 -1 -10 -9z"/>
		<path d="M120 126 c0 -8 5 -18 10 -21 6 -3 10 1 10 9 0 8 -4 18 -10 21 -5 3
		      -10 -1 -10 -9z"/>
		<path d="M235 109 c-4 -6 -19 -10 -33 -9 -43 3 -54 1 -47 -10 3 -5 26 -10 50
		      -10 34 0 47 5 55 20 8 16 8 20 -4 20 -8 0 -18 -5 -21 -11z"/>
</g>
</svg>
