<?xml version="1.0" encoding="UTF-8" standalone="no"?>
<svg>
<g><path d="m 2.5,14.75 8,0 0,0.75 -8,0 z M 2.5,7 c -0.125,0 0,0.5 0.25,1.75 0.25,1.75 0.25,1.5 0,3.25 0.5,0 1,-0.25 1.5,-0.25 C 4.25,10.25 4,10 3.5,8.25 3.25,7.25 2.625,7 2.5,7 z m 4.25,0.75 c -0.25,0 -0.5,0 -1,0.5 -0.75,1 -0.75,1.5 -1,3.5 0.5,0 1,0.25 1.5,0.25 -0.005,-1.6198 0,-3 0.5,-4.25 z M 0.25,9.5 c 0,0.25 0.25,0.5 0.5,1 C 0.98629,11.2 0.97479,10.49 1,12.25 1.75,12 2,12 2.25,12 2.25,10.75 1.75,10.25 1.25,9.75 0.75,9.5 0.75,9.5 0.25,9.5 z m 8.5,0.25 C 8.75,10 8.5,10 8.25,10.5 8,11.5 8,11.25 8,12.25 7.25,12 7,12 6.75,12.02 6.761,10.43 7.5,10.25 7.75,10 8.25,9.75 8.25,9.75 8.75,9.75 z M 1.5,13 l 8,0 0,0.75 -8,0 c -2e-5,-0.5 0,-0.25 0,-0.75 z"/></g>
</svg>
