<?xml version="1.0" encoding="UTF-8" standalone="no"?>
<svg>
	<g><path d="m 9.7677669,1.9896 4.2426411,4.2427 c 0,0 0,0 0,0 l -0.707107,0.7071 c 0,0 0,0 0,0 l -4.2426409,-4.2427 c 0,0 0,0 0,0 l 0.7071068,-0.7071 c 0,0 0,0 0,0 z m -2.1213204,2.1214 4.2426415,4.2426 c 0,0 0,0 0,0 l -0.707107,0.7071 c 0,0 0,0 0,0 l -4.2426413,-4.2426 c 0,0 0,0 0,0 l 0.7071068,-0.7071 c 0,0 0,0 0,0 z m -5.6568482,7.0709 4.2426346,-4.2426 c 0,0 0,0 0,0 l 0.7071068,0.7072 c 0,0 0,0 0,0 l -4.2426346,4.2426 c -3.1e-6,0 -6.1e-6,0 -6.1e-6,0 l -0.7071067,-0.7072 c 0,0 2.9e-6,0 6e-6,0 z m 2.1213204,2.1214 4.2426346,-4.2427 c 0,0 0,0 0,0 l 0.7071068,0.7072 c 0,0 0,0 0,0 l -4.2426346,4.2426 c -3.1e-6,10e-5 -6.1e-6,10e-5 -6.1e-6,10e-5 l -0.7071068,-0.7072 c 0,0 3e-6,0 6.1e-6,0 z" /></g>
</svg>
