<?xml version="1.0" encoding="UTF-8" standalone="no"?>
<svg>
<g><path d="M 8.9995715,3.6368875 C 8.881708,3.5303378 8.5297712,3.5321523 8.2531078,3.5712828 7.4652757,3.682735 6.4397191,3.9561051 5.7623539,4.3536555 A 0.99999995,1.0000002 45 0 0 5.7071784,4.2928232 0.99999995,1.0000002 45 0 0 5.3791756,4.0766846 C 5.5484986,3.3094589 5.491201,2.248791 5.3536249,1.4643961 5.2984615,1.1498515 5.1667366,0.75728916 5.0000716,0.7572892 4.8334059,0.75728851 4.7016937,1.1498536 4.6465169,1.4643954 4.5089365,2.2487973 4.4516508,3.3094618 4.6209634,4.0766896 A 0.99999995,1.0000002 45 0 0 4.292965,4.2928237 0.99999995,1.0000002 45 0 0 4.2397915,4.3543412 C 3.5624485,3.9562078 2.535501,3.6828382 1.7469666,3.5712737 1.4307677,3.5265469 1.016768,3.5301363 0.96528423,3.6886633 0.91377851,3.8471684 1.2466527,4.0941997 1.5288596,4.2437534 2.2315604,4.6165607 3.2214583,4.9978092 4.0030425,5.0744646 A 0.99999995,1.0000002 45 0 0 4.1515018,5.5240098 C 3.5635,6.0451618 2.9862739,6.9367095 2.636478,7.6522265 2.4962206,7.9391323 2.3717987,8.3345896 2.5066539,8.4325337 2.6414356,8.5305459 2.9787226,8.2899712 3.2082318,8.0679361 3.7805004,7.5142927 4.4506537,6.6902305 4.7646991,5.9700896 a 0.99999995,1.0000002 45 0 0 0.4709465,-7e-7 C 5.549683,6.6902318 6.2198435,7.514287 6.7921036,8.0679362 7.0214173,8.2901795 7.3588752,8.5304802 7.4936932,8.4325294 7.6285162,8.3345762 7.5041233,7.939121 7.3638708,7.6522288 7.01436,6.9372993 6.4377201,6.046718 5.8502175,5.5253865 A 0.99999995,1.0000002 45 0 0 5.9973007,5.0744696 C 6.7788869,4.9978121 7.7687834,4.6165719 8.4714879,4.2437527 8.753581,4.0940864 9.0864649,3.8470721 9.0349883,3.6885961 9.0282284,3.6691083 9.0166389,3.6520033 8.9997603,3.6368217 Z" /></g>
</svg>
