<?xml version="1.0" encoding="UTF-8" standalone="no"?>
<svg>
<g><path d="m 7.6319041,8.2689252 c 0.00481,-0.00924 0.00897,-0.018684 0.0133,-0.028298 C 7.7495175,8.0101218 7.7225221,7.6839764 7.6508126,7.4444859 7.4366619,6.7293382 6.9856613,5.9104543 6.3710421,5.4454 7.1416357,5.4304127 7.9874265,5.0326401 8.5810047,4.5799608 8.8460602,4.3778284 9.137999,4.0059718 9.0349952,3.6889543 8.9319914,3.3719368 8.4772371,3.242703 8.1439887,3.2349638 7.3976935,3.2176374 6.47963,3.3929726 5.8474107,3.8337781 6.0712952,3.0962678 5.9548346,2.1686874 5.7077296,1.4642501 5.5973931,1.1497072 5.3336703,0.75747142 5.0003297,0.75746862 4.6669921,0.75745966 4.4030032,1.1498817 4.2926777,1.4644273 4.045612,2.1687089 3.928268,3.0961386 4.1519717,3.8335736 3.5197678,3.3931408 2.6021902,3.2175152 1.8561767,3.2348348 1.522932,3.2425734 1.0678267,3.3722499 0.96482585,3.6892705 0.86178227,4.006265 1.1533445,4.3780485 1.4183969,4.580182 2.0118585,5.0327724 2.8582767,5.4304147 3.6287388,5.4455543 3.0143243,5.9106683 2.5632898,6.7298807 2.3491872,7.4448669 2.2535927,7.7642025 2.2362341,8.2362972 2.5059068,8.432226 2.7755731,8.6281459 3.2199927,8.4655636 3.494136,8.2759483 4.1078495,7.8514621 4.7469543,7.1700457 4.9995411,6.4421307 5.2520166,7.1702135 5.8920877,7.8515331 6.5059221,8.2761001 6.7800681,8.4657168 7.2243004,8.6280246 7.493972,8.4320971 7.55296,8.3892351 7.5982508,8.3336091 7.6318863,8.2689161 Z M 5.7796348,5.3972441 A 0.87499845,0.87500065 27 0 1 4.6027625,5.779633 0.87499845,0.87500065 27 0 1 4.2203735,4.6027608 0.87499845,0.87500065 27 0 1 5.3972458,4.2203717 0.87499845,0.87500065 27 0 1 5.7796348,5.3972441 Z" /></g>
</svg>
