<?xml version="1.0" encoding="UTF-8" standalone="no"?>
<svg>
<g><path d="m 6.7177743,1.1708952 c -0.01042,-9e-5 -0.02072,4.9e-4 -0.03125,0.001 -0.252741,0.0117 -0.531083,0.18382 -0.711915,0.35644 -0.539979,0.51548 -1.06486,1.28909 -1.200195,2.04785 -0.363196,-0.6798 -1.101595,-1.25282 -1.774414,-1.57619 -0.300434,-0.1444 -0.764298,-0.2357 -1,0 -0.235702,0.2357 -0.144396,0.69956 0,1 0.323373,0.67282 0.89639,1.41122 1.576172,1.77441 -0.758768,0.13534 -1.532376,0.66022 -2.047851,1.2002 -0.230168,0.24111 -0.459925,0.65416 -0.308594,0.95117 0.151324,0.29701 0.620823,0.35407 0.951172,0.30957 0.739685,-0.0996 1.619304,-0.41609 2.174804,-0.9502 -0.105414,0.76325 0.154674,1.66055 0.508789,2.31739 0.158185,0.29341 0.480341,0.64004 0.80957,0.58789 0.329225,-0.0521 0.52812,-0.48067 0.587891,-0.8086 0.133835,-0.73425 0.103871,-1.66894 -0.232422,-2.3623 0.693358,0.33629 1.628047,0.36625 2.362305,0.23242 0.327929,-0.0598 0.756449,-0.25866 0.808594,-0.58789 0.05214,-0.32922 -0.294484,-0.65139 -0.587891,-0.80957 -0.65684,-0.35411 -1.554134,-0.6142 -2.317383,-0.50879 0.534105,-0.5555 0.850579,-1.43512 0.950196,-2.1748 0.04449,-0.33035 -0.01257,-0.79985 -0.309571,-0.95118 -0.06497,-0.0331 -0.135095,-0.0482 -0.208007,-0.0488 z m -1.717774,2.9541 a 0.87500065,0.87499845 0 0 1 0.875,0.875 0.87500065,0.87499845 0 0 1 -0.875,0.875 0.87500065,0.87499845 0 0 1 -0.875,-0.875 0.87500065,0.87499845 0 0 1 0.875,-0.875 z" /></g>
</svg>
