<?xml version="1.0" encoding="UTF-8" standalone="no"?>
<svg>
<g><path d="m 6.864258,1.2080098 c -0.158684,0.008 -0.406258,0.25814 -0.574219,0.48144 -0.478273,0.63589 -1.010149,1.55437 -1.208008,2.31445 a 0.99999995,1.0000002 0 0 0 -0.08203,-0.004 0.99999995,1.0000002 0 0 0 -0.384766,0.0791 c -0.422781,-0.66224 -1.213302,-1.37173 -1.865234,-1.8291 -0.261423,-0.18341 -0.63215,-0.36785 -0.75,-0.25 -0.117851,0.11785 0.0666,0.48857 0.25,0.75 0.457372,0.65194 1.166868,1.44245 1.829102,1.86524 a 0.99999995,1.0000002 0 0 0 -0.0791,0.38476 0.99999995,1.0000002 0 0 0 0.0059,0.0811 c -0.760478,0.19743 -1.679941,0.73029 -2.316407,1.20898 -0.255213,0.19196 -0.545417,0.48724 -0.469726,0.63574 0.07566,0.1485 0.485715,0.0878 0.791016,-0.006 0.760499,-0.23327 1.730046,-0.66365 2.336913,-1.16211 a 0.99999995,1.0000002 0 0 0 0.422853,0.2129 c -0.04727,0.78429 0.174989,1.82287 0.433593,2.57616 0.103696,0.30205 0.295347,0.66966 0.459961,0.64356 0.16461,-0.026 0.232996,-0.43461 0.238281,-0.7539 0.01317,-0.79614 -0.09566,-1.85271 -0.382813,-2.58399 a 0.99999995,1.0000002 0 0 0 0.333009,-0.33301 c 0.731276,0.28716 1.787846,0.39598 2.583984,0.38282 0.319299,-0.005 0.727836,-0.0737 0.753906,-0.23829 0.02607,-0.1646 -0.341518,-0.35627 -0.643555,-0.45996 -0.752673,-0.25839 -1.790155,-0.48038 -2.574219,-0.43359 a 0.99999995,1.0000002 0 0 0 -0.214843,-0.42285 c 0.49846,-0.60687 0.928845,-1.57641 1.162109,-2.33692 0.09364,-0.3053 0.154359,-0.71535 0.0059,-0.79101 -0.01856,-0.009 -0.03885,-0.0129 -0.06152,-0.0117 z" /></g>
</svg>
