<?xml version="1.0" encoding="UTF-8" standalone="no"?>
<svg>
<g><path d="M 8 5.1875 C 7.875 5.1875 7.75 5.375 7.75 5.75 C 7.75 6.5 7.5 9 7.5 11 L 8.5 11 C 8.5 9 8.25 6.5 8.25 5.75 C 8.25 5.375 8.125 5.1875 8 5.1875 z M 5.3125 5.6875 C 5.1875 5.6875 5.125 5.875 5.25 6.25 C 5.5 7 6 9 6 11 L 7 11 C 7 9 6 7 5.75 6.25 C 5.625 5.875 5.4375 5.6875 5.3125 5.6875 z M 10.6875 5.6875 C 10.5625 5.6875 10.375 5.875 10.25 6.25 C 9.9999997 7 9 9 9 11 L 10 11 C 10 9 10.5 7 10.75 6.25 C 10.875 5.875 10.8125 5.6875 10.6875 5.6875 z M 3.3125 7.15625 C 3.1484375 7.1328125 3.0625 7.3125 3.25 7.5 C 3.5 7.75 4.5 9 4.5 11 L 5.5 11 C 5.5 9 3.75 7.5 3.5 7.25 C 3.4375 7.1875 3.3671875 7.1640625 3.3125 7.15625 z M 12.6875 7.15625 C 12.632812 7.1640625 12.5625 7.1875 12.5 7.25 C 12.25 7.5 10.5 9 10.5 11 L 11.5 11 C 11.5 9 12.5 7.75 12.75 7.5 C 12.9375 7.3125 12.851562 7.1328125 12.6875 7.15625 z" /></g>  
</svg>
