<?xml version="1.0" encoding="UTF-8" standalone="no"?>
<svg>
<g><path d="m 8,6 c -0.125,0 -0.25,0.1875 -0.25,0.5625 0,0.63 -0.1622941,2.4841 -0.21875,4.25 l 0.9375,0 c -0.056456,-1.7659 -0.21875,-3.62 -0.21875,-4.25 0,-0.375 -0.125,-0.5625 -0.25,-0.5625 z m -2.6875,0.5 c -0.125,0 -0.1875,0.1875 -0.0625,0.5625 0.2074504,0.6224 0.5642971,2.1204 0.6875,3.75 l 1,0 c -0.2385637,-1.6344 -0.9795298,-3.1261 -1.1875,-3.75 -0.125,-0.375 -0.3125,-0.5625 -0.4375,-0.5625 z m 5.375,0 c -0.125,0 -0.3125,0.1875 -0.4375,0.5625 -0.20797,0.6239 -0.9489363,2.1156 -1.1875,3.75 l 1,0 c 0.123203,-1.6296 0.48005,-3.1276 0.6875,-3.75 0.125,-0.375 0.0625,-0.5625 -0.0625,-0.5625 z m -7.375,1.4688 c -0.1640625,-0.024 -0.25,0.1562 -0.0625,0.3437 0.2046274,0.2046 0.906328,1.0925 1.15625,2.5 l 0.9375,0 c -0.4251433,-1.4828 -1.6378401,-2.5441 -1.84375,-2.75 -0.0625,-0.062 -0.1328125,-0.086 -0.1875,-0.094 z m 9.375,0 c -0.05469,0.01 -0.125,0.031 -0.1875,0.094 -0.20591,0.2059 -1.418607,1.2672 -1.84375,2.75 l 0.9375,0 c 0.249922,-1.4075 0.951623,-2.2954 1.15625,-2.5 0.1875,-0.1875 0.101562,-0.3672 -0.0625,-0.3437 z" /></g>
</svg>
