<?xml version="1.0" encoding="UTF-8" standalone="no"?>
<svg>
<g><path d="m 7.2988732,4 c -2.1730624,0.041 -3.9238732,1.8177 -3.9238732,4.0006 0,2.2088 1.7930046,4.0018 4.0017841,4.0018 1.0326802,0 1.974306,-0.3922 2.6843839,-1.0352 -0.5006282,0.2877 -1.0813607,0.452 -1.699871,0.452 -1.8861007,0 -3.4162748,-1.5301 -3.4162748,-3.4162 0,-1.8861 1.5301741,-3.4163 3.4162748,-3.4163 0.6234296,0 1.2083501,0.1672 1.711675,0.4592 -0.711426,-0.6494 -1.6577527,-1.0459 -2.6961879,-1.0459 -0.025926,0 -0.052137,-5e-4 -0.077873,0 z m 4.0108628,2.1927 -0.812898,1.1188 -1.3152639,-0.4273 0.8128982,1.1188 -0.8128982,1.1188 1.3152639,-0.4274 0.812898,1.1189 0,-1.383 1.315264,-0.4273 -1.315264,-0.4274 0,-1.3829 z" /></g>
</svg>
