<?xml version="1.0" encoding="UTF-8" standalone="no"?>
<svg>
<g><path d="M 4,5 C 1.7909,5 0,6.79086 0,9 c 0,1.0247 0.397769,1.9241 1.03125,2.625 l 0.5625,-0.5 C 1.07812,10.5479 0.75,9.7781 0.75,8.75 c 0,-1.7949 1.4551,-3 3.25,-3 1.25,0 2.75,1.4551 2.75,3.25 0,0.8715 -0.25039,1.6242 -0.71875,2.1875 l 0.65625,0.75 C 7.48813,11.2131 8,10.1687 8,9 8,6.79086 6.2091,5 4,5 z M 2.75,10.5 C 2.5,12.75 2,13.75 1.25,15 L 0,15 c 1.5,-1.5 2.25,-3.25 2.75,-4.5 z m 1.25,0 c 0,2.25 0.5,3.75 0,5 l -1.25,0 C 3.75,14 3.25,12 4,10.5 z m 0.75,0 c 0.75,2 1.5,3 2.5,4.5 l -1.5,0 c -0.25,-1 -1.5,-3.25 -1,-4.5 z"/></g>
</svg>
