<?xml version="1.0" encoding="UTF-8" standalone="no"?>
<svg>
<g><path d="m 8.234375,5.99805 c 0.03578,0.59602 0.0826,0.60476 -0.06445,1.19726 C 8.056482,6.91223 7.867995,6.67665 7.558597,6.59375 7.758418,7.18443 7.996227,7.16573 7.996097,7.57812 7.879798,7.34095 7.701357,7.14897 7.429691,7.07617 7.575378,7.50684 7.740815,7.61261 7.820315,7.79883 7.45474,7.86763 7.144077,8.14077 7.041019,8.52539 L 6.781253,9.49023 c -0.112934,0.42148 0.06093,0.84903 0.400391,1.08204 -0.05322,0.20341 -0.09433,0.44114 -0.123047,0.73828 C 6.450724,10.62887 5.487596,10 4,10 5.05658,10.90564 5.930042,11.17378 6.457031,11.62891 5.651114,11.4435 4.513107,11.77074 3,13.5 5,13.5 5.75,11 7,13 v 1 h 1 v -1 c 0.01337,-0.0535 0.02656,-0.10338 0.04102,-0.15234 0.328009,-0.55672 2.571224,-0.27283 3.958984,0.65234 -1.08345,-1.89604 -2.45967,-1.88529 -3.494141,-1.47656 0.666285,-0.59099 1.79534,-0.20215 3.494141,-1.52344 -2.151911,0 -3.38852,0.57135 -4.09375,1.16797 -0.01156,-0.28528 -0.01887,-0.60018 -0.01758,-0.92774 0.385283,-0.054 0.716859,-0.33175 0.824219,-0.73242 L 8.972658,9.04297 C 9.075716,8.65835 8.940388,8.26583 8.658205,8.02344 8.820167,7.90191 9.019829,7.89387 9.36133,7.59375 9.089664,7.52095 8.838447,7.59675 8.619143,7.74414 8.825228,7.38693 9.021846,7.52296 9.490236,7.11133 9.180838,7.02843 8.899944,7.13783 8.660158,7.32617 8.829057,6.73953 8.872181,6.75414 9.201174,6.25586 8.942157,6.4054 8.681104,6.74059 8.464846,7.07617 8.445356,6.67742 8.383916,6.25706 8.234377,5.99805 Z" /></g>
</svg>
