<?xml version="1.0" encoding="UTF-8" standalone="no"?>
<svg>
<g><path d="M 4.125,-0.00149613 C 2.4016654,0.93836737 0.9735318,2.3585263 0,4.0610039 l 0,0.28125 1.40625,1.21875 c 0.351395,-0.7298846 0.8122523,-1.4023404 1.34375,-2 l 2.9375,3.0625 L 1.25,10.936004 c -0.1087873,0.104989 -0.1001041,0.261723 0,0.375 0.1926262,0.218012 0.3757377,0.432348 0.59375,0.625 0.1132913,0.100107 0.3012607,0.07752 0.40625,-0.03125 L 6.53125,7.4672539 10.8125,11.904754 c 0.105004,0.1087 0.261751,0.131325 0.375,0.03125 0.218069,-0.192683 0.432303,-0.406917 0.625,-0.625 0.100074,-0.113249 0.108703,-0.269997 0,-0.375 l -4.46875,-4.3125001 2.71875,-2.8125 0.6875,0.65625 2.25,0.78125 -0.84375,-2.15625 -0.71875,-0.71875 0.21875,-0.1875 L 11,1.5297539 10.78125,1.7172539 9.15625,0.09225387 7.75,1.4672539 l 1.625,1.625 -2.84375,2.71875 -3.0625,-2.9375 c 0.5960642,-0.5304388 1.2717109,-0.9930468 2,-1.34375 L 4.125,-0.00149613 z"/></g>
</svg>
