<?xml version="1.0" encoding="UTF-8" standalone="no"?>
<svg>
<g><path d="M 9.59375 0.0625 L 7.6875 1.96875 L 9.15625 3.4375 L 7.03125 5.625 L 4.96875 3.625 L 6.625 2 L 4.75 0.125 L 3.125 1.75 L 2.9375 1.5625 L 1.6875 2.8125 L 1.84375 3 L 0.5 4.34375 L 2.375 6.21875 L 3.75 4.84375 L 5.75 6.875 L 1.875 10.78125 L 3.09375 12 L 7 8.125 L 10.84375 12 L 10.90625 12 L 12.15625 10.75 L 8.25 6.84375 L 10.53125 4.59375 L 12.8125 6.90625 L 13.125 3.53125 L 12.34375 2.71875 L 12.5625 2.53125 L 11.3125 1.28125 L 11.0625 1.53125 L 9.59375 0.0625 z"/></g>
</svg>
