<?xml version="1.0" encoding="UTF-8" standalone="no"?>
<svg>
<g><path d="M 7.5507812 7.0234375 C 5.9214709 7.0234375 5.0175781 8.6305509 5.0175781 9.5234375 C 5.0175781 10.635743 5.5940176 11.440851 6.4550781 11.804688 L 6.6738281 11.259766 C 5.9776325 11.18261 5.5175781 10.286285 5.5175781 9.5234375 C 5.5175781 8.2733962 6.6124058 7.5234375 7.5175781 7.5234375 C 8.5175781 7.5234375 9.0175781 8.5234375 9.0175781 9.5234375 C 9.0175781 10.109674 8.8553191 10.689908 8.0722656 10.917969 L 8.3515625 11.964844 C 9.4058241 11.763078 10.017578 10.991412 10.017578 9.7734375 C 10.017578 7.8090868 8.6369882 7.0234375 7.5507812 7.0234375 z M 10.929688 11.5 A 1 0.25 0 0 0 10 11.75 A 1 0.25 0 0 0 11 12 A 1 0.25 0 0 0 12 11.75 A 1 0.25 0 0 0 11 11.5 A 1 0.25 0 0 0 10.929688 11.5 z " /></g>
</svg>
