<?xml version="1.0" encoding="UTF-8" standalone="no"?>
<svg>
<g><path d="M 8.03125,1 6,4.469 l -4,0 2,3.5 -2,3.5 4,0 2.03125,3.5312 2,-3.5312 3.96875,0 -1.96875,-3.5 1.96875,-3.5 -3.96875,0 z m 0,2.4375 0.59375,1.0313 -1.1875,0 z m -3.90625,2.1875 1.21875,0 -0.625,1.0625 z m 2.65625,0 2.5,0 1.3125,2.3438 -1.3125,2.3437 -2.5,0 -1.3125,-2.3437 z m 3.90625,0 1.25,0 -0.625,1.0938 z m 0.625,3.5938 0.625,1.0937 -1.25,0 z m -6.59375,0.031 0.625,1.0625 -1.21875,0 z m 2.71875,2.2188 1.1875,0 -0.59375,1.0312 z" /></g>
</svg>
