<?xml version="1.0" encoding="UTF-8" standalone="no"?>
<svg>
<g><path d="M 8 -0.001953125 L 5.6894531 4 L 1.0703125 4 L 3.3789062 8 L 1.0703125 12 L 5.6894531 12 L 8 16.001953 L 10.310547 12 L 14.929688 12 L 12.621094 8 L 14.929688 4 L 10.310547 4 L 8 -0.001953125 z M 8 2.5019531 L 8.8652344 4 L 7.1347656 4 L 8 2.5019531 z M 3.2382812 5.25 L 4.9667969 5.25 L 4.1035156 6.7480469 L 3.2382812 5.25 z M 6.4140625 5.25 L 9.5859375 5.25 L 11.173828 8 L 9.5859375 10.75 L 6.4140625 10.75 L 4.8261719 8 L 6.4140625 5.25 z M 11.033203 5.25 L 12.761719 5.25 L 11.896484 6.7480469 L 11.033203 5.25 z M 4.1035156 9.2519531 L 4.9667969 10.75 L 3.2382812 10.75 L 4.1035156 9.2519531 z M 11.896484 9.2519531 L 12.761719 10.75 L 11.033203 10.75 L 11.896484 9.2519531 z M 7.1347656 12 L 8.8652344 12 L 8 13.498047 L 7.1347656 12 z" /></g>
</svg>
