<?xml version="1.0" encoding="UTF-8" standalone="no"?>
<svg>
<g><path d="M 8 0 L 5.6894531 4 L 1.0703125 4 L 3.3808594 8 L 1.0703125 12 L 5.6894531 12 L 8 16 L 10.310547 12 L 14.929688 12 L 12.619141 8 L 14.929688 4 L 10.310547 4 L 8 0 z M 8 2.0019531 L 9.1542969 4 L 6.8457031 4 L 8 2.0019531 z M 2.8046875 5 L 5.1132812 5 L 3.9589844 6.9980469 L 2.8046875 5 z M 6.2695312 5 L 9.7304688 5 L 11.462891 8 L 9.7304688 11 L 6.2695312 11 L 4.5371094 8 L 6.2695312 5 z M 10.886719 5 L 13.195312 5 L 12.041016 6.9980469 L 10.886719 5 z M 3.9589844 9.0019531 L 5.1132812 11 L 2.8046875 11 L 3.9589844 9.0019531 z M 12.041016 9.0019531 L 13.195312 11 L 10.886719 11 L 12.041016 9.0019531 z M 6.8457031 12 L 9.1542969 12 L 8 13.998047 L 6.8457031 12 z" /></g>
</svg>
