<?xml version="1.0" encoding="UTF-8" standalone="no"?>
<svg>
<g>
    <path d="M 4.5,6 C 5.57618,8.3676 6.832086,7.96914 7.162109,9.88281 6.485626,8.82976 5.301191,7.72292 4,10 6.03125,9.53125 6.695312,9.74609 6.96875,10.15625 6.650467,10.09255 6.259148,10.22765 5.845703,10.82227 A 0.625,1.125 0 0 0 5.625,10.75 0.625,1.125 0 0 0 5,11.875 0.625,1.125 0 0 0 5.625,13 0.625,1.125 0 0 0 6.25,11.875 0.625,1.125 0 0 0 6.19141,11.39844 c 0.5961,-0.37523 0.95635,-0.59274 1,-0.61524 C 7.20935,10.8563 7.22656,10.9297 7.25,11 L 7,14 H 8 L 7.75,11 c 0,-0.11471 0.0075,-0.21018 0.01172,-0.31445 C 8.610754,8.78644 9.306212,10.76345 10.000001,11 9.515573,8.02737 8.481316,8.98016 7.828126,9.9707 8.192684,7.80917 9.750001,8.76629 9.750001,7 8.547362,7 7.931298,7.92794 7.607423,8.88867 7.329671,7.52184 6.57348,6 4.5,6 Z m 4.75,7.25 A 0.75,0.375 0 0 0 8.5,13.625 0.75,0.375 0 0 0 9.25,14 0.75,0.375 0 0 0 10,13.625 0.75,0.375 0 0 0 9.25,13.25 Z M 11.5,13.5 A 0.5,0.25 0 0 0 11,13.75 0.5,0.25 0 0 0 11.5,14 0.5,0.25 0 0 0 12,13.75 0.5,0.25 0 0 0 11.5,13.5 Z" /></g>
</svg>
