<?xml version="1.0" encoding="UTF-8" standalone="no"?>
<svg>
<g><path d="M 7.5 4.5 C 7.25 4.5 6.3084259 7.2110494 5.5 7.75 C 4.75 8.25 4 8.5 4 9 C 4.5 9 5.3571428 9 6 8.25 L 7 7.0839844 L 7 8.9082031 C 6.5803736 9.4552506 6.0147069 10.147064 5.5 10.5 C 4.6504609 11.082532 3 11.5 3 12 C 3.5 12 5.3571429 12 6 11.25 L 7 10.083984 L 7 10.75 C 7 11.75 7 13.75 6.25 14 L 8.75 14 C 8 13.75 8 11.75 8 10.75 L 8 10.083984 L 9 11.25 C 9.6428571 12 11.5 12 12 12 C 12 11.5 10.240912 11 9.5 10.5 C 8.9308781 10.215439 8.3847835 9.5471544 8 9.0058594 L 8 7.0839844 L 9 8.25 C 9.6428571 9 10.5 9 11 9 C 11 8.5 10.25 8.25 9.5 7.75 C 8.5697395 7.1298263 7.75 4.5 7.5 4.5 z M 10.5 13 A 1 0.5 0 0 0 9.5 13.5 A 1 0.5 0 0 0 10.5 14 A 1 0.5 0 0 0 11.5 13.5 A 1 0.5 0 0 0 10.5 13 z " /></g>
</svg>
