<?xml version="1.0" encoding="UTF-8" standalone="no"?>
<svg>
<g><path d="m 6,4.00001 c 0.404899,1.82205 1.126466,2.2045 1.257812,4.52734 a 1.25,1.375 0 0 0 -0.1875,0.0586 C 6.544077,7.5576 5.665182,6.50001 4.25,6.50001 c 0,1.31328 1.689954,1.07771 2.533203,2.25195 A 1.25,1.375 0 0 0 6.505859,9.04492 C 5.694517,8.39984 4.67102,8.21855 4,10.50001 c 0.758568,0 1.517072,-1.72008 2.384765,-1.24414 A 1.25,1.375 0 0 0 6.25,9.87501 1.25,1.375 0 0 0 7.175781,11.20118 L 7,14 H 8 L 7.824218,11.20118 A 1.25,1.375 0 0 0 8.75,9.87501 1.25,1.375 0 0 0 8.630859,9.29493 C 9.452343,8.84082 10.723257,8.86164 12,9.50001 11.102872,7.25719 9.58917,8.06292 8.509765,9.06642 A 1.25,1.375 0 0 0 8.208984,8.74415 C 8.986547,7.06605 10.536093,6.32836 11.5,5.75001 10.03043,4.11716 8.678832,6.62906 7.910156,8.57814 A 1.25,1.375 0 0 0 7.65039,8.51174 C 7.7183,6.22992 8.120702,4.00002 6,4.00002 Z M 10,13 A 1,0.5 0 0 0 9,13.5 1,0.5 0 0 0 10,14 1,0.5 0 0 0 11,13.5 1,0.5 0 0 0 10,13 Z m 2.25,0.25 A 0.75,0.375 0 0 0 11.5,13.625 0.75,0.375 0 0 0 12.25,14 0.75,0.375 0 0 0 13,13.625 0.75,0.375 0 0 0 12.25,13.25 Z" /></g>
</svg>
