<?xml version="1.0" encoding="UTF-8" standalone="no"?>
<svg>
<g><path d="M 7.5 4 C 6.25 4 5.5 5 6 6.25 C 4.75 5.5 3.25 7.25 4.5 8.5 C 3 8.5 3 9.3953718 3 9.75 C 3 11.411494 3.5 12 4.5 12 C 5.2366793 12 5.7063274 11.459635 6.5 11.173828 L 6.5 10.474609 C 4.8853529 11.091696 3.5 12.658661 3.5 9.75 C 3.5 9.366381 4.25 9 5 9 C 5.5 9 5.75 9 5 8.25 C 4.1161165 7.3661165 4.842137 6.2960685 5.75 6.75 C 6.25 7 6.6355815 6.5423261 6.5 6 C 6.25 5 6.5 4.5 7.5 4.5 C 8.5 4.5 8.75 5 8.5 6 C 8.3644185 6.5423261 8.75 7 9.25 6.75 C 10.241883 6.2540585 10.883883 7.3661165 10 8.25 C 9.25 9 9.5 9 10 9 C 10.75 9 11.5 9.3650254 11.5 9.75 C 11.5 12.658661 10.114647 11.091696 8.5 10.474609 L 8.5 11.173828 C 9.2936726 11.459635 9.7633207 12 10.5 12 C 11.5 12 12 11.464408 12 9.75 C 12 9.495219 12 8.5 10.5 8.5 C 11.75 7.25 10.25 5.5 9 6.25 C 9.5 5 8.75 4 7.5 4 z M 7 10 C 7 12 7 13.75 6.25 14 L 8.75 14 C 8 13.75 8 12 8 10 L 7 10 z M 10.5 13 A 1 0.5 0 0 0 9.5 13.5 A 1 0.5 0 0 0 10.5 14 A 1 0.5 0 0 0 11.5 13.5 A 1 0.5 0 0 0 10.5 13 z " /></g>
</svg>
