<?xml version="1.0" encoding="UTF-8" standalone="no"?>
<svg>
<g><path d="m 5.984375,6.01563 c -1.013273,0 -2.25,0.82814 -2.25,2.5 0,2.27735 1.005184,2.54587 1.976562,2.22656 L 6.9375,11.96875 c -0.144375,0.78479 -0.628125,1.84063 -1.453125,2.04688 h 5 C 9.579281,13.78936 9.085899,12.54137 9,11.75 l 0.77539,-0.77539 c 1.334155,0.37992 2.458985,-0.22044 2.458985,-2.45898 0,-2.75 -3,-2.75 -3.75,-1.75 -0.7841,-0.49006 -1.5,-0.75 -2.5,-0.75 z m -0.25,0.5 c 0.5,0 1.75,0 2.5,0.75 0.25,0.25 1.25,1.5 1.25,1.5 0,-0.75 -0.25,-1 -0.25,-1.25 0,-1 1.272637,-0.97736 1.75,-0.5 0.25,0.25 0.25,0.71984 0.25,1.25 0,2.75 -3.25,0.5 -4,-0.25 -0.25,0.75 -3,3.54138 -3,0.5 0,-0.75 0.5,-2 1.5,-2 z m 1.75,3 c 0.432596,0.4326 0.899832,0.79556 1.367187,1.0625 L 8.072265,11.27149 6.970703,10.03125 C 7.238766,9.8183 7.432907,9.61857 7.484375,9.51563 Z m 4.5,3.5 a 1,0.5 0 0 0 -1,0.5 1,0.5 0 0 0 1,0.5 1,0.5 0 0 0 1,-0.5 1,0.5 0 0 0 -1,-0.5 z m 2.25,0.25 a 0.75,0.375 0 0 0 -0.75,0.375 0.75,0.375 0 0 0 0.75,0.375 0.75,0.375 0 0 0 0.75,-0.375 0.75,0.375 0 0 0 -0.75,-0.375 z" /></g>
</svg>
