<?xml version="1.0" encoding="UTF-8" standalone="no"?>
<svg>
<g><path d="M 5.0644531 2.9277344 C 5.0027258 2.9111946 4.9349722 2.9185 4.875 2.953125 C 4.7550555 3.022375 4.7139531 3.1749774 4.7832031 3.2949219 C 4.7832031 3.2949219 5.5651023 5.2687147 6.3085938 6.8125 C 4.5999983 6.9405419 2.5 7.25 2.5 7.25 C 2.3615 7.25 2.25 7.3615 2.25 7.5 C 2.25 7.6385 2.3615 7.75 2.5 7.75 C 2.5 7.75 4.5999983 8.0594581 6.3085938 8.1875 C 5.5651005 9.7312872 4.7832031 11.705078 4.7832031 11.705078 C 4.7139531 11.825023 4.7550555 11.977625 4.875 12.046875 C 4.9949445 12.116125 5.1475469 12.075023 5.2167969 11.955078 C 5.2167969 11.955078 6.5347875 10.290771 7.5 8.875 C 8.4629031 10.286169 9.7832031 11.955078 9.7832031 11.955078 C 9.8524531 12.075028 10.005056 12.116125 10.125 12.046875 C 10.24495 11.977625 10.286047 11.825023 10.216797 11.705078 C 10.216797 11.705078 9.4302394 9.7271049 8.6894531 8.1875 C 10.39315 8.0592274 12.5 7.75 12.5 7.75 C 12.6385 7.75 12.75 7.6385 12.75 7.5 C 12.75 7.3615 12.6385 7.25 12.5 7.25 C 12.5 7.25 10.39315 6.9407726 8.6894531 6.8125 C 9.4302395 5.2728951 10.216797 3.2949219 10.216797 3.2949219 C 10.286043 3.1749774 10.244945 3.022375 10.125 2.953125 C 10.005055 2.883875 9.8524531 2.9249774 9.7832031 3.0449219 C 9.7832031 3.0449219 8.4629032 4.7138307 7.5 6.125 C 6.5347893 4.709229 5.2167969 3.0449219 5.2167969 3.0449219 C 5.1821719 2.9849497 5.1261804 2.9442742 5.0644531 2.9277344 z M 7.5 6.5 A 1 1 0 0 1 8.5 7.5 A 1 1 0 0 1 7.5 8.5 A 1 1 0 0 1 6.5 7.5 A 1 1 0 0 1 7.5 6.5 z " /></g>
</svg>
