<?xml version="1.0" encoding="UTF-8" standalone="no"?>
<svg>
<g><path d="M 7.5 4 C 7 4 7 4.5 7 4.5 L 7 5.0019531 C 6.5817609 5.6250181 6.0186096 6.4042603 5.5 6.75 C 4.75 7.25 3.5 7.5 3.5 8 C 4 8 5.3571429 8 6 7.25 L 7 6.0839844 L 7 7.9082031 C 6.5803736 8.4552506 6.0147069 9.1470639 5.5 9.5 C 4.6504609 10.082532 3 10.5 3 11 C 3.5 11 5.3571429 11 6 10.25 L 7 9.0839844 L 7 10.75 C 7 11.75 7 13.75 6.25 14 L 8.75 14 C 8 13.75 8 11.75 8 10.75 L 8 9.0839844 L 9 10.25 C 9.6428571 11 11.5 11 12 11 C 12 10.5 10.240912 10 9.5 9.5 C 8.9308781 9.2154391 8.3847835 8.5471544 8 8.0058594 L 8 6.0839844 L 9 7.25 C 9.6428571 8 11 8 11.5 8 C 11.5 7.5 10.25 7.25 9.5 6.75 C 8.9276159 6.3684106 8.3963155 5.6372509 8 5.0332031 L 8 4.5 C 8 4.5 8 4 7.5 4 z M 10.5 13 A 1 0.5 0 0 0 9.5 13.5 A 1 0.5 0 0 0 10.5 14 A 1 0.5 0 0 0 11.5 13.5 A 1 0.5 0 0 0 10.5 13 z " /></g>
</svg>
