<?xml version="1.0" encoding="UTF-8" standalone="no"?>
<svg>
<g><path d="M 7.5 4 C 5.75 4 5 5.25 5 6.5 C 5 7.25 5.25 7.75 6 8 C 4.25 8 3 9 3 9.75 C 3 12.755275 4.925363 12.331566 6.9941406 11.263672 C 6.9809033 12.317474 6.8923332 13.785889 6.25 14 L 8.75 14 C 8.1076668 13.785889 8.0190967 12.317474 8.0058594 11.263672 C 10.074637 12.331566 12 12.755275 12 9.75 C 12 9 10.75 8 9.25 8 C 9.75 7.75 10 7.25 10 6.5 C 10 5.25 9.25 4 7.5 4 z M 7.5 4.5 C 9.5 4.5 10.25 7 8.5 8 C 8.5 8.25 8.515109 8.5 8.75 8.5 C 10.5 8.5 11.5 9.114124 11.5 9.75 C 11.5 13.25 8.75 10.75 7.5 10.25 C 6.25 10.75 3.5 13.25 3.5 9.75 C 3.5 9.0517605 4.5 8.5 6.25 8.5 C 6.4839769 8.5 6.5 8.25 6.5 8 C 4.75 7 5.5 4.5 7.5 4.5 z M 10.5 13 A 1 0.5 0 0 0 9.5 13.5 A 1 0.5 0 0 0 10.5 14 A 1 0.5 0 0 0 11.5 13.5 A 1 0.5 0 0 0 10.5 13 z " /></g>
</svg>
