<?xml version="1.0" encoding="UTF-8" standalone="no"?>
<svg>
<g><path d="M 8.7792969 6.4960938 C 8.1110936 6.5328748 7.46875 6.78125 7 7.25 C 5 6.5 3.25 8 3.25 9.5 C 3.7398085 12.275582 4.8657979 11.850381 5.8691406 11.222656 L 6.9941406 12.466797 C 6.978622 13.117309 6.9017278 13.799136 6.5 14 L 8.5 14 C 8.0600333 13.780017 8.0102488 12.985246 8.0039062 12.285156 L 8.4746094 11.158203 C 10.256508 12.433294 12 11.230829 12 9.25 C 11.845451 7.3603372 10.249344 6.4151754 8.7792969 6.4960938 z M 8.9628906 6.9804688 C 9.3858874 7.0046541 9.7893581 7.1095721 10 7.25 C 10.46513 7.5600867 10.75 8.4698358 10.75 9 C 10.75 11.5 8.25 9.75 7.25 9.75 C 6.5 9.75 4.3948763 12.974381 3.75 9.75 C 3.5 8.5 5.25 6.75 7 7.75 C 7.5 8.5 7.75 8.25 8.5 9.25 C 8.5 8 7.5 8 7.5 7.75 C 7.5 7.125 8.2578961 6.9401599 8.9628906 6.9804688 z M 7.25 10.5 L 7.75 10.5 C 7.8418162 10.603293 7.9347156 10.690515 8.0273438 10.779297 L 7.46875 11.787109 L 6.3359375 10.925781 C 6.6878671 10.695657 7.0065564 10.5 7.25 10.5 z M 10 13 A 1 0.5 0 0 0 9 13.5 A 1 0.5 0 0 0 10 14 A 1 0.5 0 0 0 11 13.5 A 1 0.5 0 0 0 10 13 z M 12.197266 13.25 A 0.75 0.375 0 0 0 11.5 13.625 A 0.75 0.375 0 0 0 12.25 14 A 0.75 0.375 0 0 0 13 13.625 A 0.75 0.375 0 0 0 12.25 13.25 A 0.75 0.375 0 0 0 12.197266 13.25 z " /></g>
</svg>
