<?xml version="1.0" encoding="UTF-8" standalone="no"?>
<svg>
<g><path d="M 5.75,6 C 4.736727,6 3.5,6.828137 3.5,8.5 c 0,2.150983 0.896476,2.505479 1.814453,2.269531 l 1.150391,0.986328 C 6.378726,12.547261 5.904824,13.773794 5,14 l 5.5,0 C 9.51822,13.754555 9.0257,12.311343 9.007813,11.548828 l 0.632812,-0.5625 C 10.930953,11.308828 12,10.682938 12,8.5 12,5.75 9,5.75 8.25,6.75 7.4659,6.259938 6.75,6 5.75,6 Z M 5.5,6.5 C 6,6.5 7.25,6.5 8,7.25 8.25,7.5 9.25,8.75 9.25,8.75 9.25,8 9,7.75 9,7.5 9,6.5 10.272637,6.522637 10.75,7 11,7.25 11,7.719836 11,8.25 11,11 7.75,8.75 7,8 6.75,8.75 4,11.541381 4,8.5 4,7.75 4.5,6.5 5.5,6.5 Z m 1.75,3 c 0.436441,0.436441 0.909359,0.78318 1.380859,1.050781 L 7.978516,11.130859 6.876953,9.892578 C 7.06213,9.730932 7.209119,9.581762 7.25,9.5 Z" /></g>
</svg>
