<?xml version="1.0" encoding="UTF-8" standalone="no"?>
<svg>
<g><path d="M 7.5 5 C 5.25 5 4 7.25 4 8.5 C 4 10.464899 5.2639428 11.743344 6.9941406 11.955078 C 6.9758651 12.844498 6.8920468 13.803977 6.5 14 L 8.5 14 C 8.1121423 13.806071 8.0273231 12.863831 8.0078125 11.982422 C 9.853385 11.896462 11.25 10.676823 11.25 8.75 C 11.25 6 9 5 7.5 5 z M 7.5 5.5 C 8.9911689 5.5 10 7 10 8.5 C 10 9.75 8.5 10.75 7.25 10.75 C 5.7588311 10.75 4.5 10.212071 4.5 8.5 C 4.5 6.75 6.25 5.5 7.5 5.5 z M 10 13 A 1 0.5 0 0 0 9 13.5 A 1 0.5 0 0 0 10 14 A 1 0.5 0 0 0 11 13.5 A 1 0.5 0 0 0 10 13 z M 12.197266 13.25 A 0.75 0.375 0 0 0 11.5 13.625 A 0.75 0.375 0 0 0 12.25 14 A 0.75 0.375 0 0 0 13 13.625 A 0.75 0.375 0 0 0 12.25 13.25 A 0.75 0.375 0 0 0 12.197266 13.25 z " /></g>
</svg>
