<?xml version="1.0" encoding="UTF-8" standalone="no"?>
<svg>
<g><path d="M 5.6894531 4.0097656 C 5.6277258 3.9932259 5.5599722 4.0005312 5.5 4.0351562 C 5.3800555 4.1044063 5.3389531 4.2570086 5.4082031 4.3769531 C 5.4082031 4.3769531 5.860887 5.7066255 6.3476562 6.8339844 C 5.1259284 6.9759576 3.75 7.25 3.75 7.25 C 3.6115 7.25 3.5 7.3615 3.5 7.5 C 3.5 7.6385 3.6115 7.75 3.75 7.75 C 3.75 7.75 5.1263055 8.023849 6.3457031 8.1660156 C 5.8581912 9.2945341 5.4082031 10.623047 5.4082031 10.623047 C 5.3389527 10.742992 5.3800555 10.895594 5.5 10.964844 C 5.6199445 11.034091 5.7725469 10.992992 5.8417969 10.873047 C 5.8417969 10.873047 6.7670363 9.8173286 7.5 8.8320312 C 8.2339585 9.8193431 9.1582031 10.873047 9.1582031 10.873047 C 9.2274531 10.992997 9.3800559 11.034094 9.5 10.964844 C 9.61995 10.895594 9.6610469 10.742992 9.5917969 10.623047 C 9.5917969 10.623047 9.1412064 9.2936142 8.6542969 8.1660156 C 9.8758299 8.0239789 11.25 7.75 11.25 7.75 C 11.3885 7.75 11.5 7.6385 11.5 7.5 C 11.5 7.3615 11.3885 7.25 11.25 7.25 C 11.25 7.25 9.8724995 6.9760841 8.6523438 6.8339844 C 9.1403716 5.7047402 9.5917969 4.3769531 9.5917969 4.3769531 C 9.6610429 4.2570086 9.619944 4.1044063 9.5 4.0351562 C 9.3800555 3.965906 9.2274531 4.0070086 9.1582031 4.1269531 C 9.1582031 4.1269531 8.2331007 5.1824284 7.5 6.1679688 C 6.7664278 5.1815057 5.8417969 4.1269531 5.8417969 4.1269531 C 5.8071719 4.0669811 5.7511804 4.0263054 5.6894531 4.0097656 z " /></g>
</svg>
