<?xml version="1.0" encoding="UTF-8" standalone="no"?>
<svg>
<g><path d="M 8 7 C 6.25 7 5 8.75 5 9.75 C 5 11.295049 6.1703994 12.25326 7.4765625 12.457031 C 7.4216745 13.511515 7.1872325 13.781384 6.75 14 L 9.25 14 C 8.8115389 13.780769 8.1818138 13.560211 8.0332031 12.498047 C 9.5180846 12.483099 10.75 11.488682 10.75 10 C 10.75 8 9 7 8 7 z M 7.9882812 7.4121094 C 8.9882371 7.4214978 9.5 8 9.5 9.5 C 9.5 10 8.5 11.5 7.75 11.5 C 6.75 11.5 5.3789062 11 5.3789062 9.75 C 5.3789062 8.5 6.8115046 7.4010608 7.9882812 7.4121094 z M 10.179688 13.25 A 1 0.375 0 0 0 9.25 13.625 A 1 0.375 0 0 0 10.25 14 A 1 0.375 0 0 0 11.25 13.625 A 1 0.375 0 0 0 10.25 13.25 A 1 0.375 0 0 0 10.179688 13.25 z M 12.197266 13.5 A 0.75 0.25 0 0 0 11.5 13.75 A 0.75 0.25 0 0 0 12.25 14 A 0.75 0.25 0 0 0 13 13.75 A 0.75 0.25 0 0 0 12.25 13.5 A 0.75 0.25 0 0 0 12.197266 13.5 z " /></g>
</svg>
