<?xml version="1.0" encoding="UTF-8" standalone="no"?>
<svg>
<g><path d="M 3.4101562,7.0039066 C 3.3579782,6.9899256 3.3006946,6.9961266 3.25,7.0253906 L 2.75,7.3144531 C 2.6486109,7.3729901 2.613338,7.5021265 2.671875,7.6035156 L 4.6328125,11 0.7109375,11 C 0.5938637,11 0.5,11.09386 0.5,11.210938 l 0,0.578125 C 0.5,11.906136 0.5938637,12 0.7109375,12 l 3.921875,0 -1.9609375,3.396484 C 2.613338,15.497873 2.648611,15.62701 2.75,15.685547 l 0.5,0.289062 c 0.1013889,0.05854 0.2305256,0.02326 0.2890625,-0.07813 L 5.5,12.5 7.4609375,15.896484 C 7.5194745,15.997873 7.648611,16.033146 7.75,15.974614 l 0.5,-0.289062 c 0.101389,-0.05854 0.136662,-0.187674 0.078125,-0.289063 l -1.9609375,-3.396484 3.9218755,0 c 0.117074,0 0.210938,-0.09386 0.210938,-0.210937 l 0,-0.578125 c 0,-0.117074 -0.09386,-0.210938 -0.210938,-0.210938 l -3.9218755,0 L 8.328125,7.603521 C 8.386662,7.5021271 8.351389,7.3729904 8.25,7.3144535 L 7.75,7.025391 C 7.648611,6.9668541 7.519474,7.0021271 7.4609375,7.103516 L 5.5,10.5 3.5390625,7.103516 C 3.509794,7.0528215 3.4623343,7.0178878 3.4101562,7.0039066 Z" /></g>
</svg>
