<?xml version="1.0" encoding="UTF-8" standalone="no"?>
<svg>
<g><path d="M 2.6054688,9 C 2.5700778,9.010647 2.5337348,9.01568 2.5,9.035156 2.260111,9.1736563 2.1779064,9.478861 2.3164062,9.71875 L 3.6328125,12 1,12 C 0.723,12 0.5,12.223 0.5,12.5 0.5,12.777 0.723,13 1,13 l 2.6328125,0 -1.3164063,2.28125 c -0.1385,0.239889 -0.056295,0.545094 0.1835938,0.683594 0.032763,0.01891 0.068908,0.02431 0.1035156,0.03516 l 0.3066406,0 c 0.110173,-0.03793 0.2104262,-0.109611 0.2734376,-0.21875 L 4.5,13.501953 5.8164062,15.78125 C 5.8794172,15.890389 5.9796708,15.962072 6.0898438,16 l 0.3066406,0 C 6.4310924,15.98916 6.4672374,15.98376 6.5,15.96484 6.739889,15.82634 6.8220938,15.521135 6.6835938,15.281246 L 5.3671875,13 8,13 C 8.277,13 8.5,12.777 8.5,12.5 8.5,12.223 8.277,12 8,12 L 5.3671875,12 6.6835938,9.71875 C 6.8220937,9.478861 6.739889,9.1736563 6.5,9.0351562 6.4672375,9.0162408 6.4310924,9.0108427 6.3964844,9 L 6.0898438,9 C 5.9796708,9.0379278 5.8794177,9.1096111 5.8164062,9.21875 L 4.5,11.498047 3.1835938,9.21875 C 3.1100156,9.0913089 2.9847438,9.0286905 2.8515625,9 L 2.6054688,9 Z" /></g>
</svg>
