<?xml version="1.0" encoding="UTF-8" standalone="no"?>
<svg>
<g><path d="M 6.25 5 C 6.25 5 6.25 11 5 14 L 5.421875 14 C 6.5009936 10.953571 6.6328125 6.25 6.6328125 6.25 C 6.6328125 6.25 6.9929327 8.3040582 7.6855469 14 L 10 14 C 7.5 11.5 6.75 5 6.75 5 L 6.25 5 z M 11.179688 13.25 A 1 0.375 0 0 0 10.25 13.625 A 1 0.375 0 0 0 11.25 14 A 1 0.375 0 0 0 12.25 13.625 A 1 0.375 0 0 0 11.25 13.25 A 1 0.375 0 0 0 11.179688 13.25 z M 13.197266 13.5 A 0.75 0.25 0 0 0 12.5 13.75 A 0.75 0.25 0 0 0 13.25 14 A 0.75 0.25 0 0 0 14 13.75 A 0.75 0.25 0 0 0 13.25 13.5 A 0.75 0.25 0 0 0 13.197266 13.5 z " /></g>
</svg>
