<?xml version="1.0" encoding="UTF-8" standalone="no"?>
<svg>
<g><path d="M 7.5 4 C 6.75 4 5.25 6.5 5.75 7.5 C 4.25 7.75 4 8.8956164 4 9.5 C 4 11.323852 5.2629311 11.895031 6.9921875 11.982422 C 6.9726769 12.863831 6.8878577 13.806071 6.5 14 L 8.5 14 C 8.1136374 13.806819 8.0277696 12.870684 8.0078125 11.992188 C 10.298314 11.963153 11.25 11.431626 11.25 9.25 C 11.25 8.5580948 11 7.5 9.5 7.5 C 9.75 6.25 8.4069384 4 7.5 4 z M 7.5 4.5 C 8.2683478 4.5 9 7.25 8.5 8.25 C 9 8 9.75 8.5 9.75 9 C 9.75 10.5 8.5 10.75 7.25 10.75 C 5.7588311 10.75 4.5 11 4.5 9.5 C 4.5 8.6766243 5.25 8 6.25 8 C 5.75 6.25 7 4.5 7.5 4.5 z M 10 13 A 1 0.5 0 0 0 9 13.5 A 1 0.5 0 0 0 10 14 A 1 0.5 0 0 0 11 13.5 A 1 0.5 0 0 0 10 13 z M 12.197266 13.25 A 0.75 0.375 0 0 0 11.5 13.625 A 0.75 0.375 0 0 0 12.25 14 A 0.75 0.375 0 0 0 13 13.625 A 0.75 0.375 0 0 0 12.25 13.25 A 0.75 0.375 0 0 0 12.197266 13.25 z " /></g>
</svg>
