<?xml version="1.0" encoding="UTF-8" standalone="no"?>
<svg>
<g><path d="M 7.5 4 C 6.25 4 5.5 6.25 5.5 8 C 5.5 9.8937753 5.8890757 11.545634 7.0019531 11.917969 C 7.0150416 13.229579 6.9283031 14 5 14 L 8.5 14 C 8.1106472 13.805324 8.0268796 12.85695 8.0078125 11.972656 C 9.2906267 11.84821 9.75 10.555872 9.75 7 C 9.75 4.75 8 4 7.5 4 z M 7.5 4.5 C 8.25 4.5 8.890625 5.75 8.890625 7.25 C 8.890625 8.25 7.75 11 7 11 C 6.5 11 6 10.25 6 8 C 6 6 6.75 4.5 7.5 4.5 z M 10 13 C 9.4477153 13 8.75 13.223858 8.75 13.5 C 8.75 13.776142 9.4477153 14 10 14 C 10.552285 14 11 13.776142 11 13.5 C 11 13.223858 10.552285 13 10 13 z M 12.197266 13.25 A 0.75 0.375 0 0 0 11.5 13.625 A 0.75 0.375 0 0 0 12.25 14 A 0.75 0.375 0 0 0 13 13.625 A 0.75 0.375 0 0 0 12.25 13.25 A 0.75 0.375 0 0 0 12.197266 13.25 z " /></g>
</svg>
