<?xml version="1.0" encoding="UTF-8" standalone="no"?>
<svg>
<g><path d="M 10.499999,6 C 8.426519,6 7.670328,7.521842 7.392577,8.888672 7.068702,7.927942 6.452638,7 5.249999,7 c 0,1.766294 1.557317,0.809172 1.921875,2.970703 C 6.518684,8.980157 5.484427,8.027371 4.999999,11 5.693788,10.763481 6.389246,8.786438 7.23828,10.685547 7.24248,10.789815 7.25,10.885289 7.25,11 L 7,14 8,14 7.75,11 c 0.02344,-0.07031 0.04065,-0.143738 0.05859,-0.216797 0.04365,0.02253 0.4039,0.240004 1,0.615235 A 0.625,1.125 0 0 0 8.749999,11.875 a 0.625,1.125 0 0 0 0.625,1.125 0.625,1.125 0 0 0 0.625,-1.125 0.625,1.125 0 0 0 -0.625,-1.125 0.625,1.125 0 0 0 -0.220703,0.07227 C 8.740851,10.22762 8.349532,10.092593 8.031249,10.15625 8.304687,9.746094 8.968749,9.53125 10.999999,10 9.698808,7.722915 8.514373,8.829761 7.83789,9.882812 8.167913,7.969171 9.423818,8.367599 10.499999,6 Z" /></g>
</svg>
