<?xml version="1.0" encoding="UTF-8" standalone="no"?>
<svg>
<g><path d="M 7.4492188 4.0019531 C 5.1992188 4.0019531 3.9492188 6.2519531 3.9492188 7.5019531 C 3.9492188 9.1657544 4.8566744 10.339345 6.1835938 10.791016 C 5.6984537 11.81796 5.0353707 12.964629 4 14 L 5.25 14 C 5.8241391 13.043102 6.2481673 12.221567 6.5292969 10.884766 C 6.8227932 10.953554 7.1261137 11.001953 7.4492188 11.001953 C 7.4770663 11.001953 7.5271957 11.001806 7.5761719 11.001953 C 7.4282935 12.001345 7.4162614 13.000608 6.75 14 L 8 14 C 8.375 13.0625 8.1875 12.263672 8.0703125 10.974609 C 8.2938898 10.958327 8.5091081 10.926442 8.7167969 10.876953 C 8.9362316 12.020542 9.576996 13.307984 9.75 14 L 11.25 14 C 10.475565 12.838348 9.8523957 11.963681 9.2617188 10.705078 C 10.41973 10.228098 11.199219 9.1880219 11.199219 7.7519531 C 11.199219 5.0019531 8.9492186 4.0019531 7.4492188 4.0019531 z M 7.4492188 4.5019531 C 8.9403877 4.5019531 9.9492188 6.0019531 9.9492188 7.5019531 C 9.9492188 8.7519531 8.4492188 9.7519531 7.1992188 9.7519531 C 5.7080499 9.7519531 4.4492188 9.2140241 4.4492188 7.5019531 C 4.4492188 5.7519531 6.1992188 4.5019531 7.4492188 4.5019531 z M 12.375 13 A 0.875 0.5 0 0 0 11.5 13.5 A 0.875 0.5 0 0 0 12.375 14 A 0.875 0.5 0 0 0 13.25 13.5 A 0.875 0.5 0 0 0 12.375 13 z M 14.464844 13.25 A 0.5 0.375 0 0 0 14 13.625 A 0.5 0.375 0 0 0 14.5 14 A 0.5 0.375 0 0 0 15 13.625 A 0.5 0.375 0 0 0 14.5 13.25 A 0.5 0.375 0 0 0 14.464844 13.25 z " /></g>
</svg>
