<?xml version="1.0" encoding="UTF-8" standalone="no"?>
<svg>
<g><path d="M 6.25 2 C 6.25 2 5.75 10 4 14 L 4.6894531 14 C 6.2554357 10.055847 6.5 5 6.5 5 C 6.5 5 6.9682173 8.8111497 7.4492188 14 L 10 14 C 7.5 9 6.75 2 6.75 2 L 6.25 2 z M 11.5 13 A 1 0.5 0 0 0 10.5 13.5 A 1 0.5 0 0 0 11.5 14 A 1 0.5 0 0 0 12.5 13.5 A 1 0.5 0 0 0 11.5 13 z M 13.464844 13.25 A 0.5 0.375 0 0 0 13 13.625 A 0.5 0.375 0 0 0 13.5 14 A 0.5 0.375 0 0 0 14 13.625 A 0.5 0.375 0 0 0 13.5 13.25 A 0.5 0.375 0 0 0 13.464844 13.25 z " /></g>
</svg>
