<?xml version="1.0" encoding="UTF-8" standalone="no"?>
<svg>
<g><path d="m 6,4 c 0.4048989,1.822045 1.1264667,2.204494 1.2578125,4.527344 a 1.25,1.375 0 0 0 -0.1875,0.05859 C 6.5440784,7.557593 5.6651819,6.5 4.25,6.5 c 0,1.313277 1.6899541,1.077717 2.5332031,2.251953 A 1.25,1.375 0 0 0 6.5058594,9.044922 C 5.6945172,8.399837 4.67102,8.218532 4,10.5 4.7585676,10.5 5.5170733,8.77992 6.3847656,9.255859 A 1.25,1.375 0 0 0 6.25,9.875 1.25,1.375 0 0 0 7.1757812,11.201172 L 7,14 8,14 7.8242188,11.201172 A 1.25,1.375 0 0 0 8.75,9.875 1.25,1.375 0 0 0 8.6308594,9.294922 C 9.4523434,8.840813 10.723257,8.861628 12,9.5 11.102872,7.25718 9.5891711,8.062911 8.5097656,9.066406 A 1.25,1.375 0 0 0 8.2089844,8.744141 C 8.9865465,7.066037 10.536093,6.328344 11.5,5.75 10.03043,4.117145 8.6788316,6.629043 7.9101562,8.578125 A 1.25,1.375 0 0 0 7.6503906,8.511719 C 7.7182966,6.229894 8.1207024,4 6,4 Z" /></g>
</svg>
