<?xml version="1.0" encoding="UTF-8" standalone="no"?>
<svg>
<g><path d="M 7.5996094 4 C 5.6113844 4 4 5.8460887 4 8 C 4 9.9649483 5.2638759 11.656709 6.9941406 11.941406 C 6.9764731 12.834745 6.8941399 13.80293 6.5 14 L 8.5 14 C 8.1109463 13.805473 8.0269681 12.858329 8.0078125 11.974609 C 9.8533154 11.854613 11.25 10.176774 11.25 8.25 C 11.25 6.0960887 9.5878342 4 7.5996094 4 z M 7.5 4.5 C 8.9911689 4.5 10 6.5 10 8 C 10 9.25 8.5 10.75 7.25 10.75 C 5.7588311 10.75 4.5 9.7120711 4.5 8 C 4.5 5.9531067 6.0088311 4.5 7.5 4.5 z M 10 13 A 1 0.5 0 0 0 9 13.5 A 1 0.5 0 0 0 10 14 A 1 0.5 0 0 0 11 13.5 A 1 0.5 0 0 0 10 13 z M 12.197266 13.25 A 0.75 0.375 0 0 0 11.5 13.625 A 0.75 0.375 0 0 0 12.25 14 A 0.75 0.375 0 0 0 13 13.625 A 0.75 0.375 0 0 0 12.25 13.25 A 0.75 0.375 0 0 0 12.197266 13.25 z " /></g>
</svg>
