<?xml version="1.0" encoding="UTF-8" standalone="no"?>
<svg>
<g><path d="M 8.865234,6.16992 C 8.233716,6.15657 7.5625,6.4375 7,7 5,6.25 4.25,7.5 4.25,9 c 0.277297,1.66378 1.170167,1.63616 1.910156,1.28125 L 7,11.75 C 6.9955,12.542 6.95,13.775 6.5,14 h 2 C 8.133375,13.81669 8.035853,12.96164 8.009766,12.22266 L 8.724609,10.31641 C 9.94718,10.76369 11,10.63376 11,8.75 10.859501,7.03213 9.917766,6.19218 8.865234,6.16992 Z m -0.416015,0.375 C 8.74038,6.53792 9.039358,6.60962 9.25,6.75 9.71513,7.06009 9.75,7.96984 9.75,8.5 9.75,11 8,9.25 7,9.25 c -0.75,0 -1.75,2 -2.25,0 C 4.440828,8.01331 5.25,6.5 7,7.5 7.5,8.25 7.25,8.25 8,9 8,7.75 7.5,7.5 7.5,7.25 7.5,6.78125 7.963951,6.55588 8.449219,6.54492 Z M 7.25,9.5 8,10 c 0.132859,0.0664 0.264667,0.12835 0.396484,0.18555 L 7.666016,11.5 H 7.572266 L 6.542969,10.06055 C 6.951361,9.79456 7.25,9.5 7.25,9.5 Z M 10,13 A 1,0.5 0 0 0 9,13.5 1,0.5 0 0 0 10,14 1,0.5 0 0 0 11,13.5 1,0.5 0 0 0 10,13 Z m 2.25,0.25 A 0.75,0.375 0 0 0 11.5,13.625 0.75,0.375 0 0 0 12.25,14 0.75,0.375 0 0 0 13,13.625 0.75,0.375 0 0 0 12.25,13.25 Z" /></g>
</svg>
