<?xml version="1.0" encoding="UTF-8" standalone="no"?>
<svg>
<g><path d="M 7.5 2.5 C 7.25 2.5 6.25 4.5 5.5 5.25 C 5 5.75 4 6.5 4 7 C 4.5 7 5.301514 6.698486 6 6 L 7 5 L 7 7.8105469 C 5.5779211 9.4121049 3.8954156 11.104584 3 12 C 3.5 12 3.9545455 12 4.5 11.5 L 7 9.2089844 L 7 10.75 C 7 11.75 7 13.75 6.25 14 L 8.75 14 C 8 13.75 8 11.75 8 10.75 L 8 9.2089844 L 10.5 11.5 C 11.045455 12 11.5 12 12 12 C 11.104584 11.104584 9.4220789 9.4121049 8 7.8105469 L 8 5 L 9 6 C 9.698486 6.698486 10.5 7 11 7 C 11 6.5 10 5.75 9.5 5.25 C 8.7094306 4.4594306 7.75 2.5 7.5 2.5 z M 10.5 13 A 1 0.5 0 0 0 9.5 13.5 A 1 0.5 0 0 0 10.5 14 A 1 0.5 0 0 0 11.5 13.5 A 1 0.5 0 0 0 10.5 13 z " /></g>
</svg>
