<?xml version="1.0" encoding="UTF-8" standalone="no"?>
<svg>
<g><path d="M 7.5 3 C 7.313661 3 7.25 3.5 7.25 3.5 C 7.25 3.5 6.75 9.25 5 12 L 5.3730469 12 C 7 9.75 7.5 5.25 7.5 4 C 7.75 5.25 7.25 6.5 9.25 11.5 C 9.015625 11.734375 8.6518555 11.889221 8.234375 12 L 11.25 12 C 9 9.25 7.75 3.5 7.75 3.5 C 7.75 3.5 7.686339 3 7.5 3 z M 7 10.5 C 7 11.5 7 13.75 6.25 14 L 8.75 14 C 8 13.75 8 11.5 8 10.5 L 7 10.5 z M 10.179688 13.25 A 1 0.375 0 0 0 9.25 13.625 A 1 0.375 0 0 0 10.25 14 A 1 0.375 0 0 0 11.25 13.625 A 1 0.375 0 0 0 10.25 13.25 A 1 0.375 0 0 0 10.179688 13.25 z M 12.197266 13.5 A 0.75 0.25 0 0 0 11.5 13.75 A 0.75 0.25 0 0 0 12.25 14 A 0.75 0.25 0 0 0 13 13.75 A 0.75 0.25 0 0 0 12.25 13.5 A 0.75 0.25 0 0 0 12.197266 13.5 z " /></g>
</svg>
