<?xml version="1.0" encoding="UTF-8" standalone="no"?>
<svg>
<g><path d="M 8.75,9.75 C 8.75,10 8.5,11 8.25,12.25 8,13.5 8,14 8.25,15.5 8,15.5 7.3838,15.33 7,15.25 c 0.5,-0.5 -0.25,-1.5 0.75,-4 0.25,-0.75 0.25,-1 1,-1.5 z m -8.5,0.75 c 0,0.25 0.25,0.5 0.5,1.25 C 1,13.75 0.97479,13.74 1,15.5 1.5,15.25 1.8662,15.33 2.25,15.25 2.25,14 2.25,12 1,11 0.75,10.75 0.75,10.75 0.25,10.5 z M 6.5,8.75 C 6.25,8.75 6,9 5.75,9.5 5,11.5 5.25,13.75 5,15 c 0.5,0 1,0.25 1.5,0.25 -0.5,-1 -0.25,-1.5 -0.25,-4.75 0,-1 0,-0.75 0.25,-1.75 z m -4,-1 c 0,0.75 0,1 0.25,2.25 0,1 0.75,3.75 0,5.25 0.5,0 1,-0.25 1.5,-0.25 C 4.5,12.5 4,11 3.25,9 3,8.25 3,8 2.5,7.75 z"/></g>
</svg>
