<?xml version="1.0" encoding="UTF-8" standalone="no"?>
<svg>
<g><path d="M 0.25,9.75 C 0.25,10 0.5,11 0.75,12.25 1,13.5 1,14 0.75,15.5 1,15.5 1.6162,15.33 2,15.25 1.5,14.75 2.25,13.75 1.25,11.25 1,10.5 1,10.25 0.25,9.75 z m 8.5,0.75 C 8.75,10.75 8.5,11 8.25,11.75 8,13.75 8.02521,13.74 8,15.5 7.5,15.25 7.1338,15.33 6.75,15.25 6.75,14 6.75,12 8,11 8.25,10.75 8.25,10.75 8.75,10.5 z M 2.5,8.75 C 2.75,8.75 3,9 3.25,9.5 4,11.5 3.75,13.75 4,15 c -0.5,0 -1,0.25 -1.5,0.25 0.5,-1 0.25,-1.5 0.25,-4.75 0,-1 0,-0.75 -0.25,-1.75 z m 4,-1 c 0,0.75 0,1 -0.25,2.25 0,1 -0.75,3.75 0,5.25 C 5.75,15.25 5.25,15 4.75,15 4.5,12.5 5,11 5.75,9 6,8.25 6,8 6.5,7.75 z"/></g>
</svg>
