<?xml version="1.0" encoding="UTF-8" standalone="no"?>
<svg>
<g transform="translate(0.000000,48.000000) scale(0.100000,-0.100000)"><path d="M230 430 c0 -21 -33 -29 -45 -10 -3 6 -18 10 -32 10 -21 0 -23 -2 -13 -15 13 -16 11 -18 -43 -30 -16 -3 -40 -17 -53 -30 -21 -21 -22 -27 -12 -50 13 -30 28 -33 28 -6 0 31 47 61 96 61 44 0 67 -16 43 -31 -8 -4 -24 -6 -37 -2 -25 6 -92 -39 -92 -63 0 -22 25 -17 59 12 17 14 36 24 43 23 42 -5 70 2 75 21 6 24 26 26 44 4 11 -14 11 -18 -4 -28 -12 -9 -13 -16 -5 -24 16 -16 2 -41 -31 -55 -22 -9 -27 -16 -21 -27 7 -12 14 -11 44 5 39 21 45 30 56 89 7 35 5 42 -16 59 -31 24 -31 47 0 47 29 0 42 -15 50 -60 10 -54 8 -72 -14 -115 -11 -21 -20 -45 -20 -52 0 -8 -16 -23 -35 -34 -42 -25 -45 -42 -8 -37 18 2 35 14 48 35 24 38 49 39 53 1 3 -22 -4 -31 -42 -53 -47 -28 -59 -45 -29 -45 9 0 36 21 61 46 38 41 43 51 39 79 -4 25 1 41 19 66 13 18 24 46 24 61 0 28 -13 37 -25 18 -12 -20 -25 -10 -25 19 0 16 -10 42 -23 58 -13 15 -26 36 -30 45 -6 18 -11 18 -69 -4 -22 -8 -28 -17 -28 -39 0 -16 -4 -29 -9 -29 -14 0 -20 25 -10 41 12 19 11 59 -1 59 -5 0 -10 -9 -10 -20z m190 -201 c0 -12 -7 -19 -20 -19 -22 0 -26 20 -8 38 15 15 28 6 28 -19z"/><path d="M130 251 c0 -14 5 -18 20 -14 24 6 26 19 4 27 -23 9 -24 8 -24 -13z"/><path d="M142 178 c3 -7 19 -22 36 -33 38 -24 40 -35 7 -35 -16 0 -32 11 -47 30 -25 34 -38 38 -38 13 1 -41 66 -87 108 -77 38 9 43 14 35 27 -5 7 -8 21 -8 31 0 11 -13 27 -30 37 -36 21 -68 24 -63 7z"/></g>
</svg>
