<?xml version="1.0" encoding="UTF-8" standalone="no"?>
<svg>
<g transform="translate(0.000000,48.000000) scale(0.100000,-0.100000)"><path d="M275 432 c6 -6 21 -12 35 -14 17 -2 26 -10 28 -25 4 -28 -19 -30 -62 -8 -15 8 -35 15 -43 15 -23 0 -9 -24 18 -30 14 -3 30 -19 39 -38 13 -26 57 -62 76 -62 10 0 3 23 -11 36 -24 24 -19 54 9 54 27 0 36 -16 36 -66 0 -35 12 -42 40 -24 12 8 13 13 3 30 -7 11 -13 29 -13 40 0 26 -65 90 -93 90 -12 0 -33 3 -47 6 -17 5 -22 3 -15 -4z"/><path d="M50 245 c0 -27 27 -65 47 -65 18 0 16 25 -2 40 -8 7 -15 21 -15 31 0 11 -7 19 -15 19 -9 0 -15 -9 -15 -25z"/><path d="M90 262 c0 -5 8 -16 19 -26 16 -14 20 -15 30 -2 7 8 10 20 6 26 -7 12 -55 14 -55 2z"/><path d="M215 251 c-2 -5 5 -21 16 -36 29 -36 12 -56 -26 -31 -15 10 -29 15 -32 12 -8 -8 30 -54 55 -65 12 -6 22 -15 22 -21 0 -17 -40 -11 -62 10 -45 42 -53 12 -9 -36 38 -42 53 -46 96 -23 24 13 47 18 64 14 38 -8 91 40 91 83 0 46 -14 46 -44 2 -16 -24 -34 -40 -46 -40 -26 0 -25 15 1 34 13 9 19 21 16 30 -8 20 -21 20 -37 1 -7 -8 -16 -15 -21 -15 -5 0 -9 7 -9 15 0 8 5 15 10 15 22 0 8 28 -17 38 -52 19 -62 21 -68 13z m89 -132 c-7 -11 -34 -12 -34 -1 0 14 11 21 26 15 8 -3 11 -9 8 -14z"/></g>
</svg>
