<?xml version="1.0" encoding="UTF-8" standalone="no"?>
<svg>
<g transform="translate(0.000000,48.000000) scale(0.100000,-0.100000)"><path d="M223 397 c-17 -12 -47 -38 -67 -58 -33 -32 -35 -37 -21 -49 13 -11 18 -10 33 4 24 21 58 21 66 0 4 -11 13 -14 29 -10 33 8 51 -7 43 -38 -7 -30 13 -36 34 -11 13 16 40 20 40 6 0 -5 -7 -27 -14 -49 -9 -24 -11 -44 -6 -47 11 -7 40 46 40 73 0 10 5 23 12 30 27 27 -48 69 -144 79 -48 5 -58 9 -58 25 0 27 43 44 75 30 14 -7 33 -12 42 -12 9 0 25 -7 35 -17 10 -9 21 -14 24 -11 9 9 -23 65 -41 72 -35 13 -92 6 -122 -17z"/><path d="M62 269 c-24 -16 -32 -28 -32 -50 0 -33 16 -39 25 -9 4 11 15 20 26 20 16 0 19 -6 17 -27 -4 -38 28 -44 42 -8 9 23 14 26 38 20 15 -3 33 -12 40 -19 21 -20 -2 -56 -34 -56 -37 0 -125 -31 -131 -46 -10 -26 7 -33 39 -17 44 23 84 20 112 -6 29 -27 34 -20 42 56 5 45 2 67 -11 92 -16 31 -19 33 -58 27 -44 -6 -58 -1 -73 26 -9 16 -12 16 -42 -3z"/></g>
</svg>
