<?xml version="1.0" encoding="UTF-8" standalone="no"?>
<svg>
<g transform="translate(0.000000,48.000000) scale(0.100000,-0.100000)"><path d="M216 394 c-10 -27 -7 -34 18 -34 29 0 39 12 30 34 -8 21 -40 21 -48 0z"/><path d="M110 302 c0 -23 28 -43 55 -40 30 3 30 3 -8 26 -42 24 -47 26 -47 14z"/><path d="M280 263 c0 -8 7 -16 15 -19 28 -11 15 -24 -25 -24 -22 0 -40 -4 -40 -10 0 -5 9 -10 20 -10 11 0 39 -5 62 -11 35 -9 50 -8 81 5 48 21 49 41 2 32 -27 -5 -35 -4 -35 7 0 8 7 17 15 21 31 12 13 22 -40 22 -39 0 -55 -4 -55 -13z"/><path d="M80 245 c0 -16 78 -56 93 -48 13 8 7 23 -9 23 -9 0 -27 9 -41 20 -31 24 -43 25 -43 5z"/><path d="M178 143 c-47 -4 -63 -18 -33 -29 30 -12 15 -26 -20 -20 -23 5 -35 3 -35 -4 0 -16 63 -40 104 -40 42 0 106 28 106 47 0 15 -26 18 -35 3 -3 -5 -18 -10 -32 -10 -26 0 -26 0 -5 23 25 26 28 38 10 35 -7 -1 -34 -3 -60 -5z"/></g>
</svg>
