<?xml version="1.0" encoding="UTF-8" standalone="no"?>
<svg>
<g transform="translate(0.000000,48.000000) scale(0.100000,-0.100000)"><path d="M113 406 c-24 -25 -43 -47 -43 -50 0 -3 11 -6 24 -6 18 0 27 8 35 30 6 17 21 34 35 40 30 11 35 30 9 30 -10 0 -37 -20 -60 -44z"/><path d="M200 407 c0 -20 -9 -29 -40 -44 -22 -10 -42 -26 -45 -35 -4 -10 -15 -18 -26 -18 -10 0 -19 -4 -19 -9 0 -22 22 -20 70 5 54 28 80 23 80 -17 0 -11 7 -19 15 -19 9 0 15 9 15 25 0 29 15 32 67 13 24 -9 33 -18 33 -35 0 -25 -19 -30 -37 -12 -7 7 -20 8 -30 5 -16 -7 -15 -9 9 -22 15 -8 32 -30 39 -49 14 -38 24 -42 55 -20 18 12 20 20 14 59 -10 68 -92 138 -134 114 -24 -14 -41 4 -41 44 0 17 -6 33 -12 36 -8 2 -13 -6 -13 -21z m188 -191 c3 -13 -1 -17 -14 -14 -11 2 -20 11 -22 22 -3 13 1 17 14 14 11 -2 20 -11 22 -22z"/><path d="M397 323 c17 -16 40 -46 51 -68 21 -40 21 -40 22 -9 0 24 -9 39 -41 67 -22 21 -46 37 -52 37 -6 0 3 -12 20 -27z"/><path d="M148 270 c-28 -23 -43 -29 -62 -24 -31 7 -51 -3 -37 -20 6 -7 43 -13 93 -14 82 -2 83 -2 60 16 -18 14 -22 24 -17 45 4 15 5 27 3 27 -2 0 -20 -14 -40 -30z"/><path d="M245 163 c-27 -8 -62 -17 -77 -20 -33 -6 -42 -37 -21 -69 12 -19 24 -24 57 -24 77 1 161 57 112 76 -8 3 -12 13 -9 24 7 26 -6 29 -62 13z m45 -43 c0 -5 -9 -10 -21 -10 -11 0 -17 5 -14 10 3 6 13 10 21 10 8 0 14 -4 14 -10z m-64 -21 c3 -6 1 -16 -5 -22 -13 -13 -62 1 -69 21 -5 15 64 17 74 1z"/></g>
</svg>
