<?xml version="1.0" encoding="UTF-8" standalone="no"?>
<svg>
<g transform="translate(0.000000,48.000000) scale(0.100000,-0.100000)"><path d="M92 410 c-49 -20 -61 -42 -59 -108 0 -34 5 -62 9 -62 16 0 78 36 78 46 0 6 16 24 35 41 37 33 47 60 18 48 -10 -4 -26 -10 -35 -12 -10 -3 -18 -11 -18 -19 0 -13 -30 -34 -49 -34 -15 0 -14 33 1 48 7 7 20 12 29 12 16 0 29 19 29 41 0 11 -8 11 -38 -1z"/><path d="M258 404 c-16 -8 -28 -19 -28 -24 0 -20 51 -9 78 15 27 25 27 25 2 25 -14 -1 -37 -8 -52 -16z"/><path d="M348 378 c-2 -18 -9 -23 -31 -21 -17 1 -36 -6 -49 -19 -18 -18 -19 -23 -7 -47 10 -22 13 -23 17 -8 7 31 75 49 86 22 9 -25 -4 -43 -37 -51 -25 -5 -28 -8 -14 -16 33 -18 87 12 113 64 27 54 31 88 9 88 -9 0 -15 -9 -15 -25 0 -25 -19 -40 -40 -33 -6 2 -5 13 4 30 15 29 12 38 -15 38 -11 0 -19 -9 -21 -22z"/><path d="M176 306 c-4 -16 -16 -28 -31 -32 -14 -3 -25 -10 -25 -15 0 -5 -12 -28 -26 -50 -19 -30 -29 -38 -37 -30 -15 15 -27 14 -27 -2 0 -7 20 -31 44 -55 43 -42 43 -42 85 -27 36 12 43 12 47 0 3 -7 1 -23 -6 -34 -18 -35 12 -26 48 15 21 23 32 46 32 66 0 17 -4 27 -10 23 -5 -3 -10 -14 -10 -25 0 -22 -23 -33 -39 -17 -15 15 -14 25 9 54 25 33 26 75 1 90 -11 7 -21 22 -23 34 -4 32 -24 34 -32 5z m54 -65 c0 -11 -8 -22 -18 -25 -10 -3 -23 -19 -29 -36 -6 -16 -18 -30 -26 -30 -8 0 -17 -9 -20 -20 -6 -24 -29 -26 -47 -5 -10 12 -8 16 14 25 19 7 26 17 26 35 0 17 8 29 25 37 14 6 25 17 25 25 0 7 11 13 25 13 18 0 25 -5 25 -19z"/></g>
</svg>
