<?xml version="1.0" encoding="UTF-8" standalone="no"?>
<svg>
<g transform="translate(0.000000,48.000000) scale(0.100000,-0.100000)"><path d="M215 423 c-11 -2 -29 -6 -41 -8 -23 -5 -77 -82 -63 -90 5 -4 14 -3 19 0 6 3 15 3 22 -1 7 -4 46 -8 87 -8 61 -1 76 -4 79 -17 2 -13 -8 -15 -65 -15 -62 1 -68 -1 -68 -19 0 -16 6 -19 25 -17 14 2 22 1 18 -4 -7 -6 8 -18 50 -40 7 -3 22 2 32 11 11 10 23 15 27 12 7 -8 33 38 33 58 0 7 -13 25 -30 38 -35 30 -38 41 -9 32 37 -12 18 27 -26 52 -40 22 -51 25 -90 16z m41 -44 c11 -19 -12 -32 -35 -20 -15 8 -27 9 -40 1 -21 -11 -37 2 -26 20 8 14 92 13 101 -1z"/><path d="M75 239 c-5 -24 -2 -36 16 -55 12 -13 29 -24 37 -24 9 0 23 -7 33 -16 17 -15 22 -15 56 -1 20 8 39 20 41 27 3 9 -1 11 -12 7 -9 -4 -22 -9 -29 -12 -7 -3 -28 8 -47 25 -18 16 -37 30 -42 30 -5 0 -14 11 -20 25 -15 33 -25 32 -33 -6z"/><path d="M305 168 c-27 -14 -65 -49 -65 -60 0 -18 28 -6 60 27 36 37 38 50 5 33z"/><path d="M323 106 c-12 -21 -89 -46 -102 -33 -7 7 -19 7 -37 -2 -15 -7 -23 -16 -18 -20 14 -13 80 -21 90 -11 5 5 27 10 49 12 37 3 40 5 43 36 3 33 -11 43 -25 18z"/></g>
</svg>
