<?xml version="1.0" encoding="UTF-8" standalone="no"?>
<svg>
<g transform="translate(0.000000,48.000000) scale(0.100000,-0.100000)"><path d="M143 423 c-7 -2 -13 -12 -13 -20 0 -11 7 -14 25 -9 15 4 25 2 25 -5 0 -6 -9 -13 -20 -16 -24 -6 -25 -13 -6 -38 13 -18 15 -18 30 -2 10 9 23 17 31 17 14 0 85 -75 85 -90 0 -21 19 -8 29 20 11 34 30 39 38 10 3 -12 14 -20 25 -20 17 0 19 4 13 27 -26 103 -57 127 -170 130 -44 0 -86 -1 -92 -4z m148 -23 c21 0 59 -33 59 -52 0 -7 -5 -20 -10 -28 -8 -12 -14 -10 -38 13 -15 15 -38 27 -49 27 -12 0 -25 5 -28 10 -9 15 15 42 32 35 8 -3 23 -5 34 -5z"/><path d="M130 280 c0 -5 9 -14 21 -21 17 -8 20 -17 15 -40 -5 -28 6 -40 19 -19 3 6 17 10 31 10 21 0 24 -5 24 -32 -1 -37 -20 -68 -41 -68 -8 0 -23 13 -34 30 -24 35 -33 40 -68 33 -35 -7 -34 -19 2 -26 36 -8 71 -43 71 -73 0 -36 19 -39 51 -8 35 34 51 84 42 139 -8 58 -37 85 -90 85 -24 0 -43 -4 -43 -10z"/></g>
</svg>
