<?xml version="1.0" encoding="UTF-8" standalone="no"?>
<svg>
<g transform="translate(0.000000,48.000000) scale(0.100000,-0.100000)"><path d="M278 443 c0 -5 -2 -15 -2 -23 -1 -9 -11 -15 -26 -15 -20 0 -26 -6 -28 -28 -3 -22 -7 -27 -20 -22 -9 4 -23 9 -29 12 -7 3 -13 -2 -13 -10 0 -9 -12 -30 -26 -47 -15 -17 -24 -33 -21 -36 11 -11 57 9 63 28 3 11 26 29 52 40 46 21 115 85 106 100 -6 10 -53 11 -56 1z"/><path d="M291 340 c-49 -45 -52 -50 -30 -50 13 0 31 -5 39 -10 13 -9 12 -12 -5 -26 -20 -15 -20 -15 -1 -30 25 -18 31 -18 46 1 18 22 50 19 50 -5 0 -21 -27 -40 -58 -40 -11 0 -27 -11 -36 -25 -20 -30 -56 -34 -56 -6 0 10 7 21 15 25 19 7 19 25 0 32 -19 8 -66 -46 -59 -68 3 -10 -3 -21 -16 -28 -27 -15 -40 -5 -40 30 0 16 -7 30 -16 34 -23 9 -24 8 -24 -19 0 -18 -7 -28 -25 -35 -32 -12 -32 -42 0 -57 22 -10 25 -9 25 9 0 15 4 18 18 13 9 -5 31 -10 49 -13 18 -2 38 -10 44 -18 15 -18 90 -18 115 1 10 8 28 15 40 15 12 0 33 14 48 32 21 26 25 39 20 65 -4 23 0 42 15 67 15 24 18 37 10 41 -6 4 -16 2 -22 -4 -6 -6 -17 -11 -24 -11 -19 0 -16 37 4 49 15 8 15 13 5 33 -11 20 -54 49 -71 48 -4 -1 -30 -23 -60 -50z m69 -39 c0 -11 -5 -23 -11 -27 -15 -9 -33 12 -26 30 9 23 37 20 37 -3z m40 -151 c0 -8 -72 -60 -83 -60 -17 0 -4 31 23 54 27 23 60 26 60 6z m-124 -69 c-9 -14 -33 -14 -41 -1 -4 6 -1 18 6 26 11 13 14 13 27 0 8 -8 11 -19 8 -25z"/><path d="M177 252 c-31 -32 -34 -42 -12 -42 17 0 55 39 55 57 0 20 -14 16 -43 -15z"/></g>
</svg>
