<?xml version="1.0" encoding="UTF-8" standalone="no"?>
<svg>
<g transform="translate(0.000000,48.000000) scale(0.100000,-0.100000)"><path d="M200 410 c0 -6 10 -14 23 -19 13 -5 29 -16 36 -25 11 -13 9 -16 -16 -21 -45 -11 -53 -14 -53 -24 0 -5 14 -9 30 -9 36 1 55 -14 46 -37 -7 -19 -40 -13 -68 13 -16 14 -18 13 -18 -4 0 -29 35 -92 63 -114 14 -11 37 -20 51 -20 16 0 26 -6 26 -15 0 -21 -31 -34 -65 -27 -26 5 -28 3 -17 -10 16 -20 71 -29 93 -15 18 11 49 3 49 -13 0 -5 -7 -10 -15 -10 -8 0 -15 -4 -15 -10 0 -14 36 -12 52 3 7 6 20 12 28 12 8 0 15 9 15 20 0 14 -6 19 -17 17 -11 -2 -18 3 -18 13 0 8 6 15 14 15 15 0 32 37 22 48 -4 3 -22 -9 -40 -27 -33 -32 -56 -35 -56 -6 0 8 16 30 35 49 19 20 35 38 35 40 0 3 -15 3 -32 -1 -30 -6 -32 -5 -20 10 21 24 6 37 -44 37 -55 0 -62 26 -9 36 19 3 35 10 35 15 0 5 -4 9 -9 9 -18 0 -21 33 -5 51 16 18 16 19 -10 19 -15 0 -35 -4 -45 -10 -13 -6 -24 -5 -37 5 -22 17 -44 19 -44 5z m124 -176 c20 -8 21 -40 2 -47 -21 -8 -50 17 -43 37 7 17 16 20 41 10z m-64 -25 c0 -5 -4 -9 -10 -9 -5 0 -10 7 -10 16 0 8 5 12 10 9 6 -3 10 -10 10 -16z"/><path d="M97 359 c-21 -11 -40 -28 -43 -37 -3 -9 -10 -25 -15 -36 -11 -18 -3 -89 11 -116 5 -8 21 -15 37 -15 21 0 28 -5 28 -20 0 -14 -6 -20 -22 -19 -26 1 -31 -21 -7 -30 36 -14 123 71 92 90 -6 4 -14 2 -16 -4 -5 -17 -32 -15 -32 2 0 7 9 16 20 19 12 3 20 14 20 26 0 26 -6 26 -48 1 -18 -11 -39 -20 -47 -20 -28 0 -15 30 24 54 53 34 59 46 22 46 -39 0 -39 11 -1 43 38 33 26 41 -23 16z"/></g>
</svg>
