<?xml version="1.0" encoding="UTF-8" standalone="no"?>
<svg>
<g transform="translate(0.000000,48.000000) scale(0.100000,-0.100000)"><path d="M293 388 c3 -12 1 -30 -4 -41 -10 -18 -12 -17 -41 12 -22 22 -34 29 -42 21 -5 -5 -18 -10 -28 -10 -14 0 -18 -8 -18 -35 0 -41 -24 -49 -34 -10 -5 21 -10 24 -36 18 -19 -3 -30 -1 -30 6 0 6 -7 11 -15 11 -12 0 -15 -19 -15 -110 0 -67 4 -110 10 -110 6 0 10 10 10 23 0 32 15 51 35 43 13 -4 15 -13 10 -36 -6 -29 6 -42 20 -20 10 17 25 11 25 -10 0 -24 31 -27 50 -6 6 8 15 41 20 73 6 45 5 62 -7 75 -18 20 -13 73 7 73 9 0 17 -16 22 -45 4 -25 11 -46 15 -48 34 -12 37 -21 21 -55 -9 -19 -14 -45 -11 -62 5 -21 0 -32 -18 -46 -13 -10 -18 -19 -11 -19 20 0 48 35 68 85 17 45 17 49 1 77 -26 46 -23 62 12 55 30 -6 30 -6 26 46 -2 29 -4 55 -5 60 0 4 -10 7 -21 7 -17 0 -20 -4 -16 -22z m-205 -97 c5 -29 -13 -50 -29 -34 -15 15 -3 66 14 60 7 -2 14 -14 15 -26z m90 -54 c6 -29 -7 -67 -22 -67 -14 0 -36 48 -36 77 0 22 54 12 58 -10z"/><path d="M385 366 c-10 -15 -14 -33 -9 -50 4 -17 0 -35 -10 -52 -10 -13 -19 -37 -21 -52 -2 -15 -7 -37 -11 -49 -9 -34 13 -28 31 7 9 18 23 30 35 30 29 0 25 -34 -5 -54 -32 -21 -34 -50 -3 -40 38 12 57 45 58 97 0 49 0 49 -30 42 -36 -8 -39 5 -9 46 14 20 17 33 11 45 -5 9 -7 25 -5 35 7 27 -14 23 -32 -5z"/><path d="M150 70 c0 -13 30 -13 50 0 11 7 7 10 -17 10 -18 0 -33 -4 -33 -10z"/><path d="M369 54 c-9 -11 -22 -14 -47 -9 -23 4 -32 3 -27 -4 7 -12 58 -15 69 -4 4 4 15 8 23 8 9 0 18 6 20 13 6 17 -22 15 -38 -4z"/></g>
</svg>
