<?xml version="1.0" encoding="UTF-8" standalone="no"?>
<svg>
<g transform="translate(0.000000,48.000000) scale(0.100000,-0.100000)"><path d="M210 397 c0 -20 78 -58 105 -51 18 4 31 -3 59 -33 19 -21 36 -44 36 -50 0 -21 20 -14 20 6 0 30 -56 108 -82 115 -13 3 -42 6 -65 6 -23 0 -45 5 -48 10 -9 14 -25 12 -25 -3z"/><path d="M65 351 c-20 -12 -31 -27 -33 -47 -4 -29 -4 -29 20 -6 13 12 30 22 36 22 29 0 92 26 92 37 0 19 -79 15 -115 -6z"/><path d="M230 292 c0 -6 16 -16 36 -22 19 -7 38 -18 41 -26 3 -8 11 -14 19 -14 8 0 23 -5 34 -12 45 -29 36 19 -11 54 -28 21 -119 36 -119 20z"/><path d="M100 283 c-27 -10 -30 -28 -7 -34 22 -5 67 16 67 32 0 10 -36 11 -60 2z"/><path d="M87 213 c-4 -3 -1 -13 6 -22 8 -9 17 -25 21 -35 6 -17 5 -17 -11 -5 -10 8 -25 23 -35 34 -9 11 -20 17 -24 13 -4 -5 0 -16 9 -26 10 -10 17 -24 17 -30 0 -7 4 -12 9 -12 5 0 12 -8 15 -17 8 -23 69 -51 126 -58 25 -3 57 -8 73 -10 37 -6 35 12 -8 58 -22 24 -43 37 -59 37 -14 0 -30 8 -35 18 -5 9 -28 27 -51 40 -48 25 -45 24 -53 15z m116 -100 c51 -18 61 -33 24 -33 -28 0 -87 28 -87 41 0 13 8 12 63 -8z"/><path d="M237 191 c17 -11 34 -29 38 -41 5 -17 12 -20 35 -15 22 5 31 1 43 -15 18 -26 32 -11 23 25 -8 30 -79 65 -132 65 -39 0 -39 0 -7 -19z"/></g>
</svg>
