<?xml version="1.0" encoding="UTF-8" standalone="no"?>
<svg>
<g transform="translate(0.000000,48.000000) scale(0.050000,-0.050000)">
<path d="M426 871 c-5 -7 4 -11 24 -11 17 0 29 -3 26 -8 -2 -4 2 -16 10 -27 8
-11 14 -14 14 -6 0 11 3 11 15 1 8 -7 12 -17 8 -23 -4 -7 5 -8 25 -4 22 4 32
3 32 -5 0 -9 3 -9 12 0 7 7 22 12 35 12 20 0 23 -5 23 -35 0 -19 -4 -35 -10
-35 -5 0 -10 7 -10 15 0 24 -35 17 -49 -9 -17 -32 -8 -45 28 -40 19 3 30 0 34
-9 3 -8 22 -18 42 -21 38 -7 64 4 109 46 24 22 36 23 36 3 0 -8 10 -25 21 -36
17 -17 19 -23 8 -30 -11 -7 -11 -9 2 -9 42 0 45 -101 3 -109 -23 -4 -34 -19
-34 -45 0 -11 -8 -28 -17 -38 -13 -14 -14 -21 -5 -30 9 -9 12 -7 13 8 0 17 1
17 9 -4 5 -12 7 -29 4 -37 -4 -8 1 -17 10 -21 18 -7 22 -39 6 -49 -6 -4 -22
-24 -35 -45 -13 -21 -37 -45 -52 -52 -17 -8 -32 -26 -38 -45 -15 -47 -85 -106
-85 -72 0 5 -5 7 -11 3 -6 -3 -15 0 -20 7 -7 10 -11 11 -16 3 -12 -18 -96 -13
-110 5 -10 13 -15 14 -32 3 -28 -16 -36 -15 -21 3 9 11 9 15 1 15 -6 0 -14 -6
-17 -14 -8 -20 -44 -16 -44 5 0 9 7 22 15 29 8 7 15 23 15 36 0 12 7 30 16 38
14 15 14 17 0 32 -19 18 -19 24 -6 58 6 16 6 26 0 26 -17 0 -32 -42 -27 -74 6
-37 -10 -63 -35 -58 -31 6 -27 60 9 113 17 26 24 49 23 76 -3 59 -2 63 23 63
18 0 23 5 22 28 -2 65 -34 80 -82 37 -22 -19 -25 -27 -14 -34 28 -18 34 -148
8 -162 -21 -12 -46 -60 -40 -76 3 -7 0 -13 -6 -13 -6 0 -11 -7 -11 -15 0 -26
-18 -16 -23 13 -7 40 -8 86 -1 80 3 -3 16 4 30 17 22 21 24 27 15 64 -5 23 -7
50 -4 61 3 12 0 20 -6 20 -8 0 -10 12 -6 38 5 29 4 33 -5 20 -13 -22 -30 -23
-30 -3 0 31 -20 14 -30 -27 -9 -30 -9 -48 -1 -65 15 -33 4 -73 -21 -73 -10 0
-16 4 -13 10 3 5 -6 27 -21 49 -24 37 -28 39 -42 24 -14 -14 -14 -17 3 -29 10
-8 22 -14 27 -14 11 0 10 -64 -1 -76 -14 -13 14 -46 36 -42 11 2 18 12 17 26
0 12 5 22 11 22 21 0 37 46 33 95 -2 31 1 50 9 52 10 4 12 -40 4 -134 -1 -7
-8 -13 -16 -13 -16 0 -21 -68 -9 -130 6 -27 10 -31 28 -25 12 4 29 7 39 6 72
-4 87 -6 87 -14 0 -5 -8 -11 -18 -14 -10 -2 -23 -18 -30 -35 -18 -48 -2 -59
77 -56 46 1 77 -3 100 -15 43 -22 74 -24 46 -3 -18 13 -17 14 10 12 17 -2 38
-6 48 -10 27 -13 85 2 92 23 3 10 15 21 27 24 16 5 19 11 15 29 -8 29 0 41 40
58 21 10 33 23 37 41 3 15 19 41 36 59 16 17 30 34 30 37 0 18 -27 79 -37 86
-21 13 -14 40 17 71 17 17 32 44 36 65 3 20 8 44 10 53 3 9 -4 25 -14 35 -11
10 -29 36 -40 57 -36 68 -59 72 -108 19 -30 -32 -38 -35 -54 -25 -11 6 -26 9
-35 6 -12 -5 -15 0 -13 27 2 19 8 36 15 39 22 9 -9 55 -37 56 -14 1 -40 2 -57
3 -26 1 -33 5 -33 21 0 16 -7 20 -37 20 -21 0 -48 3 -59 6 -12 3 -25 1 -28 -5z
m-28 -350 c11 -6 10 -10 0 -19 -11 -8 -17 -6 -26 9 -10 15 -10 19 0 19 7 0 19
-4 26 -9z"/>
<path d="M323 833 c-7 -2 -13 -15 -13 -28 0 -17 7 -24 31 -29 42 -8 49 -8 49
4 0 6 -7 10 -15 10 -8 0 -15 4 -15 10 0 5 7 7 15 4 9 -4 15 0 15 9 0 19 -40
32 -67 20z"/>
<path d="M440 760 c-22 -22 -40 -26 -40 -10 0 6 -8 10 -19 10 -13 0 -20 -10
-25 -32 -8 -39 0 -49 13 -17 10 24 10 24 10 0 1 -24 1 -24 24 -3 13 12 27 19
30 15 12 -11 8 -23 -8 -23 -8 0 -15 -4 -15 -10 0 -19 42 -10 47 10 3 11 12 20
19 20 19 0 18 46 -1 54 -9 3 -24 -3 -35 -14z"/>
<path d="M137 763 c-14 -14 -6 -19 23 -15 17 2 30 8 30 13 0 10 -43 12 -53 2z"/>
<path d="M261 754 c-26 -18 -25 -57 1 -62 12 -2 15 2 11 17 -3 12 -1 21 6 21
6 0 11 -9 11 -19 0 -11 8 -27 17 -37 16 -15 16 -17 0 -29 -18 -13 -23 -35 -9
-35 5 0 16 8 25 18 19 20 23 62 7 62 -5 0 -10 13 -10 30 0 39 -28 55 -59 34z"/>
<path d="M537 716 c-4 -10 -5 -21 -2 -24 9 -9 17 6 13 25 -3 17 -4 17 -11 -1z"/>
<path d="M110 705 c-10 -11 -10 -22 -3 -38 8 -17 7 -28 -3 -42 -8 -11 -14 -43
-14 -77 0 -50 3 -58 19 -58 17 0 18 4 11 37 -6 24 -5 42 2 50 5 7 8 19 5 27
-3 8 0 20 8 26 14 11 15 27 2 47 -5 8 -1 11 12 10 28 -2 44 -32 26 -47 -8 -7
-15 -19 -15 -28 0 -12 4 -11 20 6 34 36 26 68 -23 90 -35 15 -32 15 -47 -3z"/>
<path d="M249 663 c-16 -4 -33 -37 -30 -57 1 -5 -5 -6 -13 -3 -13 5 -32 -20
-22 -30 8 -8 54 28 81 63 25 33 22 38 -16 27z"/>
<path d="M385 630 c-3 -11 -13 -20 -21 -20 -8 0 -14 -5 -14 -11 0 -6 7 -8 16
-5 9 3 19 6 24 6 4 0 10 11 12 25 6 30 -8 34 -17 5z"/>
<path d="M662 622 c-6 -14 -12 -33 -12 -41 0 -9 -13 -25 -29 -36 -22 -14 -27
-23 -21 -35 5 -9 6 -28 3 -41 -5 -20 -3 -22 8 -11 8 7 14 27 14 45 0 30 3 32
47 40 34 7 48 14 52 30 6 25 0 37 -20 37 -8 0 -18 9 -22 19 -6 18 -8 18 -20
-7z"/>
<path d="M424 615 c-10 -26 1 -35 13 -10 6 14 7 25 2 25 -5 0 -12 -7 -15 -15z"/>
<path d="M770 599 c0 -6 7 -8 16 -5 12 4 15 2 10 -9 -3 -8 -1 -15 4 -15 6 0
10 9 10 20 0 13 -7 20 -20 20 -11 0 -20 -5 -20 -11z"/>
<path d="M170 534 c0 -8 5 -12 10 -9 6 3 10 10 10 16 0 5 -4 9 -10 9 -5 0 -10
-7 -10 -16z"/>
<path d="M495 530 c-3 -5 3 -10 14 -10 11 0 23 5 26 10 3 6 -3 10 -14 10 -11
0 -23 -4 -26 -10z"/>
<path d="M563 525 c-8 -15 -6 -24 9 -37 17 -17 18 -17 17 0 0 9 -4 26 -8 37
-8 19 -8 19 -18 0z"/>
<path d="M499 494 c-11 -14 -10 -18 5 -30 17 -12 17 -13 -8 -20 -15 -3 -45 -4
-66 0 -40 6 -40 6 -40 -34 0 -25 4 -39 10 -35 6 3 10 15 10 27 0 16 3 18 14 9
11 -9 15 -8 20 5 4 11 14 15 32 11 15 -2 41 -1 59 4 27 8 31 13 27 34 -4 21
-8 24 -31 18 -23 -6 -25 -5 -12 10 7 10 9 17 3 17 -5 0 -16 -7 -23 -16z"/>
<path d="M762 430 c-7 -11 -21 -20 -32 -20 -13 0 -20 -7 -20 -21 0 -19 2 -19
35 7 19 14 35 33 35 40 0 19 -3 18 -18 -6z"/>
<path d="M671 401 c-25 -25 -26 -31 -7 -57 12 -15 17 -17 28 -6 11 11 10 14
-1 21 -10 7 -11 13 -1 31 16 30 6 36 -19 11z"/>
<path d="M571 292 c-14 -26 -7 -42 10 -25 6 6 9 19 7 29 -3 17 -5 17 -17 -4z"/>
<path d="M648 298 c-16 -6 -28 -16 -28 -24 0 -10 6 -11 26 -4 35 14 41 12 18
-4 -21 -16 -16 -30 9 -20 21 8 27 27 13 45 -8 12 -17 14 -38 7z"/>
<path d="M480 257 c0 -13 -5 -28 -11 -34 -8 -8 -8 -17 1 -32 13 -26 30 -19 30
14 0 14 7 26 19 30 27 8 16 40 -15 43 -19 1 -24 -3 -24 -21z"/>
<path d="M586 181 c-4 -7 -5 -15 -2 -18 9 -9 19 4 14 18 -4 11 -6 11 -12 0z"/>
</g>
</svg>
