<?xml version="1.0" encoding="UTF-8" standalone="no"?>
<svg>
<g transform="translate(0.000000,48.000000) scale(0.050000,-0.050000)">
<path d="M688 873 c-25 -6 -25 -78 -1 -88 10 -3 19 -1 21 4 2 6 9 11 15 11 6
0 -1 -12 -15 -27 -37 -40 -46 -64 -41 -100 5 -32 -10 -47 -20 -20 -3 7 -6 5
-6 -5 -1 -12 6 -18 19 -18 11 0 20 3 21 8 0 4 2 18 3 31 2 13 11 30 21 37 17
13 17 14 2 14 -9 0 -17 7 -17 15 0 8 7 15 15 15 9 0 18 7 22 16 6 15 7 15 19
0 8 -11 14 -13 19 -7 10 17 -4 49 -23 53 -10 2 -16 13 -17 32 0 30 -8 37 -37
29z m18 -29 c-3 -9 -6 -23 -6 -32 0 -15 -2 -15 -10 -2 -15 23 -12 50 6 50 11
0 14 -5 10 -16z"/>
<path d="M465 841 c-6 -11 4 -18 25 -16 8 1 26 3 40 4 23 2 24 3 5 11 -27 12
-63 12 -70 1z"/>
<path d="M370 819 c0 -12 -8 -23 -20 -26 -14 -4 -20 -14 -20 -34 0 -39 17 -45
25 -8 4 17 13 33 21 36 8 3 14 11 14 19 0 8 5 14 10 14 6 0 10 -7 10 -15 0 -8
6 -15 14 -15 11 0 12 5 3 25 -15 32 -57 35 -57 4z"/>
<path d="M560 819 c-16 -29 -8 -63 15 -67 20 -4 20 -4 1 11 -19 14 -19 15 2
26 26 14 65 16 43 2 -8 -5 -12 -18 -8 -30 3 -12 2 -21 -3 -21 -4 0 -10 -6 -13
-13 -4 -10 2 -13 19 -9 13 2 24 7 25 11 0 3 2 27 4 52 4 41 1 48 -18 53 -39
10 -56 7 -67 -15z"/>
<path d="M470 791 c0 -6 4 -13 10 -16 6 -3 7 1 4 9 -7 18 -14 21 -14 7z"/>
<path d="M383 761 c-11 -17 -9 -18 20 -16 44 4 44 4 23 20 -25 19 -29 19 -43
-4z"/>
<path d="M788 763 c6 -2 12 -11 12 -18 0 -8 5 -17 10 -20 6 -4 10 5 10 19 0
21 -5 26 -22 25 -13 0 -17 -3 -10 -6z"/>
<path d="M466 752 c-10 -16 9 -30 21 -17 10 10 9 14 -2 19 -8 3 -16 2 -19 -2z"/>
<path d="M437 717 c-3 -7 1 -26 8 -42 11 -29 12 -29 19 -7 13 38 -13 85 -27
49z"/>
<path d="M768 723 c6 -2 10 -9 6 -14 -3 -5 -1 -9 5 -9 17 0 21 18 5 24 -9 3
-19 6 -22 5 -4 0 -1 -3 6 -6z"/>
<path d="M380 709 c0 -5 -5 -7 -10 -4 -6 3 -13 -1 -17 -11 -8 -21 24 -82 48
-89 11 -4 19 -15 19 -25 0 -10 5 -22 10 -25 6 -3 10 1 10 9 0 20 -21 66 -31
66 -4 0 -14 14 -23 30 -18 37 -11 38 21 3 25 -28 25 -28 18 2 -7 32 -22 55
-36 55 -5 0 -9 -5 -9 -11z"/>
<path d="M502 675 c0 -16 2 -22 5 -12 2 9 2 23 0 30 -3 6 -5 -1 -5 -18z"/>
<path d="M526 685 c4 -8 12 -15 20 -15 8 0 14 7 14 15 0 8 -9 15 -20 15 -13 0
-18 -5 -14 -15z"/>
<path d="M721 673 c1 -18 3 -22 6 -10 3 12 10 16 20 13 9 -4 13 -1 11 6 -3 7
-12 14 -21 16 -13 3 -17 -3 -16 -25z"/>
<path d="M840 666 c0 -13 -6 -27 -12 -29 -7 -3 -3 -6 10 -6 18 -1 22 4 22 29
0 17 -4 30 -10 30 -5 0 -10 -11 -10 -24z"/>
<path d="M280 640 c-20 -16 -23 -22 -14 -37 7 -11 23 -18 43 -18 27 0 31 4 31
26 0 23 -16 49 -29 49 -4 0 -17 -9 -31 -20z"/>
<path d="M470 615 c0 -9 6 -12 15 -9 8 4 15 10 15 15 0 5 -7 9 -15 9 -8 0 -15
-7 -15 -15z"/>
<path d="M555 581 c0 -37 9 -46 32 -32 10 6 13 11 6 11 -6 0 -13 10 -15 22 -5
33 -23 32 -23 -1z"/>
<path d="M745 600 c3 -5 8 -10 11 -10 2 0 4 5 4 10 0 6 -5 10 -11 10 -5 0 -7
-4 -4 -10z"/>
<path d="M794 599 c-6 -8 -11 -25 -12 -38 0 -13 -6 -27 -13 -31 -16 -11 -2
-30 23 -30 16 0 19 -5 16 -25 -4 -17 -1 -25 8 -25 16 0 19 -16 4 -25 -5 -3
-10 -21 -10 -39 0 -48 -39 -101 -74 -101 -35 0 -50 -24 -35 -62 9 -25 7 -30
-18 -50 -33 -27 -26 -29 23 -8 25 10 34 20 30 30 -3 10 1 15 12 15 16 1 16 1
0 14 -23 17 -23 26 0 26 41 0 92 68 92 122 0 21 5 38 10 38 15 0 12 57 -2 63
-8 4 -7 6 3 6 12 1 18 12 21 40 2 22 2 45 0 50 -5 14 -32 14 -32 1 0 -5 5 -10
10 -10 17 0 11 -57 -7 -64 -23 -9 -59 30 -43 49 6 8 10 26 8 41 -2 22 -5 25
-14 13z"/>
<path d="M450 590 c0 -6 7 -10 15 -10 8 0 15 2 15 4 0 2 -7 6 -15 10 -8 3 -15
1 -15 -4z"/>
<path d="M501 584 c0 -11 3 -14 6 -6 3 7 2 16 -1 19 -3 4 -6 -2 -5 -13z"/>
<path d="M530 570 c0 -11 2 -20 4 -20 2 0 6 9 9 20 3 11 1 20 -4 20 -5 0 -9
-9 -9 -20z"/>
<path d="M323 543 c-7 -15 -11 -28 -9 -31 6 -6 28 38 24 48 -2 5 -9 -3 -15
-17z"/>
<path d="M216 544 c-9 -22 -8 -24 9 -24 29 0 15 -18 -20 -24 -49 -9 -54 -26
-8 -26 31 0 40 5 51 27 16 36 15 40 -7 52 -15 8 -20 7 -25 -5z"/>
<path d="M581 530 c-9 -5 -11 -15 -6 -26 6 -17 8 -17 16 5 11 28 9 33 -10 21z"/>
<path d="M610 519 c0 -27 26 -41 60 -34 43 9 37 22 -7 17 -31 -3 -36 -2 -25 9
17 18 15 25 -8 25 -12 0 -20 -7 -20 -17z"/>
<path d="M500 526 c0 -2 7 -9 15 -16 12 -10 15 -10 15 4 0 9 -7 16 -15 16 -8
0 -15 -2 -15 -4z"/>
<path d="M388 507 c-16 -6 -28 -16 -28 -23 0 -6 -7 -17 -15 -24 -22 -18 -19
-57 5 -65 22 -7 25 -18 10 -45 -9 -16 -7 -17 15 -6 14 6 25 16 25 21 -1 15
-36 55 -49 55 -6 0 -11 5 -11 10 0 6 5 10 11 10 11 0 69 60 69 72 0 5 -1 8 -2
7 -2 -1 -15 -6 -30 -12z"/>
<path d="M455 471 c0 -16 3 -32 6 -35 11 -12 28 20 22 42 -8 32 -28 27 -28 -7z"/>
<path d="M274 422 c0 -52 2 -60 12 -47 8 11 9 26 4 43 -5 15 -11 36 -13 47 -2
11 -4 -8 -3 -43z"/>
<path d="M420 470 c0 -5 7 -10 15 -10 8 0 15 5 15 10 0 6 -7 10 -15 10 -8 0
-15 -4 -15 -10z"/>
<path d="M508 463 c-5 -6 -8 -24 -6 -40 3 -28 3 -28 18 5 12 25 21 32 43 32
16 0 26 -4 22 -10 -3 -5 -15 -10 -26 -10 -10 0 -19 -4 -19 -8 0 -4 15 -6 34
-4 27 3 34 8 33 23 -1 10 -6 20 -12 20 -44 5 -78 2 -87 -8z"/>
<path d="M222 438 c-1 -18 -8 -28 -17 -28 -20 0 -19 -16 1 -24 23 -9 26 -4 21
40 -2 27 -4 31 -5 12z"/>
<path d="M234 369 c-3 -6 -15 -9 -25 -6 -11 3 -19 1 -19 -4 0 -5 14 -9 30 -9
20 0 30 5 30 15 0 18 -6 19 -16 4z"/>
<path d="M433 350 c3 -12 0 -20 -8 -20 -23 0 -28 -34 -7 -50 10 -9 21 -22 25
-30 3 -10 6 -7 6 8 1 13 -5 22 -14 22 -8 0 -15 6 -15 14 0 8 7 16 15 20 17 6
21 56 4 56 -6 0 -9 -9 -6 -20z"/>
<path d="M588 353 c7 -3 16 -2 19 1 4 3 -2 6 -13 5 -11 0 -14 -3 -6 -6z"/>
<path d="M168 333 c7 -3 16 -2 19 1 4 3 -2 6 -13 5 -11 0 -14 -3 -6 -6z"/>
<path d="M288 333 c6 -2 18 -2 25 0 6 3 1 5 -13 5 -14 0 -19 -2 -12 -5z"/>
<path d="M495 330 c-3 -5 3 -10 14 -10 12 0 21 -4 21 -10 0 -5 -7 -10 -15 -10
-8 0 -19 -10 -26 -22 -10 -18 -9 -20 6 -15 9 4 20 7 25 7 12 0 21 31 15 51 -7
20 -30 25 -40 9z"/>
<path d="M235 321 c-10 -17 12 -21 25 -6 10 12 10 15 -3 15 -9 0 -18 -4 -22
-9z"/>
<path d="M382 310 c0 -14 2 -19 5 -12 2 6 2 18 0 25 -3 6 -5 1 -5 -13z"/>
<path d="M145 300 c3 -5 13 -10 22 -10 9 0 13 -3 10 -6 -4 -4 3 -15 15 -26 12
-10 19 -21 15 -24 -8 -8 25 -44 40 -44 7 0 13 7 13 15 0 8 9 15 19 15 11 0 23
5 26 11 11 18 1 19 -29 4 -35 -19 -46 -19 -46 -1 0 8 -8 28 -17 45 -13 23 -25
31 -46 31 -16 0 -26 -4 -22 -10z"/>
<path d="M270 300 c0 -5 5 -10 10 -10 6 0 10 5 10 10 0 6 -4 10 -10 10 -5 0
-10 -4 -10 -10z"/>
<path d="M303 273 c10 -3 21 -11 24 -19 3 -8 11 -14 19 -14 17 0 19 26 2 28
-7 1 -24 3 -38 5 -14 2 -17 2 -7 0z"/>
<path d="M603 234 c-20 -15 -30 -19 -35 -11 -6 9 -11 8 -18 -3 -7 -11 -10 -11
-10 -2 0 7 -5 10 -10 7 -6 -4 -7 -11 -4 -17 4 -6 0 -14 -7 -19 -11 -7 -12 -11
-1 -17 7 -5 12 -13 10 -18 -2 -5 2 -10 7 -12 6 -1 11 9 13 23 3 20 8 25 22 20
12 -4 26 2 39 16 27 29 38 18 16 -15 -9 -13 -15 -35 -13 -48 3 -20 6 -18 36
22 17 24 32 54 32 66 0 32 -41 37 -77 8z"/>
<path d="M558 243 c7 -3 16 -2 19 1 4 3 -2 6 -13 5 -11 0 -14 -3 -6 -6z"/>
<path d="M462 224 c-7 -8 -8 -14 -3 -14 10 0 25 19 20 25 -2 1 -10 -3 -17 -11z"/>
<path d="M290 205 c-11 -13 -8 -15 19 -15 17 0 31 -4 31 -10 0 -5 -5 -10 -12
-10 -6 0 -8 -3 -5 -6 10 -10 39 18 33 32 -3 7 0 15 7 18 7 2 -4 5 -24 5 -21 1
-42 -5 -49 -14z"/>
<path d="M410 203 c0 -6 -9 -13 -21 -16 -11 -3 -23 -15 -26 -27 -3 -13 -11
-19 -19 -16 -8 3 -14 1 -14 -4 0 -6 9 -10 20 -10 11 0 20 7 20 15 0 8 9 15 19
15 19 0 39 35 27 47 -3 4 -6 2 -6 -4z"/>
<path d="M732 165 c-17 -8 -32 -19 -32 -26 0 -7 7 -8 18 -4 9 4 27 10 40 12
22 5 29 18 14 27 -4 2 -22 -2 -40 -9z"/>
<path d="M420 159 c0 -5 5 -7 10 -4 6 3 10 8 10 11 0 2 -4 4 -10 4 -5 0 -10
-5 -10 -11z"/>
</g>
</svg>
