<?xml version="1.0" encoding="UTF-8" standalone="no"?>
<svg>
<g transform="translate(0.000000,48.000000) scale(0.050000,-0.050000)">
<path d="M435 855 c-27 -8 -61 -14 -75 -15 -34 0 -126 -44 -133 -64 -9 -23 5
-26 54 -11 44 14 44 14 9 15 -35 2 -35 2 -2 12 17 6 32 15 32 19 0 5 15 9 34
9 19 0 46 4 61 10 62 24 139 28 193 12 28 -9 52 -22 52 -29 0 -7 -4 -13 -9
-13 -12 0 -19 -53 -10 -76 7 -17 8 -17 8 -1 1 9 6 17 12 17 6 0 8 -9 4 -20 -5
-16 -2 -20 17 -20 22 0 22 -1 -7 -21 -24 -16 -26 -19 -7 -14 21 6 31 -8 13
-19 -13 -8 -20 -56 -9 -56 6 0 8 -6 5 -14 -9 -22 60 -2 81 24 15 19 20 20 29
8 10 -11 5 -18 -25 -33 -44 -24 -75 -53 -68 -64 9 -14 56 -10 56 5 0 17 -12
18 -28 2 -6 -6 -14 -9 -17 -7 -2 3 9 15 25 27 29 22 30 22 48 4 19 -19 19 -19
32 2 9 14 15 17 18 8 2 -7 -2 -19 -8 -28 -11 -12 -10 -13 3 -8 12 4 14 1 10
-16 -3 -12 -12 -24 -19 -27 -18 -7 -18 -27 1 -43 12 -10 15 -10 15 2 0 8 7 28
15 45 8 17 14 45 12 64 -3 35 -11 39 -52 24 -19 -6 -19 -6 -1 9 10 8 24 17 30
20 6 2 -2 16 -18 32 -23 22 -32 25 -46 17 -10 -7 -22 -8 -31 -2 -21 13 -33 11
-20 -4 6 -8 7 -18 3 -22 -4 -5 -1 -5 7 0 9 5 12 3 9 -6 -4 -13 -58 -27 -58
-14 0 3 8 22 17 43 24 54 25 80 3 87 -23 7 -31 37 -20 76 8 29 7 31 -28 47
-50 21 -156 25 -217 7z"/>
<path d="M457 762 c-10 -11 -14 -23 -9 -26 12 -7 35 19 30 34 -2 7 -11 3 -21
-8z"/>
<path d="M376 722 c2 -49 12 -72 33 -72 14 1 14 2 -1 11 -11 6 -18 22 -18 42
0 18 -4 38 -8 44 -5 8 -7 -3 -6 -25z"/>
<path d="M526 744 c-23 -23 -20 -30 4 -9 11 10 20 20 20 22 0 7 -9 2 -24 -13z"/>
<path d="M270 735 c0 -8 2 -15 4 -15 2 0 13 -3 23 -7 15 -6 16 -4 5 9 -10 13
-10 17 0 21 7 3 3 6 -9 6 -14 1 -23 -5 -23 -14z"/>
<path d="M272 675 c-6 -14 -16 -25 -22 -25 -5 0 -10 -4 -10 -9 0 -17 42 1 49
21 4 11 10 19 14 19 21 -2 27 0 27 10 0 8 -4 8 -13 0 -9 -7 -17 -7 -24 0 -6 6
-13 1 -21 -16z"/>
<path d="M465 650 c3 -5 16 -10 28 -9 21 0 21 1 2 9 -28 12 -37 12 -30 0z"/>
<path d="M440 627 c0 -11 8 -17 25 -17 14 0 24 -3 24 -7 -1 -5 -1 -17 0 -28 2
-18 3 -18 12 3 11 28 4 42 -20 42 -9 0 -22 5 -29 12 -9 9 -12 8 -12 -5z"/>
<path d="M522 600 c0 -19 2 -27 5 -17 2 9 2 25 0 35 -3 9 -5 1 -5 -18z"/>
<path d="M550 622 c0 -12 19 -26 26 -19 2 2 -2 10 -11 17 -9 8 -15 8 -15 2z"/>
<path d="M203 598 c-12 -13 -27 -43 -33 -67 -10 -39 -10 -47 4 -57 9 -6 16
-16 16 -22 0 -5 7 -12 15 -16 8 -3 15 -1 15 4 0 6 -5 10 -11 10 -5 0 -8 4 -4
9 3 5 -1 15 -8 23 -15 16 -8 65 15 97 13 18 22 22 45 17 15 -3 35 -2 43 4 12
8 10 10 -10 10 -14 0 -34 3 -45 6 -13 3 -28 -3 -42 -18z"/>
<path d="M293 583 c-13 -2 -23 -8 -23 -13 0 -5 -8 -11 -17 -14 -10 -3 0 -3 22
0 22 3 43 8 47 10 10 7 10 24 1 23 -5 -1 -18 -4 -30 -6z"/>
<path d="M610 570 c0 -5 10 -15 23 -21 22 -12 22 -12 3 10 -21 23 -26 26 -26
11z"/>
<path d="M222 545 c0 -16 2 -22 5 -12 2 9 2 23 0 30 -3 6 -5 -1 -5 -18z"/>
<path d="M346 538 c-4 -20 -6 -44 -4 -54 2 -15 5 -14 14 7 5 13 7 38 4 54 -7
30 -7 30 -14 -7z"/>
<path d="M530 560 c-12 -8 -10 -10 8 -10 13 0 20 4 17 10 -7 12 -6 12 -25 0z"/>
<path d="M580 550 c6 -11 15 -18 21 -15 5 4 3 12 -5 21 -21 20 -28 17 -16 -6z"/>
<path d="M281 536 c-9 -11 -9 -19 1 -37 10 -17 10 -23 1 -26 -21 -8 -15 -23
10 -23 12 0 17 4 12 8 -6 4 -10 26 -10 50 1 23 0 42 -1 42 -1 0 -7 -6 -13 -14z"/>
<path d="M386 520 c-8 -43 -8 -52 3 -46 12 8 19 52 11 66 -4 7 -10 -2 -14 -20z"/>
<path d="M236 504 c-4 -9 -4 -19 -1 -22 2 -3 7 3 11 12 4 9 4 19 1 22 -2 3 -7
-3 -11 -12z"/>
<path d="M655 510 c-19 -8 -19 -9 3 -9 12 -1 22 4 22 9 0 6 -1 10 -2 9 -2 0
-12 -4 -23 -9z"/>
<path d="M453 483 c-10 -16 -22 -31 -28 -35 -6 -5 -5 -8 3 -8 17 0 52 37 52
55 0 22 -7 19 -27 -12z"/>
<path d="M485 459 c-4 -6 -5 -12 -2 -15 2 -3 7 2 10 11 7 17 1 20 -8 4z"/>
<path d="M720 464 c0 -15 19 -30 54 -43 24 -10 27 -9 24 6 -2 12 -12 18 -28
18 -14 0 -30 7 -37 15 -7 9 -12 10 -13 4z"/>
<path d="M285 429 c-12 -19 5 -23 22 -6 16 16 16 17 1 17 -9 0 -20 -5 -23 -11z"/>
<path d="M153 408 c-14 -7 -23 -19 -22 -32 1 -17 2 -18 6 -3 5 20 33 23 33 3
0 -7 7 -19 15 -26 10 -9 15 -9 15 -1 0 6 -4 11 -9 11 -5 0 -11 9 -14 20 -3 11
-1 20 4 20 5 0 9 5 9 10 0 12 -8 12 -37 -2z"/>
<path d="M335 400 c-16 -11 -24 -20 -17 -20 6 0 12 -7 12 -17 0 -16 14 -10 16
8 1 5 2 14 3 19 0 6 8 10 16 10 8 0 15 5 15 10 0 15 -11 12 -45 -10z"/>
<path d="M487 385 c6 -40 10 -52 17 -44 2 2 -3 22 -10 44 -13 40 -13 40 -7 0z"/>
<path d="M81 392 c0 -13 8 -31 19 -40 11 -10 21 -34 24 -57 2 -22 10 -53 16
-70 6 -16 12 -32 13 -35 3 -7 39 -4 60 5 13 5 17 3 17 -11 0 -13 3 -15 11 -7
7 7 9 19 5 29 -5 13 -14 15 -45 10 -42 -6 -57 7 -44 41 4 11 3 14 -6 9 -8 -5
-12 -3 -10 5 4 31 -2 49 -25 76 -13 15 -26 37 -29 48 -4 18 -5 17 -6 -3z"/>
<path d="M610 406 c0 -2 7 -6 15 -10 8 -3 15 -1 15 4 0 6 -7 10 -15 10 -8 0
-15 -2 -15 -4z"/>
<path d="M762 389 c2 -14 14 -29 31 -37 15 -7 35 -25 44 -39 16 -24 16 -26 0
-38 -14 -10 -14 -14 -4 -18 15 -6 47 15 47 32 0 24 -55 81 -77 81 -13 0 -23 6
-23 14 0 8 -5 18 -11 22 -7 4 -9 -2 -7 -17z"/>
<path d="M283 371 c-9 -24 -8 -29 3 -24 8 3 14 16 14 29 0 31 -3 30 -17 -5z"/>
<path d="M535 390 c-3 -6 1 -7 9 -4 18 7 21 14 7 14 -6 0 -13 -4 -16 -10z"/>
<path d="M246 364 c-11 -7 -17 -16 -15 -19 3 -3 14 2 25 9 10 8 17 17 14 19
-3 3 -14 -1 -24 -9z"/>
<path d="M710 320 c0 -6 7 -10 15 -10 8 0 15 2 15 4 0 2 -7 6 -15 10 -8 3 -15
1 -15 -4z"/>
<path d="M772 305 c0 -16 2 -22 5 -12 2 9 2 23 0 30 -3 6 -5 -1 -5 -18z"/>
<path d="M208 298 c-16 -5 -28 -14 -28 -19 0 -10 26 -2 55 18 23 15 12 16 -27
1z"/>
<path d="M607 293 c-4 -3 -7 -11 -7 -17 0 -6 5 -5 12 2 6 6 9 14 7 17 -3 3 -9
2 -12 -2z"/>
<path d="M528 253 c6 -2 18 -2 25 0 6 3 1 5 -13 5 -14 0 -19 -2 -12 -5z"/>
<path d="M730 234 c0 -12 3 -14 13 -6 6 5 21 12 32 15 13 3 9 5 -12 6 -24 1
-33 -3 -33 -15z"/>
<path d="M450 210 c0 -6 7 -10 15 -10 8 0 15 2 15 4 0 2 -7 6 -15 10 -8 3 -15
1 -15 -4z"/>
<path d="M390 185 c0 -8 2 -15 4 -15 2 0 6 7 10 15 3 8 1 15 -4 15 -6 0 -10
-7 -10 -15z"/>
<path d="M641 161 c-35 -37 -38 -38 -68 -26 -18 8 -36 9 -44 4 -8 -5 -22 -6
-32 -3 -9 3 -31 -5 -48 -17 -26 -18 -33 -19 -40 -8 -6 9 -12 10 -16 4 -5 -5
-13 -11 -20 -12 -9 -2 -10 4 -3 21 11 29 -7 50 -30 36 -9 -6 -17 -5 -21 2 -10
16 -49 -9 -49 -31 0 -30 27 -32 59 -6 29 25 55 35 33 13 -20 -20 -11 -61 11
-46 1 1 12 -4 25 -11 19 -10 27 -9 49 9 19 15 35 19 54 15 15 -3 30 -2 33 3 3
6 21 5 45 -1 40 -11 41 -10 81 33 22 24 40 47 40 52 0 18 -24 6 -59 -31z
m-331 -15 c0 -3 -4 -8 -10 -11 -5 -3 -10 -1 -10 4 0 6 5 11 10 11 6 0 10 -2
10 -4z"/>
<path d="M250 168 c-33 -17 -34 -18 -9 -18 15 0 32 7 39 15 19 22 10 23 -30 3z"/>
<path d="M395 150 c-7 -12 2 -12 30 0 19 8 19 9 -2 9 -12 1 -25 -3 -28 -9z"/>
</g>
</svg>
