<?xml version="1.0" encoding="UTF-8" standalone="no"?>
<svg>
<g transform="translate(0.000000,48.000000) scale(0.050000,-0.050000)">
<path d="M428 800 c23 -22 43 -30 70 -31 20 0 31 -3 25 -6 -7 -2 -12 -14 -12
-26 1 -17 2 -18 6 -4 6 22 9 21 40 -3 19 -15 30 -17 43 -10 27 14 31 13 75
-25 22 -20 40 -44 40 -57 1 -13 9 -39 18 -58 11 -23 18 -72 21 -145 4 -107 3
-111 -20 -134 -13 -13 -24 -27 -24 -31 0 -5 -10 -12 -22 -16 -34 -10 -60 -42
-62 -73 -1 -31 -23 -64 -37 -55 -5 3 -9 1 -9 -5 0 -25 -60 -16 -101 17 -10 7
-54 13 -117 14 -76 2 -103 6 -107 17 -7 18 13 41 37 41 11 0 31 9 44 19 20 16
22 20 8 25 -9 4 -23 1 -32 -6 -8 -7 -25 -11 -37 -10 -12 2 -28 -4 -35 -13 -10
-12 -16 -13 -27 -3 -12 10 -13 7 -8 -18 10 -43 40 -80 61 -75 49 9 179 -1 195
-14 8 -8 22 -15 30 -15 8 0 20 -5 26 -11 27 -27 153 36 153 77 0 8 11 20 25
26 14 6 35 32 48 57 12 25 25 48 28 51 8 7 34 112 30 125 -1 5 -4 25 -7 43 -2
19 -7 38 -10 43 -3 5 0 18 6 30 10 18 8 25 -14 48 -14 15 -26 39 -26 53 0 51
-98 136 -144 124 -22 -5 -48 5 -47 20 0 5 -20 8 -45 6 -32 -2 -52 2 -73 17
-43 31 -51 25 -13 -9z"/>
<path d="M364 784 c2 -10 8 -20 15 -22 8 -3 12 3 9 14 -4 23 -27 31 -24 8z"/>
<path d="M288 759 c-22 -12 -23 -26 -4 -45 20 -20 25 -18 18 9 -5 20 -4 21 11
8 20 -16 23 -2 5 22 -10 12 -17 14 -30 6z"/>
<path d="M480 731 c0 -6 -9 -21 -20 -33 -11 -12 -20 -29 -19 -37 0 -12 3 -10
9 4 8 19 9 19 9 -3 1 -13 5 -21 11 -17 5 3 6 13 3 21 -3 8 0 26 7 40 8 13 10
27 7 31 -4 3 -7 1 -7 -6z"/>
<path d="M333 695 c-7 -8 -9 -16 -4 -19 4 -3 16 3 26 14 14 15 15 20 4 20 -8
-1 -20 -7 -26 -15z"/>
<path d="M412 670 c0 -14 2 -19 5 -12 2 6 2 18 0 25 -3 6 -5 1 -5 -13z"/>
<path d="M251 625 c-38 -44 -43 -100 -10 -110 24 -8 39 8 37 40 -1 17 -1 17
-5 -3 -2 -12 -9 -20 -14 -17 -14 9 -11 51 6 65 8 7 15 21 15 30 0 10 6 21 13
23 8 4 8 6 1 6 -7 1 -26 -15 -43 -34z"/>
<path d="M349 652 c7 -5 11 -14 8 -19 -3 -5 -1 -15 4 -23 7 -11 9 -7 7 14 -2
16 -10 31 -18 33 -12 4 -13 3 -1 -5z"/>
<path d="M310 615 c0 -8 7 -15 15 -15 9 0 12 6 9 15 -4 8 -10 15 -15 15 -5 0
-9 -7 -9 -15z"/>
<path d="M503 595 c0 -9 6 -14 14 -11 7 3 13 -1 13 -9 0 -7 -10 -16 -22 -18
-19 -4 -18 -4 5 -6 25 -1 28 2 25 26 -3 30 -35 45 -35 18z"/>
<path d="M558 553 c7 -3 16 -2 19 1 4 3 -2 6 -13 5 -11 0 -14 -3 -6 -6z"/>
<path d="M581 524 c0 -11 3 -14 6 -6 3 7 2 16 -1 19 -3 4 -6 -2 -5 -13z"/>
<path d="M416 521 c-3 -5 1 -11 9 -15 8 -3 15 -1 15 4 0 13 -18 22 -24 11z"/>
<path d="M540 520 c0 -5 5 -10 10 -10 6 0 10 -13 10 -30 0 -20 5 -30 15 -30
12 0 13 4 5 19 -5 11 -10 29 -10 40 0 12 -7 21 -15 21 -8 0 -15 -4 -15 -10z"/>
<path d="M460 503 c0 -10 4 -24 9 -32 13 -21 41 3 34 29 -7 25 -43 27 -43 3z"/>
<path d="M70 501 c0 -5 9 -7 20 -4 11 3 20 7 20 9 0 2 -9 4 -20 4 -11 0 -20
-4 -20 -9z"/>
<path d="M282 498 c-16 -16 -15 -25 3 -25 8 0 15 9 15 19 0 21 -2 22 -18 6z"/>
<path d="M153 483 c9 -2 15 -9 12 -14 -4 -5 -1 -9 4 -9 6 0 11 7 11 15 0 9 -9
15 -22 14 -18 -1 -19 -2 -5 -6z"/>
<path d="M531 474 c0 -11 3 -14 6 -6 3 7 2 16 -1 19 -3 4 -6 -2 -5 -13z"/>
<path d="M80 426 c0 -8 5 -18 10 -21 6 -3 10 3 10 14 0 12 -4 21 -10 21 -5 0
-10 -6 -10 -14z"/>
<path d="M127 433 c-4 -3 -7 -11 -7 -17 0 -7 3 -7 8 0 4 7 16 14 27 17 19 5
19 5 -1 6 -11 0 -24 -2 -27 -6z"/>
<path d="M243 370 c1 -16 5 -30 8 -30 4 0 7 -6 6 -12 -1 -31 4 -48 13 -48 7 0
7 6 1 18 -13 25 -2 65 15 58 8 -3 14 1 14 9 0 8 5 15 10 15 6 0 10 -7 10 -15
0 -8 5 -15 10 -15 6 0 10 9 10 20 0 15 -7 20 -25 20 -14 0 -25 -4 -25 -10 0
-5 -4 -10 -10 -10 -5 0 -10 7 -10 15 0 8 -7 15 -15 15 -10 0 -14 -9 -12 -30z"/>
<path d="M101 367 c0 -16 -5 -25 -11 -22 -5 3 -10 2 -10 -4 0 -15 41 -24 53
-12 8 8 7 11 -5 11 -10 0 -18 10 -21 28 -4 27 -4 27 -6 -1z"/>
<path d="M424 365 c-4 -8 -16 -15 -28 -16 -20 0 -20 -1 2 -10 13 -5 20 -13 17
-19 -4 -7 5 -10 24 -8 22 2 31 7 31 19 0 10 -6 20 -12 22 -10 4 -10 6 0 6 18
1 5 21 -14 21 -8 0 -17 -7 -20 -15z"/>
<path d="M390 288 c0 -21 2 -38 4 -38 9 0 12 50 5 62 -6 8 -9 -1 -9 -24z"/>
<path d="M480 285 c0 -8 2 -15 4 -15 2 0 6 7 10 15 3 8 1 15 -4 15 -6 0 -10
-7 -10 -15z"/>
<path d="M295 179 c-26 -6 -23 -7 18 -8 26 0 47 1 47 3 0 9 -37 12 -65 5z"/>
</g>
</svg>
