<?xml version="1.0" encoding="UTF-8" standalone="no"?>
<svg>
<g transform="translate(0.000000,48.000000) scale(0.050000,-0.050000)">
<path d="M420 825 c-34 -20 -41 -46 -17 -67 25 -22 37 -15 36 20 -1 17 -3 21
-6 10 -2 -10 -9 -18 -14 -18 -6 0 -5 8 1 21 9 16 14 18 26 8 10 -8 14 -8 14 0
0 6 14 11 31 11 17 0 28 -4 24 -10 -3 -5 -2 -10 4 -10 5 0 12 4 15 8 18 30
-72 51 -114 27z"/>
<path d="M476 773 c4 -16 11 -30 15 -33 4 -3 7 -14 6 -25 -2 -15 3 -19 21 -17
21 2 22 1 8 -14 -20 -20 -12 -34 20 -34 14 0 22 -4 19 -10 -3 -5 3 -10 14 -10
11 0 23 5 26 10 3 6 15 10 26 10 23 0 24 9 4 36 -14 18 -14 18 -15 -6 -1 -14
-4 -19 -7 -12 -4 10 -8 10 -19 1 -14 -12 -19 0 -16 41 0 8 -5 18 -11 22 -9 6
-8 11 3 18 12 8 11 10 -7 10 -12 0 -25 5 -28 10 -3 6 -18 10 -33 10 -21 0 -24
2 -12 10 13 8 12 10 -3 10 -14 0 -16 -5 -11 -27z"/>
<path d="M246 751 c10 -10 21 -14 23 -8 4 10 -17 27 -33 27 -5 0 -1 -8 10 -19z"/>
<path d="M355 723 c-32 -4 -111 -62 -85 -63 8 0 28 11 44 25 33 28 37 30 34
13 -4 -17 43 -23 52 -7 9 13 2 40 -9 37 -3 0 -19 -3 -36 -5z m35 -17 c0 -2 -7
-7 -16 -10 -8 -3 -12 -2 -9 4 6 10 25 14 25 6z"/>
<path d="M220 694 c0 -8 5 -12 10 -9 6 3 10 10 10 16 0 5 -4 9 -10 9 -5 0 -10
-7 -10 -16z"/>
<path d="M707 683 c-13 -12 -7 -25 8 -20 23 10 26 -9 5 -33 -11 -13 -17 -26
-14 -29 3 -3 12 3 20 14 12 16 18 17 32 8 9 -6 16 -18 14 -26 -1 -8 7 -32 19
-52 19 -31 21 -45 15 -101 -4 -35 -12 -76 -18 -90 -12 -26 -80 -68 -92 -57 -3
4 -6 -6 -6 -20 0 -17 -13 -39 -35 -61 -19 -20 -35 -45 -35 -56 0 -15 -5 -20
-17 -18 -10 2 -18 12 -18 22 0 11 -6 21 -12 23 -7 3 -13 -2 -13 -10 0 -9 -3
-22 -6 -31 -4 -11 2 -19 20 -26 36 -13 76 3 76 31 0 21 35 58 56 59 6 0 17 6
23 14 10 12 8 19 -10 37 -16 16 -18 21 -6 16 10 -4 33 2 53 13 19 11 40 17 46
14 6 -4 -2 -12 -18 -20 -30 -13 -27 -16 19 -19 22 -2 27 2 27 21 0 13 -8 27
-17 32 -16 9 -16 11 0 27 26 25 24 153 -3 205 -11 22 -20 46 -20 55 0 9 -7 18
-15 21 -8 4 -15 10 -15 15 0 11 -37 49 -48 49 -5 0 -12 -3 -15 -7z"/>
<path d="M324 665 c-9 -23 -61 -48 -68 -32 -3 6 -3 2 -1 -10 3 -12 0 -25 -6
-29 -7 -4 -9 -3 -6 3 4 6 0 16 -8 23 -13 10 -15 8 -15 -13 0 -36 20 -45 41
-19 9 12 28 26 42 31 30 12 53 46 37 56 -6 3 -13 -1 -16 -10z"/>
<path d="M436 644 c-9 -23 -7 -44 4 -44 5 0 7 7 3 16 -5 14 -2 16 20 10 20 -5
27 -3 27 8 0 13 -20 26 -40 26 -4 0 -11 -7 -14 -16z"/>
<path d="M634 606 c-15 -48 -4 -66 12 -20 7 21 10 42 6 46 -4 4 -12 -8 -18
-26z"/>
<path d="M387 623 c-10 -9 -9 -33 1 -33 4 0 8 9 9 20 2 21 0 24 -10 13z"/>
<path d="M544 575 c13 -50 25 -68 27 -39 2 33 -3 59 -13 72 -20 23 -25 12 -14
-33z"/>
<path d="M506 594 c-3 -9 -1 -23 6 -31 10 -12 9 -17 -5 -24 -12 -7 -15 -18
-10 -40 4 -21 1 -34 -8 -39 -7 -5 -10 -13 -5 -17 5 -4 11 -2 13 4 3 7 14 11
26 9 12 -1 16 -1 10 1 -7 3 -13 13 -13 23 0 10 -3 25 -6 34 -4 11 -1 16 11 16
14 0 16 6 11 32 -8 40 -21 55 -30 32z"/>
<path d="M334 562 c-6 -4 -16 -17 -22 -29 -9 -17 -9 -22 3 -27 22 -8 45 4 45
23 0 24 -14 41 -26 33z"/>
<path d="M440 556 c0 -9 5 -16 11 -16 6 0 9 -7 5 -15 -3 -8 -1 -15 4 -15 18 0
18 16 -1 39 -14 18 -19 19 -19 7z"/>
<path d="M670 533 c-14 -7 -23 -13 -20 -14 3 0 13 -2 23 -4 10 -2 21 3 24 11
8 21 2 23 -27 7z"/>
<path d="M401 491 c-8 -5 -9 -11 -3 -15 5 -3 15 1 22 9 14 16 3 20 -19 6z"/>
<path d="M723 485 c-8 -9 -9 -16 -3 -20 6 -3 13 1 16 10 9 21 2 26 -13 10z"/>
<path d="M290 480 c-12 -7 -12 -12 -2 -22 9 -9 12 -9 13 3 1 7 5 3 9 -11 8
-24 8 -23 9 8 1 34 -4 38 -29 22z"/>
<path d="M670 449 c0 -6 -7 -9 -15 -5 -8 3 -15 1 -15 -4 0 -6 9 -10 20 -10 11
0 20 7 20 15 0 8 -2 15 -5 15 -3 0 -5 -5 -5 -11z"/>
<path d="M126 431 c-10 -15 6 -42 21 -37 8 3 11 2 8 -3 -3 -5 -1 -12 5 -16 13
-8 13 6 0 39 -10 26 -24 33 -34 17z"/>
<path d="M367 426 c-9 -7 -17 -21 -17 -32 0 -17 -1 -17 -14 2 -12 15 -17 17
-27 7 -10 -10 -10 -13 -1 -13 7 0 12 -7 12 -16 0 -10 6 -14 14 -11 8 3 17 -1
20 -9 3 -8 10 -14 16 -14 6 0 8 5 3 13 -15 24 -13 50 4 62 10 8 16 16 13 18
-3 3 -13 0 -23 -7z"/>
<path d="M481 403 c1 -16 -1 -35 -4 -43 -11 -31 -15 -60 -7 -55 5 3 11 1 15
-5 3 -5 -5 -15 -19 -21 -18 -9 -24 -19 -24 -40 1 -25 18 -33 18 -8 0 5 9 18
20 29 12 12 20 33 20 54 0 19 4 37 9 40 10 6 -10 76 -22 76 -5 0 -8 -12 -6
-27z"/>
<path d="M550 410 c0 -5 5 -10 10 -10 6 0 10 5 10 10 0 6 -4 10 -10 10 -5 0
-10 -4 -10 -10z"/>
<path d="M665 410 c-3 -5 1 -10 9 -10 8 0 18 5 21 10 3 6 -1 10 -9 10 -8 0
-18 -4 -21 -10z"/>
<path d="M532 360 c0 -14 2 -19 5 -12 2 6 2 18 0 25 -3 6 -5 1 -5 -13z"/>
<path d="M621 364 c0 -11 3 -14 6 -6 3 7 2 16 -1 19 -3 4 -6 -2 -5 -13z"/>
<path d="M205 345 c11 -9 18 -19 15 -23 -3 -4 4 -8 15 -10 26 -4 50 -51 34
-66 -8 -8 -13 -7 -16 2 -6 16 -31 15 -49 -2 -7 -8 -18 -16 -24 -18 -6 -2 -8
-11 -5 -21 9 -21 45 -23 45 -1 0 9 -5 13 -12 9 -7 -4 -4 1 6 9 13 11 23 12 31
6 7 -5 15 -7 18 -3 4 3 7 -1 7 -10 0 -10 7 -17 15 -17 8 0 15 5 15 10 0 6 -5
10 -12 10 -6 0 -4 7 5 18 10 10 14 22 10 26 -4 4 -1 11 7 16 13 8 12 10 -3 10
-10 0 -15 5 -12 10 3 6 -1 10 -9 10 -9 0 -16 5 -16 11 0 6 -9 9 -19 6 -14 -3
-18 -1 -14 9 3 8 1 14 -5 14 -6 0 -19 3 -29 6 -16 5 -16 4 2 -11z"/>
<path d="M568 271 c-20 -40 -19 -46 6 -28 11 8 16 23 14 38 -3 25 -4 25 -20
-10z"/>
<path d="M608 280 c-7 -24 -3 -38 8 -28 3 4 4 17 2 30 -3 23 -3 23 -10 -2z"/>
<path d="M500 265 c-7 -8 -10 -22 -6 -30 3 -9 -3 -20 -14 -27 -20 -13 -28 -38
-12 -38 18 0 47 43 44 66 -2 13 1 24 7 24 6 0 11 5 11 10 0 15 -16 12 -30 -5z"/>
<path d="M385 256 c11 -8 23 -12 27 -10 16 10 7 20 -19 22 -26 2 -26 1 -8 -12z"/>
<path d="M237 209 c7 -7 15 -10 18 -7 3 3 -2 9 -12 12 -14 6 -15 5 -6 -5z"/>
<path d="M516 184 c-3 -9 -6 -25 -6 -37 0 -12 -4 -28 -9 -36 -8 -12 -12 -13
-25 -1 -9 7 -14 15 -12 18 7 7 -13 42 -23 42 -5 0 -8 -8 -6 -17 15 -76 13 -73
55 -73 42 0 46 7 41 67 -1 12 3 24 9 28 11 7 4 25 -10 25 -4 0 -11 -7 -14 -16z"/>
<path d="M310 179 c-11 -7 -4 -8 25 -3 50 8 58 14 19 14 -16 0 -36 -5 -44 -11z"/>
</g>
</svg>
