<?xml version="1.0" encoding="UTF-8" standalone="no"?>
<svg>
<g transform="translate(0.000000,48.000000) scale(0.050000,-0.050000)">
<path d="M538 809 c-10 -5 -18 -18 -18 -27 1 -16 2 -16 14 1 14 19 51 23 61 7
4 -7 12 -7 25 0 27 14 36 13 63 -12 19 -18 22 -28 16 -44 -4 -12 -12 -25 -18
-29 -14 -8 -14 -3 -1 30 13 33 -8 43 -47 22 -15 -9 -36 -18 -45 -21 -10 -3
-18 -10 -18 -15 0 -7 9 -7 25 -1 18 7 25 6 25 -3 1 -7 6 -5 14 6 7 9 16 17 20
17 13 0 5 -18 -24 -47 -24 -24 -27 -32 -15 -37 8 -3 15 0 15 6 0 19 29 -12 32
-35 3 -19 4 -20 10 -5 4 10 1 23 -7 32 -15 15 -21 40 -7 34 49 -24 62 -33 62
-43 0 -7 10 -19 22 -27 22 -15 22 -18 9 -53 -11 -33 -11 -39 1 -46 13 -7 13
-15 1 -61 -8 -29 -20 -75 -26 -102 -11 -46 -17 -52 -67 -76 -9 -5 -15 -21 -15
-42 0 -29 -4 -34 -24 -36 -14 -1 -28 -7 -32 -13 -5 -8 -8 -8 -13 0 -10 16 -26
14 -26 -4 0 -15 -48 -45 -74 -45 -8 0 -25 13 -39 30 -18 21 -27 25 -30 16 -6
-14 37 -60 63 -68 8 -3 31 3 50 14 19 10 42 18 51 18 9 0 22 7 29 15 7 8 20
15 29 15 10 0 25 6 35 13 15 11 16 18 8 34 -13 23 1 43 28 43 9 0 23 11 30 25
7 14 17 25 22 25 5 0 8 12 7 28 -4 46 12 102 28 102 12 0 14 8 8 37 -4 21 -12
41 -18 45 -9 5 -9 15 0 39 12 30 10 35 -20 70 -17 20 -40 40 -50 44 -15 6 -15
8 -2 21 24 24 19 71 -9 89 -29 19 -134 29 -158 14z m252 -339 c0 -5 -2 -10 -4
-10 -3 0 -8 5 -11 10 -3 6 -1 10 4 10 6 0 11 -4 11 -10z"/>
<path d="M421 717 c-6 -8 -8 -17 -4 -21 13 -12 -20 -25 -38 -15 -29 15 -49 11
-49 -11 0 -12 -11 -31 -25 -44 -15 -14 -24 -33 -24 -47 1 -13 -2 -32 -6 -41
-4 -11 -3 -18 4 -18 6 0 11 -9 11 -20 0 -10 8 -23 17 -29 17 -9 16 -11 -5 -33
-21 -23 -29 -48 -15 -48 7 0 63 61 63 69 0 10 -17 33 -24 32 -18 -3 -23 0 -23
14 0 8 5 15 11 15 6 0 5 4 -3 9 -12 8 -13 16 -3 49 7 22 19 43 27 46 8 3 15
18 15 33 1 26 1 27 15 9 9 -12 22 -17 35 -13 11 3 20 1 20 -4 0 -5 -13 -12
-30 -15 -37 -8 -66 -47 -46 -63 10 -9 15 -7 19 8 3 12 22 27 46 37 35 14 39
18 30 35 -9 17 -7 19 14 14 27 -7 46 19 21 29 -8 3 -14 1 -14 -4 0 -6 -4 -10
-10 -10 -5 0 -10 7 -10 15 0 8 5 15 10 15 6 0 10 5 10 10 0 15 -26 12 -39 -3z"/>
<path d="M509 702 c-1 -9 -2 -28 -3 -42 -1 -14 -7 -25 -13 -26 -7 -1 -17 -2
-23 -3 -17 -2 -11 -29 10 -44 13 -9 18 -20 14 -31 -7 -18 7 -21 23 -5 16 16 4
49 -18 49 -11 0 -19 4 -19 9 0 6 9 8 20 6 16 -3 20 2 20 21 0 13 5 24 10 24 7
0 7 6 0 19 -7 14 -6 21 2 23 7 3 6 7 -5 11 -12 4 -17 1 -18 -11z"/>
<path d="M552 591 c-10 -28 0 -62 15 -48 4 5 2 11 -4 15 -8 5 -7 12 3 26 14
19 14 19 14 1 0 -14 3 -16 12 -7 8 8 8 15 -2 27 -18 22 -27 19 -38 -14z"/>
<path d="M420 573 c-20 -25 -20 -28 -4 -40 32 -24 79 21 54 52 -17 21 -25 19
-50 -12z m30 -18 c-7 -9 -15 -13 -19 -10 -3 3 1 10 9 15 21 14 24 12 10 -5z"/>
<path d="M350 540 c0 -8 24 -20 41 -20 6 0 8 4 5 9 -8 12 -46 21 -46 11z"/>
<path d="M463 523 c-7 -2 -10 -10 -7 -18 3 -7 -3 -16 -15 -20 -23 -7 -29 -34
-8 -36 26 -3 52 3 62 13 7 7 1 9 -17 4 -17 -4 -28 -2 -28 4 0 5 5 10 10 10 6
0 10 6 10 14 0 9 8 12 25 8 14 -2 25 0 25 7 0 5 -7 8 -16 4 -9 -3 -19 -1 -23
4 -3 6 -11 8 -18 6z"/>
<path d="M627 513 c-13 -12 -7 -43 7 -43 20 0 29 17 14 23 -9 4 -8 6 3 6 8 1
20 -4 27 -11 9 -9 12 -8 12 4 0 9 -10 18 -22 22 -29 7 -33 7 -41 -1z"/>
<path d="M197 452 c-24 -26 -19 -72 8 -71 11 0 14 3 8 6 -17 6 -16 38 1 52 11
9 12 6 8 -14 -5 -26 1 -29 33 -15 18 8 18 9 2 9 -10 1 -16 5 -13 10 9 13 -4
41 -19 41 -6 0 -19 -8 -28 -18z"/>
<path d="M370 460 c0 -3 6 -12 13 -19 10 -11 9 -13 -5 -8 -20 7 -48 -22 -48
-51 0 -32 17 -27 24 8 4 23 11 30 28 30 21 0 21 0 3 -14 -16 -12 -17 -16 -6
-30 7 -9 11 -27 9 -41 -3 -14 -1 -25 3 -25 14 0 22 51 10 63 -16 16 -14 25 5
23 9 0 19 5 22 13 2 8 0 11 -5 8 -6 -4 -13 6 -16 21 -3 17 -12 29 -21 29 -9 0
-16 -3 -16 -7z"/>
<path d="M585 429 c-10 -30 -2 -32 12 -3 6 13 7 24 3 24 -5 0 -12 -9 -15 -21z"/>
<path d="M528 413 c6 -2 12 -12 12 -21 0 -9 5 -24 10 -32 7 -11 10 -5 10 23 0
32 -3 37 -22 36 -13 0 -17 -3 -10 -6z"/>
<path d="M136 355 c3 -17 11 -34 15 -39 5 -6 9 -20 9 -32 0 -40 48 -41 101 -3
39 27 31 34 -16 15 -21 -9 -44 -16 -52 -16 -23 0 -4 21 34 36 18 8 31 19 28
24 -3 5 -21 0 -39 -11 -34 -20 -34 -20 -40 -1 -4 11 -16 28 -27 38 -20 18 -20
18 -13 -11z"/>
<path d="M453 353 c20 -5 23 -23 3 -23 -8 0 -24 -9 -37 -21 -22 -18 -22 -20
-4 -15 11 3 32 8 48 12 20 5 27 12 27 30 0 20 -5 24 -27 23 -17 -1 -21 -3 -10
-6z"/>
<path d="M780 320 c-12 -8 -11 -10 8 -10 12 0 22 -4 22 -10 0 -5 -9 -10 -19
-10 -11 0 -23 -4 -26 -10 -10 -16 32 -11 50 6 12 12 13 19 4 30 -13 16 -19 17
-39 4z"/>
<path d="M525 310 c-7 -11 18 -24 35 -18 6 2 1 9 -9 15 -13 8 -22 9 -26 3z"/>
<path d="M315 291 c3 -5 0 -13 -6 -17 -14 -8 16 -34 38 -34 21 0 15 17 -9 25
-14 4 -18 8 -10 12 13 5 7 23 -9 23 -6 0 -8 -4 -4 -9z"/>
<path d="M460 275 c-15 -18 -10 -47 10 -53 13 -4 13 -3 2 11 -8 9 -11 21 -7
27 8 13 35 13 35 0 0 -5 5 -10 10 -10 6 0 10 9 10 20 0 24 -41 28 -60 5z"/>
<path d="M267 241 c-9 -17 -11 -31 -6 -31 10 0 32 50 25 57 -2 2 -11 -10 -19
-26z"/>
<path d="M534 245 c-9 -14 -14 -28 -11 -31 5 -6 57 39 57 50 0 16 -31 3 -46
-19z"/>
<path d="M309 203 c-12 -15 -12 -16 4 -10 13 5 24 0 35 -13 13 -15 21 -17 32
-10 13 8 13 10 -2 10 -9 0 -20 9 -23 20 -8 24 -28 26 -46 3z"/>
</g>
</svg>
