<?xml version="1.0" encoding="UTF-8" standalone="no"?>
<svg>
<g transform="translate(0.000000,48.000000) scale(0.050000,-0.050000)">
	<path d="M458 863 c-4 -61 6 -163 14 -143 4 8 9 35 13 60 3 25 8 64 11 88 5
	      37 4 42 -14 42 -17 0 -21 -8 -24 -47z"/>
	<path d="M405 880 c-3 -5 -1 -18 4 -27 9 -16 10 -14 11 10 0 28 -5 34 -15 17z"/>
	<path d="M540 869 c-7 -11 -9 -32 -6 -45 5 -17 0 -29 -14 -41 -15 -13 -20 -30
	      -20 -65 0 -37 -5 -51 -20 -60 -13 -8 -20 -24 -20 -42 0 -30 0 -30 20 -8 11 12
	      20 28 20 36 0 8 4 17 9 20 5 4 12 29 16 56 4 28 11 50 15 50 5 0 23 21 40 46
	      24 36 28 49 19 60 -17 21 -47 17 -59 -7z"/>
	<path d="M604 784 c-38 -44 -53 -71 -60 -106 -2 -9 -13 -33 -24 -53 -11 -19
	      -20 -42 -20 -50 0 -8 -6 -15 -12 -15 -9 0 -12 -17 -11 -57 2 -42 0 -52 -6 -38
	      -5 11 -10 32 -10 48 -1 15 -5 27 -11 27 -17 0 -23 -50 -9 -77 15 -28 15 -29
	      17 -85 1 -21 7 -38 13 -38 7 0 9 12 5 33 -8 44 2 52 31 25 20 -19 25 -20 33
	      -8 6 10 5 16 -3 19 -7 2 -20 13 -30 25 -15 17 -16 22 -4 31 22 16 23 26 4 36
	      -15 9 -16 12 -2 25 8 9 15 27 16 42 0 27 0 27 10 3 8 -19 12 -21 24 -11 20 17
	      20 51 0 44 -19 -8 -19 -5 2 42 9 22 15 49 14 60 -2 16 5 23 28 27 23 5 31 12
	      31 28 0 13 7 30 16 40 8 9 11 19 7 22 -5 3 -27 -14 -49 -39z"/>
	<path d="M377 806 c-13 -10 -16 -21 -11 -41 4 -18 2 -30 -7 -37 -11 -7 -11
	      -11 -1 -15 6 -2 12 -13 12 -24 0 -10 4 -19 9 -19 5 0 11 30 13 66 3 42 9 69
	      19 75 12 7 12 9 -1 9 -8 -1 -23 -7 -33 -14z"/>
	<path d="M320 785 c-10 -13 -9 -15 9 -15 12 0 21 6 21 15 0 8 -4 15 -9 15 -5
	      0 -14 -7 -21 -15z"/>
	<path d="M272 774 c1 -9 9 -19 16 -22 9 -3 13 2 10 14 -1 9 -9 19 -16 22 -9 3
	      -13 -2 -10 -14z"/>
	<path d="M423 772 c-14 -9 -25 -92 -12 -92 5 0 9 9 9 21 0 11 5 29 11 40 13
	      24 8 41 -8 31z"/>
	<path d="M130 736 c0 -2 7 -6 15 -10 8 -3 15 -1 15 4 0 6 -7 10 -15 10 -8 0
	      -15 -2 -15 -4z"/>
	<path d="M174 729 c-9 -15 40 -59 66 -59 25 0 25 4 -2 40 -22 30 -51 39 -64
	      19z"/>
	<path d="M705 716 c-11 -9 -31 -16 -45 -16 -14 0 -32 -5 -40 -10 -13 -8 -13
	      -11 -1 -19 7 -5 11 -13 8 -18 -3 -5 3 -17 14 -26 18 -16 19 -16 19 1 0 9 8 22
	      18 27 10 6 35 19 55 29 21 11 36 25 34 30 -6 17 -40 18 -62 2z"/>
	<path d="M310 691 c0 -6 5 -13 10 -16 6 -3 10 1 10 9 0 9 -4 16 -10 16 -5 0
	      -10 -4 -10 -9z"/>
	<path d="M342 651 c-11 -7 -11 -9 2 -14 10 -4 16 -1 16 8 0 17 -1 17 -18 6z"/>
	<path d="M590 621 c0 -31 15 -50 22 -29 6 18 -3 58 -13 58 -5 0 -9 -13 -9 -29z"/>
	<path d="M120 620 c0 -19 3 -21 12 -12 9 9 9 15 0 24 -9 9 -12 7 -12 -12z"/>
	<path d="M404 626 c-9 -23 0 -89 12 -93 17 -6 25 24 18 68 -7 39 -20 51 -30
	      25z"/>
	<path d="M170 606 c-14 -37 -13 -39 10 -33 10 3 24 -1 31 -9 6 -8 15 -11 21
	      -8 5 3 15 1 23 -6 17 -14 29 3 20 30 -4 13 -15 20 -32 20 -15 0 -35 7 -44 16
	      -17 16 -19 15 -29 -10z"/>
	<path d="M690 605 c0 -8 -3 -15 -8 -15 -4 0 -20 -12 -35 -26 -21 -20 -26 -29
	      -17 -38 8 -8 15 -6 28 10 23 30 54 44 96 44 19 0 41 3 50 6 13 5 13 8 1 20
	      -20 20 -115 19 -115 -1z"/>
	<path d="M783 543 c-28 -5 -30 -23 -3 -23 11 0 20 -6 20 -12 1 -7 7 -2 15 12
	      8 14 14 19 15 13 0 -18 30 -16 30 2 0 15 -27 18 -77 8z"/>
	<path d="M319 519 c19 -18 25 -19 32 -8 15 23 10 29 -23 29 -32 0 -32 0 -9
	      -21z"/>
	<path d="M657 513 c-4 -3 -7 -14 -7 -24 0 -24 40 -29 73 -9 27 17 27 17 -12
	      28 -45 14 -46 14 -54 5z"/>
	<path d="M270 496 c0 -9 8 -16 19 -16 10 0 24 -7 31 -15 7 -8 21 -15 32 -15
	      15 0 17 3 9 19 -6 10 -21 21 -35 25 -13 3 -31 9 -40 12 -11 4 -16 1 -16 -10z"/>
	<path d="M95 490 c3 -5 11 -10 16 -10 6 0 7 5 4 10 -3 6 -11 10 -16 10 -6 0
	      -7 -4 -4 -10z"/>
	<path d="M136 481 c-14 -9 -26 -24 -26 -33 0 -21 7 -22 39 -4 13 7 32 11 41 9
	      25 -7 20 21 -6 34 -16 8 -28 6 -48 -6z"/>
	<path d="M780 480 c-11 -7 -7 -10 18 -10 20 0 31 4 27 10 -8 13 -26 13 -45 0z"/>
	<path d="M587 455 c-18 -13 -23 -45 -7 -45 6 0 10 -7 10 -15 0 -19 9 -19 34 0
	      16 12 21 12 32 0 8 -7 14 -18 14 -24 0 -6 15 -8 38 -5 20 3 65 6 99 6 44 0 66
	      5 75 16 11 13 9 15 -21 9 -19 -4 -39 -3 -47 3 -22 19 -64 22 -70 5 -10 -25
	      -43 -17 -77 18 -39 41 -58 48 -80 32z"/>
	<path d="M385 440 c-3 -5 1 -10 10 -10 9 0 13 5 10 10 -3 6 -8 10 -10 10 -2 0
	      -7 -4 -10 -10z"/>
	<path d="M540 434 c0 -8 5 -12 10 -9 6 4 8 11 5 16 -9 14 -15 11 -15 -7z"/>
	<path d="M706 441 c-4 -5 -2 -12 3 -15 5 -4 12 -2 15 3 4 5 2 12 -3 15 -5 4
	      -12 2 -15 -3z"/>
	<path d="M760 440 c-24 -8 -23 -8 8 -9 20 -1 31 3 27 9 -3 6 -7 10 -8 9 -1 -1
	      -13 -5 -27 -9z"/>
	<path d="M143 428 c-28 -13 -30 -38 -5 -38 21 0 56 33 45 43 -8 9 -13 8 -40
	      -5z"/>
	<path d="M261 428 c-40 -21 -38 -38 6 -38 39 0 93 19 93 33 0 4 -8 7 -17 7
	      -10 0 -27 3 -38 5 -11 3 -31 0 -44 -7z"/>
	<path d="M380 385 c-18 -18 -29 -38 -26 -44 10 -16 27 -13 42 7 13 15 13 15
	      10 -8 -3 -14 -5 -28 -5 -32 -1 -5 -8 -8 -16 -8 -8 0 -15 -7 -15 -15 0 -8 -4
	      -15 -9 -15 -5 0 -13 -9 -16 -20 -3 -11 -15 -20 -26 -20 -36 0 -110 -42 -120
	      -68 -5 -14 -8 -26 -7 -27 14 -14 40 -4 72 28 22 20 49 37 61 37 25 0 45 18 45
	      41 0 9 7 19 15 23 20 7 20 -21 0 -40 -15 -16 -11 -37 14 -69 26 -32 45 -31 35
	      2 -11 38 -12 113 -3 119 5 3 8 19 7 37 0 18 2 46 6 63 11 47 -23 52 -64 9z"/>
	<path d="M555 380 c4 -6 11 -8 16 -5 14 9 11 15 -7 15 -8 0 -12 -5 -9 -10z"/>
	<path d="M500 359 c0 -5 5 -7 10 -4 6 3 10 8 10 11 0 2 -4 4 -10 4 -5 0 -10
	      -5 -10 -11z"/>
	<path d="M553 352 c-8 -5 -9 -13 -3 -22 6 -8 10 -26 10 -39 0 -24 0 -24 15 -5
	      13 17 14 15 14 -31 -1 -27 3 -61 8 -74 9 -22 10 -22 26 -7 12 12 14 23 7 40
	      -5 15 -4 31 4 47 15 28 0 73 -21 65 -7 -3 -21 3 -31 14 -10 10 -23 16 -29 12z"/>
	<path d="M299 310 c-19 -16 -39 -28 -45 -26 -5 2 -20 -7 -33 -20 -13 -13 -26
	      -24 -30 -24 -4 0 -13 -11 -19 -25 -13 -28 -6 -31 22 -10 11 8 26 15 33 15 8 0
	      23 9 35 20 12 11 28 20 35 20 7 0 13 4 13 9 0 5 9 11 20 14 20 5 28 41 11 51
	      -5 3 -24 -8 -42 -24z"/>
	<path d="M655 330 c-19 -8 -19 -9 3 -9 17 -1 22 -7 22 -26 0 -14 7 -28 15 -31
	      9 -4 14 -11 13 -18 -2 -6 2 -11 7 -11 6 0 9 2 9 5 -15 60 -15 60 9 60 14 0 24
	      6 24 15 0 10 -10 15 -28 15 -15 0 -33 2 -41 4 -7 3 -22 1 -33 -4z"/>
	<path d="M103 323 c-7 -2 -13 -11 -13 -19 0 -11 7 -13 28 -8 34 9 42 13 42 25
	      0 9 -36 11 -57 2z"/>
	<path d="M473 283 c-12 -41 -8 -64 12 -57 17 7 25 61 11 80 -9 12 -13 7 -23
	      -23z"/>
	<path d="M510 236 c0 -14 7 -31 15 -40 8 -8 15 -23 15 -34 0 -10 7 -19 15 -19
	      9 0 15 9 15 22 0 13 -7 28 -15 35 -8 7 -15 23 -15 36 0 15 -6 24 -15 24 -9 0
	      -15 -9 -15 -24z"/>
	<path d="M460 160 c0 -22 2 -40 4 -40 6 0 36 60 36 72 0 4 -9 8 -20 8 -17 0
	      -20 -7 -20 -40z"/>
</g>
</svg>
