<?xml version="1.0" encoding="UTF-8" standalone="no"?>
<svg>
<g transform="translate(0.000000,48.000000) scale(0.050000,-0.050000)">
	<path d="M543 787 c-15 -21 -20 -40 -16 -55 3 -13 2 -22 -3 -20 -12 4 -15 -8
	      -7 -29 4 -9 1 -19 -5 -21 -7 -2 -12 -9 -12 -15 0 -6 11 0 25 13 13 12 22 26
	      20 30 -2 4 4 16 14 27 28 29 44 63 31 63 -6 0 -9 4 -6 9 3 5 0 13 -7 19 -9 8
	      -18 3 -34 -21z"/>
	<path d="M340 761 c0 -5 5 -13 10 -16 6 -3 10 -2 10 4 0 5 -4 13 -10 16 -5 3
	      -10 2 -10 -4z"/>
	<path d="M370 740 c0 -5 5 -10 10 -10 6 0 10 5 10 10 0 6 -4 10 -10 10 -5 0
	      -10 -4 -10 -10z"/>
	<path d="M445 721 c-4 -18 -2 -52 4 -75 5 -22 13 -62 16 -88 3 -26 13 -54 21
	      -62 16 -16 13 -58 -4 -64 -16 -5 -15 -29 0 -34 6 -2 8 -10 4 -16 -9 -15 -27
	      -16 -23 -1 5 25 -21 18 -27 -7 -7 -25 -8 -26 -26 -9 -13 12 -20 14 -20 6 0 -7
	      -5 -9 -11 -6 -6 4 -17 -1 -25 -11 -14 -18 -15 -18 -9 4 4 13 2 22 -4 22 -6 0
	      -11 -4 -11 -9 0 -5 -6 -16 -14 -23 -7 -8 -17 -33 -21 -56 -6 -38 -5 -42 15
	      -42 12 0 19 4 16 9 -9 14 4 41 20 41 8 0 11 6 7 17 -4 10 -2 14 4 10 6 -4 16
	      0 23 8 19 22 27 18 34 -17 7 -35 0 -50 -14 -28 -8 13 -10 12 -10 -3 0 -14 -5
	      -16 -25 -11 -25 6 -37 -10 -13 -18 9 -3 8 -8 -2 -20 -11 -11 -22 -13 -44 -7
	      -16 5 -32 6 -35 4 -11 -11 16 -23 59 -27 38 -3 45 0 42 15 -2 10 2 16 10 15 6
	      -2 12 4 13 12 0 8 5 16 10 16 6 1 20 5 32 9 18 6 21 11 13 25 -15 27 -12 50 5
	      50 22 0 56 37 49 54 -3 8 -1 17 5 20 6 4 8 13 4 21 -3 8 -1 15 5 15 6 0 12 -6
	      15 -12 4 -10 7 -10 18 0 10 9 10 12 0 12 -7 0 -9 5 -5 12 5 8 2 9 -11 5 -15
	      -6 -17 -3 -11 25 8 41 29 55 36 25 4 -15 8 -18 14 -9 4 7 5 21 1 32 -3 10 1
	      33 10 50 9 18 14 35 10 38 -3 3 -8 -4 -12 -16 -5 -22 -14 -27 -26 -15 -4 3 -2
	      12 3 18 6 7 16 33 24 58 11 37 11 45 0 40 -7 -2 -18 -17 -24 -31 -6 -15 -17
	      -38 -25 -51 -12 -21 -12 -26 0 -35 12 -9 12 -17 -5 -53 -23 -51 -43 -58 -30
	      -10 9 30 8 31 -6 12 -15 -19 -15 -18 -9 18 5 23 3 42 -5 51 -12 16 -17 67 -7
	      83 4 6 0 18 -7 28 -13 18 -14 16 -21 -14z"/>
	<path d="M350 717 c0 -11 37 -75 52 -91 20 -22 21 -77 2 -69 -7 2 -15 12 -18
	      20 -6 14 -4 14 10 2 14 -12 16 -11 12 6 -2 11 -10 19 -16 18 -7 -2 -12 3 -12
	      10 0 6 -19 20 -41 29 -22 10 -38 21 -35 27 3 5 -3 7 -14 4 -27 -7 -25 -14 10
	      -38 16 -11 30 -24 30 -29 0 -5 7 -3 16 5 13 11 14 9 9 -14 -5 -20 -3 -27 7
	      -27 14 0 78 -54 78 -65 0 -9 -44 6 -51 18 -4 5 -12 6 -19 2 -9 -6 -6 -12 11
	      -21 28 -16 49 -17 68 -5 11 7 11 13 -3 32 -9 13 -16 36 -16 52 0 15 -7 44 -15
	      63 -8 19 -14 40 -12 47 1 6 -3 11 -10 12 -6 0 -15 3 -19 8 -7 7 -24 10 -24 4z"/>
	<path d="M685 681 c-3 -10 -13 -18 -23 -17 -11 1 -16 -5 -14 -18 2 -11 -1 -15
	      -7 -11 -6 3 -11 -1 -11 -9 0 -9 -6 -16 -13 -16 -15 0 -39 -44 -30 -54 4 -3 12
	      3 20 14 16 23 38 27 30 5 -4 -8 -2 -17 3 -20 8 -5 19 19 24 52 1 8 8 18 14 22
	      6 4 15 21 18 39 7 34 -1 44 -11 13z"/>
	<path d="M233 580 c-22 -20 -21 -59 1 -61 6 -1 22 -2 36 -2 15 -1 29 -11 35
	      -24 10 -23 35 -32 35 -13 0 6 3 9 8 9 25 -4 20 5 -22 37 -25 19 -51 32 -56 29
	      -6 -3 -10 -2 -10 4 0 5 5 11 11 13 7 2 6 8 -3 16 -12 9 -19 8 -35 -8z"/>
	<path d="M300 588 c0 -16 49 -63 56 -55 8 7 -34 67 -47 67 -5 0 -9 -6 -9 -12z"/>
	<path d="M430 464 c0 -8 5 -14 10 -14 6 0 10 5 10 11 0 8 6 7 17 -2 14 -12 16
	      -12 11 1 -6 19 -48 22 -48 4z"/>
	<path d="M386 463 c-7 -7 -44 -13 -88 -15 -16 0 -28 -5 -28 -11 0 -5 -7 -6
	      -15 -3 -21 8 -31 -20 -15 -40 7 -8 19 -13 27 -10 7 3 13 0 13 -6 0 -7 14 3 32
	      21 17 17 37 30 45 27 7 -3 13 -1 13 5 0 6 4 8 9 5 5 -3 14 1 20 8 12 14 0 32
	      -13 19z"/>
	<path d="M574 459 c-3 -5 2 -16 10 -25 9 -8 16 -11 16 -5 0 6 11 6 32 0 39
	      -11 38 -11 38 -1 0 22 -84 50 -96 31z"/>
	<path d="M408 420 c-10 -10 -13 -22 -8 -25 5 -3 12 4 15 16 4 12 12 18 21 15
	      8 -3 14 -1 14 4 0 17 -25 11 -42 -10z"/>
	<path d="M520 403 c0 -5 5 -15 10 -23 8 -12 10 -11 10 8 0 12 -4 22 -10 22 -5
	      0 -10 -3 -10 -7z"/>
	<path d="M604 368 c14 -24 31 -45 38 -47 7 -2 18 -11 25 -20 7 -9 13 -11 13
	      -5 0 7 9 14 21 17 23 6 17 27 -7 27 -8 0 -14 4 -14 9 0 5 -9 12 -19 16 -11 3
	      -22 14 -25 23 -4 10 -17 19 -32 20 -25 2 -25 2 0 -40z"/>
	<path d="M350 390 c0 -5 5 -10 10 -10 6 0 10 5 10 10 0 6 -4 10 -10 10 -5 0
	      -10 -4 -10 -10z"/>
	<path d="M565 380 c3 -5 8 -10 11 -10 2 0 4 5 4 10 0 6 -5 10 -11 10 -5 0 -7
	      -4 -4 -10z"/>
	<path d="M515 320 c-4 -6 -10 -8 -14 -6 -3 3 -7 -4 -7 -14 0 -10 4 -16 8 -14
	      4 3 8 1 8 -4 0 -6 7 -13 16 -16 12 -5 14 -1 8 17 -4 12 -7 28 -7 35 0 15 -4
	      15 -12 2z"/>
	<path d="M580 310 c-8 -45 -4 -160 5 -157 11 4 12 9 14 57 1 23 6 30 21 30 11
	      0 20 7 20 15 0 8 5 15 11 15 5 0 7 5 4 10 -5 8 -12 7 -23 -2 -10 -8 -13 -9 -9
	      -1 4 6 3 14 -2 17 -5 3 -12 -2 -17 -12 -6 -14 -8 -12 -14 13 -4 17 -9 23 -10
	      15z"/>
	<path d="M470 261 c0 -7 -4 -10 -9 -7 -12 8 -41 -3 -41 -15 0 -6 6 -16 12 -23
	      11 -11 16 -8 31 16 10 17 16 33 13 36 -4 3 -6 0 -6 -7z"/>
	<path d="M531 201 c2 -47 13 -81 22 -71 3 3 7 30 8 60 3 46 1 55 -14 58 -15 3
	      -17 -3 -16 -47z"/>
	<path d="M452 182 c-20 -41 -19 -52 3 -52 15 0 35 64 25 80 -6 9 -14 0 -28
	      -28z"/>
	<path d="M496 206 c3 -8 1 -30 -4 -49 -9 -32 -8 -35 9 -34 10 1 19 9 19 18 0
	      32 -13 79 -21 79 -5 0 -6 -6 -3 -14z"/>
</g>
</svg>
