<?xml version="1.0" encoding="UTF-8" standalone="no"?>
<svg>
<g transform="translate(0.000000,48.000000) scale(0.050000,-0.050000)">
	<path d="M528 823 c2 -37 0 -53 -6 -45 -6 9 -11 -14 -16 -64 -3 -43 -11 -81
	      -17 -85 -8 -5 -8 -8 0 -13 14 -9 14 -27 1 -62 -8 -21 -14 -24 -22 -16 -21 21
	      -38 13 -37 -15 1 -18 3 -21 6 -10 5 20 23 13 23 -9 0 -8 -8 -14 -17 -14 -31 0
	      -50 -17 -36 -31 10 -10 14 -9 19 4 3 9 10 17 15 17 16 0 10 -23 -16 -60 -15
	      -22 -23 -44 -19 -53 8 -22 25 -11 17 11 -3 9 -3 14 2 10 8 -8 45 57 45 79 0 7
	      5 13 10 13 6 0 10 10 10 23 0 27 27 73 63 107 15 14 27 30 27 37 0 22 23 62
	      31 57 5 -3 9 2 9 10 0 8 6 19 14 23 7 4 16 28 20 53 6 45 6 45 -13 15 -51 -84
	      -62 -103 -77 -138 -9 -21 -22 -36 -28 -34 -15 6 -11 51 9 90 19 38 30 147 15
	      147 -5 0 -10 -8 -11 -17 0 -14 -2 -13 -9 5 -5 12 -11 22 -12 22 -2 0 -2 -26 0
	      -57z"/>
	<path d="M792 869 c2 -7 12 -13 22 -15 23 -3 15 20 -8 24 -11 3 -17 -1 -14 -9z"/>
	<path d="M226 854 c-12 -30 -6 -61 17 -88 13 -14 26 -23 30 -20 10 11 8 44 -3
	      44 -5 0 -14 18 -20 40 -12 44 -15 47 -24 24z"/>
	<path d="M718 780 c-21 -21 -38 -44 -38 -50 0 -7 -6 -10 -14 -7 -8 3 -17 0
	      -20 -8 -3 -10 2 -12 22 -9 15 3 30 10 33 16 4 6 12 8 18 4 7 -4 9 -1 5 8 -3 8
	      2 17 13 20 12 4 20 17 21 36 1 16 1 30 0 29 -2 0 -20 -18 -40 -39z"/>
	<path d="M345 800 c-3 -5 -1 -18 4 -27 9 -16 10 -14 11 10 0 28 -5 34 -15 17z"/>
	<path d="M397 728 c-5 -38 -3 -55 13 -80 20 -34 26 -47 35 -73 7 -22 25 -18
	      22 5 -2 11 -6 22 -9 26 -4 3 -4 12 -2 19 7 17 -14 57 -26 50 -8 -5 -12 12 -24
	      85 -1 8 -5 -6 -9 -32z"/>
	<path d="M370 746 c0 -9 5 -16 10 -16 6 0 10 4 10 9 0 6 -4 13 -10 16 -5 3
	      -10 -1 -10 -9z"/>
	<path d="M306 731 c-3 -5 -3 -17 0 -26 4 -10 1 -21 -7 -26 -11 -6 -11 -11 -2
	      -20 17 -17 23 -8 29 34 4 34 -8 57 -20 38z"/>
	<path d="M164 709 c-15 -17 -15 -19 0 -34 14 -15 16 -15 16 -1 0 9 5 16 10 16
	      6 0 10 -6 10 -14 0 -8 8 -13 18 -11 9 2 20 4 25 4 14 2 7 31 -8 31 -8 0 -15 4
	      -15 9 0 18 -39 18 -56 0z"/>
	<path d="M351 704 c0 -11 3 -14 6 -6 3 7 2 16 -1 19 -3 4 -6 -2 -5 -13z"/>
	<path d="M731 694 c0 -11 3 -14 6 -6 3 7 2 16 -1 19 -3 4 -6 -2 -5 -13z"/>
	<path d="M611 674 c0 -11 3 -14 6 -6 3 7 2 16 -1 19 -3 4 -6 -2 -5 -13z"/>
	<path d="M666 673 c-3 -10 -9 -24 -12 -30 -3 -8 1 -13 10 -13 9 0 16 8 16 19
	      0 11 5 23 10 26 6 4 10 -5 10 -21 0 -33 7 -29 14 9 4 23 1 27 -18 27 -14 0
	      -26 -8 -30 -17z"/>
	<path d="M353 673 c-20 -8 -15 -23 7 -23 11 0 20 7 20 15 0 15 -6 17 -27 8z"/>
	<path d="M475 670 c3 -5 8 -10 11 -10 2 0 4 5 4 10 0 6 -5 10 -11 10 -5 0 -7
	      -4 -4 -10z"/>
	<path d="M248 658 c-31 -11 -36 -23 -13 -32 8 -3 15 -1 15 4 0 6 7 10 15 10 8
	      0 15 7 15 15 0 8 -1 15 -2 14 -2 0 -15 -5 -30 -11z"/>
	<path d="M265 615 c-20 -20 -30 -23 -40 -15 -11 9 -12 7 -8 -8 3 -14 11 -18
	      29 -14 13 2 24 8 24 13 0 22 29 6 39 -22 6 -17 15 -28 21 -24 5 3 10 -1 10 -9
	      0 -20 20 -21 45 -3 18 14 13 43 -6 32 -5 -4 -9 1 -9 9 0 10 -6 13 -15 10 -10
	      -4 -15 0 -16 12 0 17 -1 17 -8 -1 -7 -17 -9 -16 -15 13 -9 39 -15 39 -51 7z"/>
	<path d="M355 633 c11 -3 26 -10 34 -17 11 -9 13 -8 9 4 -2 8 -18 16 -34 17
	      -18 1 -22 0 -9 -4z"/>
	<path d="M604 615 c-4 -8 -12 -15 -20 -15 -8 0 -14 -4 -14 -10 0 -15 16 -12
	      30 5 7 8 16 12 21 9 5 -3 9 2 9 10 0 20 -19 21 -26 1z"/>
	<path d="M679 569 c-7 -4 -16 -6 -20 -3 -4 2 -10 -3 -13 -12 -5 -13 2 -15 39
	      -12 24 3 47 6 49 9 9 9 -43 26 -55 18z"/>
	<path d="M530 555 c0 -8 2 -15 4 -15 2 0 6 7 10 15 3 8 1 15 -4 15 -6 0 -10
	      -7 -10 -15z"/>
	<path d="M235 550 c-3 -5 -3 -15 0 -20 4 -6 1 -17 -5 -25 -7 -8 -8 -15 -3 -15
	      5 0 9 -9 10 -20 2 -17 -1 -18 -18 -10 -14 8 -19 7 -19 -3 0 -7 -10 -19 -23
	      -26 -27 -15 -50 -48 -42 -61 11 -18 35 -11 35 10 0 14 5 18 16 13 13 -5 13 -7
	      2 -14 -25 -16 4 -9 33 8 16 10 27 23 25 30 -3 6 0 13 6 15 6 2 13 15 15 28 2
	      13 9 28 16 32 9 6 5 13 -12 27 -13 10 -21 23 -17 30 4 6 3 11 -3 11 -5 0 -13
	      -4 -16 -10z"/>
	<path d="M664 515 c3 -8 1 -15 -5 -15 -6 0 -7 -5 -4 -11 5 -7 14 -4 26 7 15
	      13 17 19 7 26 -20 12 -31 9 -24 -7z"/>
	<path d="M310 505 c0 -8 4 -15 10 -15 5 0 7 7 4 15 -4 8 -8 15 -10 15 -2 0 -4
	      -7 -4 -15z"/>
	<path d="M592 490 c0 -14 2 -19 5 -12 2 6 2 18 0 25 -3 6 -5 1 -5 -13z"/>
	<path d="M610 490 c0 -5 5 -10 10 -10 6 0 10 5 10 10 0 6 -4 10 -10 10 -5 0
	      -10 -4 -10 -10z"/>
	<path d="M125 480 c-3 -5 -2 -10 4 -10 5 0 13 5 16 10 3 6 2 10 -4 10 -5 0
	      -13 -4 -16 -10z"/>
	<path d="M348 472 c-15 -9 -30 -29 -33 -43 -5 -20 -14 -28 -36 -33 -17 -3 -29
	      -12 -29 -21 0 -16 25 -21 34 -6 3 5 16 7 28 3 14 -3 19 -2 14 6 -4 7 -2 12 3
	      12 6 0 11 7 11 15 0 8 7 15 15 15 8 0 15 5 15 10 0 6 6 10 14 10 9 0 12 8 8
	      25 -5 29 -7 29 -44 7z"/>
	<path d="M559 473 c0 -4 -2 -16 -4 -25 -2 -11 2 -15 11 -11 16 6 19 29 4 38
	      -5 3 -10 3 -11 -2z"/>
	<path d="M285 460 c3 -5 8 -10 11 -10 2 0 4 5 4 10 0 6 -5 10 -11 10 -5 0 -7
	      -4 -4 -10z"/>
	<path d="M500 454 c0 -8 5 -12 10 -9 6 3 10 10 10 16 0 5 -4 9 -10 9 -5 0 -10
	      -7 -10 -16z"/>
	<path d="M690 460 c0 -5 5 -10 11 -10 5 0 7 5 4 10 -3 6 -8 10 -11 10 -2 0 -4
	      -4 -4 -10z"/>
	<path d="M654 442 c3 -18 18 -20 24 -4 1 5 -4 12 -12 15 -9 4 -13 0 -12 -11z"/>
	<path d="M531 434 c0 -11 3 -14 6 -6 3 7 2 16 -1 19 -3 4 -6 -2 -5 -13z"/>
	<path d="M718 443 c-28 -7 -31 -33 -4 -33 13 0 27 7 30 17 6 14 8 14 22 -3 15
	      -18 15 -18 10 -1 -3 10 -6 21 -6 23 0 5 -28 3 -52 -3z"/>
	<path d="M460 402 c0 -10 -6 -26 -13 -37 -21 -30 -29 -57 -15 -49 8 5 9 0 5
	      -17 -4 -13 -7 -27 -7 -31 0 -5 -5 -8 -11 -8 -5 0 -7 5 -4 10 3 6 3 15 -1 21
	      -3 6 -15 -8 -25 -32 -21 -47 -20 -58 5 -34 15 15 16 15 16 -1 0 -9 -10 -25
	      -22 -35 -21 -19 -21 -19 8 -20 16 0 23 -3 17 -6 -18 -7 -16 -23 2 -23 15 0 19
	      16 15 54 -4 39 10 67 32 64 12 -2 23 3 26 11 3 10 0 12 -13 7 -16 -6 -17 0
	      -10 69 4 41 4 75 1 75 -3 0 -6 -8 -6 -18z"/>
	<path d="M490 397 c0 -17 5 -27 15 -27 8 0 15 -7 15 -15 0 -8 5 -15 10 -15 6
	      0 10 -10 10 -22 0 -17 3 -19 9 -9 7 11 10 9 16 -8 4 -13 12 -20 20 -17 9 3 18
	      -7 26 -29 10 -28 15 -32 27 -23 13 11 25 3 35 -25 4 -13 37 3 37 18 0 7 -7 15
	      -15 19 -8 3 -15 13 -15 22 0 13 -3 14 -15 4 -8 -7 -15 -9 -15 -4 0 5 -16 20
	      -35 33 -19 13 -37 32 -40 42 -4 10 -13 19 -22 19 -11 0 -14 7 -9 28 5 19 4 23
	      -3 12 -8 -12 -13 -12 -30 4 -21 19 -21 19 -21 -7z"/>
	<path d="M610 390 c0 -5 14 -23 30 -40 22 -23 30 -26 30 -14 0 9 -11 27 -26
	      40 -27 26 -34 29 -34 14z"/>
	<path d="M335 359 c-4 -6 -5 -13 -2 -16 7 -7 27 6 27 18 0 12 -17 12 -25 -2z"/>
	<path d="M374 336 c-3 -8 -12 -12 -20 -9 -8 3 -14 0 -14 -7 0 -6 -7 -18 -15
	      -27 -9 -8 -13 -18 -10 -22 4 -3 13 2 20 12 7 10 21 20 30 21 25 4 48 46 25 46
	      -6 0 -13 -6 -16 -14z"/>
	<path d="M590 340 c0 -15 21 -23 32 -12 6 6 2 11 -11 15 -12 3 -21 1 -21 -3z"/>
	<path d="M250 320 c0 -5 -7 -10 -16 -10 -8 0 -12 -4 -9 -10 3 -5 1 -10 -5 -10
	      -10 0 -7 -40 5 -60 3 -5 1 -10 -4 -10 -6 0 -11 -7 -11 -17 0 -14 2 -14 20 2
	      11 10 20 23 19 29 -3 29 2 56 11 56 6 0 10 -7 10 -15 0 -8 6 -15 14 -15 17 0
	      26 43 12 56 -16 13 -46 17 -46 4z"/>
	<path d="M507 316 c-3 -8 -1 -18 4 -22 6 -3 9 -19 5 -34 -3 -20 -1 -30 10 -34
	      29 -11 44 -6 44 15 0 18 -2 19 -15 9 -13 -10 -15 -9 -15 11 -1 13 -7 35 -14
	      48 -11 19 -14 21 -19 7z"/>
	<path d="M360 270 c0 -5 5 -10 11 -10 5 0 7 5 4 10 -3 6 -8 10 -11 10 -2 0 -4
	      -4 -4 -10z"/>
	<path d="M790 264 c0 -8 5 -12 10 -9 6 3 10 10 10 16 0 5 -4 9 -10 9 -5 0 -10
	      -7 -10 -16z"/>
	<path d="M722 240 c7 -11 16 -20 21 -20 4 0 3 9 -3 20 -6 11 -15 20 -20 20 -6
	      0 -5 -9 2 -20z"/>
	<path d="M480 222 c1 -17 19 -34 29 -28 17 11 13 23 -9 29 -11 3 -20 2 -20 -1z"/>
	<path d="M780 226 c0 -2 7 -7 16 -10 8 -3 12 -2 9 4 -6 10 -25 14 -25 6z"/>
	<path d="M415 100 c-3 -5 1 -10 9 -10 9 0 16 5 16 10 0 6 -4 10 -9 10 -6 0
	      -13 -4 -16 -10z"/>
</g>
</svg>
