<?xml version="1.0" encoding="UTF-8" standalone="no"?>
<svg>
<g transform="translate(0.000000,48.000000) scale(0.050000,-0.050000)">
	<path d="M532 802 c-24 -43 -31 -132 -11 -132 7 0 4 -11 -6 -26 -10 -16 -17
	      -46 -17 -75 0 -27 -4 -49 -9 -49 -5 0 -9 -4 -9 -10 0 -5 7 -10 16 -10 23 0 69
	      -39 69 -58 0 -10 7 -17 15 -17 8 0 14 7 12 15 -3 11 1 11 16 -3 24 -22 38 -22
	      51 1 7 11 13 13 18 6 5 -6 18 -14 30 -18 28 -9 101 4 82 14 -19 10 -115 22
	      -161 20 -21 0 -38 4 -38 10 0 5 -8 10 -17 10 -10 0 -26 16 -35 36 -19 37 -25
	      70 -8 44 7 -12 12 -12 29 4 15 13 35 19 67 18 38 0 47 3 53 21 10 25 -18 63
	      -31 43 -5 -8 -10 -8 -18 0 -8 8 -7 16 4 27 9 9 16 20 16 26 0 6 9 25 19 42 20
	      33 18 59 -5 59 -8 0 -14 10 -14 22 0 31 -16 11 -23 -29 -5 -23 -3 -33 6 -33 8
	      0 8 -3 2 -8 -20 -14 -34 -61 -29 -94 6 -37 -6 -54 -42 -60 -23 -3 -27 3 -18
	      27 4 8 4 25 1 37 -4 12 1 48 10 80 11 39 13 64 7 79 -9 19 -11 18 -32 -19z"/>
	<path d="M416 804 c-8 -21 12 -96 24 -89 16 10 22 63 8 84 -15 25 -24 26 -32
	      5z"/>
	<path d="M290 770 c0 -28 8 -46 29 -69 28 -30 61 -41 61 -21 0 6 -4 10 -10 10
	      -5 0 -10 10 -10 23 0 12 -7 33 -16 45 -8 12 -13 26 -10 31 3 5 -5 11 -19 13
	      -23 5 -25 2 -25 -32z"/>
	<path d="M195 770 c-3 -5 -1 -10 4 -10 6 0 11 5 11 10 0 6 -2 10 -4 10 -3 0
	      -8 -4 -11 -10z"/>
	<path d="M193 673 c-19 -4 -21 -8 -13 -24 6 -10 20 -19 30 -19 15 0 20 -7 20
	      -25 0 -15 6 -25 14 -25 7 0 19 -7 26 -15 7 -8 16 -12 21 -9 5 3 17 0 28 -5 15
	      -8 20 -7 25 5 9 22 8 24 -11 24 -26 0 -85 39 -78 51 7 10 -22 50 -34 48 -3 -1
	      -16 -4 -28 -6z"/>
	<path d="M340 649 c-12 -8 -10 -14 18 -39 24 -23 28 -30 15 -30 -16 0 -16 -1
	      0 -17 17 -17 77 -26 77 -11 0 4 8 8 18 9 11 0 5 6 -15 16 -18 9 -33 20 -33 25
	      0 4 -8 8 -18 8 -9 0 -24 11 -32 25 -11 18 -19 22 -30 14z"/>
	<path d="M725 632 c-19 -16 -40 -52 -30 -52 2 0 20 9 39 21 22 13 33 26 29 35
	      -7 18 -13 17 -38 -4z"/>
	<path d="M101 544 c15 -18 68 -33 112 -32 78 4 17 41 -70 43 -41 1 -50 -2 -42
	      -11z"/>
	<path d="M550 530 c0 -5 9 -10 20 -10 11 0 20 5 20 10 0 6 -9 10 -20 10 -11 0
	      -20 -4 -20 -10z"/>
	<path d="M602 523 c3 -18 6 -18 118 -13 52 3 100 13 100 21 0 5 -48 9 -111 9
	      -100 0 -110 -2 -107 -17z"/>
	<path d="M355 499 c-22 -5 -52 -11 -66 -13 -14 -1 -30 -5 -36 -9 -6 -4 -45 -7
	      -87 -9 -43 -1 -84 -7 -94 -14 -16 -12 -16 -14 3 -33 19 -18 23 -19 60 -5 22 7
	      53 14 68 14 15 0 39 7 52 16 21 14 29 14 62 3 21 -8 44 -14 51 -14 7 0 17 -6
	      21 -13 7 -11 9 -11 14 1 3 8 -4 23 -16 33 -22 19 -22 19 11 24 36 6 48 24 17
	      27 -11 0 -38 -3 -60 -8z"/>
	<path d="M480 476 c0 -8 -6 -17 -12 -19 -8 -3 -6 -6 5 -6 11 -1 17 6 17 19 0
	      11 -2 20 -5 20 -3 0 -5 -6 -5 -14z"/>
	<path d="M517 444 c-10 -10 39 -134 53 -134 5 0 2 -16 -6 -35 -16 -38 -13 -49
	      14 -64 16 -8 17 -5 14 26 -3 25 -1 34 7 29 6 -4 11 -16 11 -27 0 -10 5 -19 10
	      -19 6 0 10 -9 10 -20 0 -11 4 -20 9 -20 5 0 11 -9 14 -20 3 -11 10 -20 16 -20
	      19 0 12 32 -15 71 -20 30 -23 41 -15 57 11 21 6 33 -12 26 -11 -4 -37 38 -37
	      61 0 5 -9 16 -21 23 -11 7 -18 19 -16 26 5 13 -27 48 -36 40z"/>
	<path d="M313 417 c-13 -5 -23 -16 -23 -24 0 -7 -8 -17 -17 -20 -10 -4 -25
	      -15 -34 -25 -20 -22 -52 -23 -69 -3 -13 16 -59 10 -72 -9 -7 -10 28 -56 43
	      -56 4 0 20 5 36 12 15 6 33 12 38 12 20 2 71 35 98 64 35 36 34 65 0 49z"/>
	<path d="M456 422 c-10 -16 9 -30 21 -17 10 10 9 14 -2 19 -8 3 -16 2 -19 -2z"/>
	<path d="M627 393 c3 -7 9 -10 14 -7 5 3 9 0 9 -5 0 -6 11 -11 25 -11 18 0 25
	      5 25 20 0 17 -6 20 -39 18 -28 -1 -38 -5 -34 -15z"/>
	<path d="M440 330 c0 -22 4 -40 8 -40 4 0 6 -16 4 -35 -4 -31 -8 -35 -32 -35
	      -28 0 -48 -24 -30 -35 6 -4 10 -1 10 4 0 6 7 11 15 11 18 0 18 4 0 -66 -8 -32
	      -13 -59 -11 -62 8 -8 43 18 60 43 11 17 18 51 20 96 2 39 8 75 15 82 6 6 11
	      20 10 32 0 11 -3 14 -6 8 -8 -21 -20 -15 -27 12 -11 42 -36 31 -36 -15z"/>
	<path d="M346 328 c-14 -16 -26 -34 -26 -38 0 -4 -9 -10 -20 -13 -22 -6 -28
	      -37 -7 -37 6 0 21 7 31 15 11 8 27 15 37 15 11 0 20 13 27 39 13 52 -5 60 -42
	      19z"/>
	<path d="M657 354 c-3 -3 -2 -14 3 -23 5 -9 11 -24 14 -33 7 -22 46 -24 46 -3
	      0 9 -7 18 -15 21 -8 3 -17 14 -20 25 -6 19 -17 24 -28 13z"/>
	<path d="M700 340 c0 -13 11 -13 30 0 12 8 11 10 -7 10 -13 0 -23 -4 -23 -10z"/>
	<path d="M235 290 c-28 -22 -33 -30 -19 -29 24 1 77 31 76 44 -1 19 -20 15
	      -57 -15z"/>
	<path d="M413 274 c-16 -7 -5 -34 13 -34 8 0 14 9 14 20 0 20 -5 23 -27 14z"/>
	<path d="M506 224 c-3 -9 -6 -28 -6 -42 1 -26 1 -26 15 7 8 18 15 37 15 42 0
	      15 -17 10 -24 -7z"/>
	<path d="M336 164 c-6 -15 -4 -15 11 -3 10 7 20 15 22 16 2 2 -3 3 -11 3 -9 0
	      -19 -7 -22 -16z"/>
</g>
</svg>
