<?xml version="1.0" encoding="UTF-8" standalone="no"?>
<svg>
<g transform="translate(0.000000,48.000000) scale(0.100000,-0.100000)">
		<path d="M327 413 c-13 -12 -7 -20 16 -18 26 3 47 -12 47 -31 0 -10 -7 -13
		      -22 -9 -14 4 -31 -1 -43 -10 -20 -16 -20 -16 1 -10 16 4 30 -3 52 -24 31 -32
		      31 -41 -1 -41 -25 0 -16 -24 11 -28 13 -2 25 5 32 18 13 25 4 60 -16 60 -17 0
		      -17 5 -1 31 10 18 9 23 -16 45 -28 24 -48 30 -60 17z"/>
		<path d="M192 390 c-31 -19 -43 -52 -22 -65 6 -3 10 2 10 13 0 22 37 59 47 48
		      5 -4 0 -12 -10 -17 -9 -6 -17 -18 -17 -27 0 -13 6 -11 27 11 24 24 26 29 13
		      42 -14 13 -19 12 -48 -5z"/>
		<path d="M266 373 c-14 -15 -26 -31 -26 -35 0 -14 17 -8 35 12 10 11 22 17 26
		      14 5 -3 9 2 9 10 0 27 -18 27 -44 -1z"/>
		<path d="M141 334 c0 -11 3 -14 6 -6 3 7 2 16 -1 19 -3 4 -6 -2 -5 -13z"/>
		<path d="M140 291 c0 -11 31 -24 39 -16 3 3 -1 10 -9 15 -19 12 -30 12 -30 1z"/>
		<path d="M290 290 c0 -5 9 -10 21 -10 11 0 17 5 14 10 -3 6 -13 10 -21 10 -8
		      0 -14 -4 -14 -10z"/>
		<path d="M76 251 c-20 -38 -5 -97 30 -113 13 -6 24 -17 24 -23 0 -7 18 -25 40
		      -40 38 -27 41 -27 72 -11 78 38 101 86 41 86 -25 -1 -26 -2 -11 -14 17 -12 17
		      -14 0 -28 -28 -25 -53 -29 -88 -16 -21 7 -34 19 -34 29 0 10 -9 24 -20 32 -10
		      7 -24 25 -29 40 -11 28 -3 35 17 15 17 -17 27 -2 12 17 -7 9 -19 14 -27 11
		      -10 -4 -12 1 -7 19 8 34 -2 32 -20 -4z"/>
		<path d="M110 260 c0 -5 6 -10 14 -10 8 0 18 -10 22 -22 6 -19 7 -20 16 -4 6
		      11 6 22 -2 32 -14 16 -50 19 -50 4z"/>
		<path d="M277 254 c3 -8 11 -14 19 -14 21 0 17 17 -5 23 -14 3 -18 1 -14 -9z"/>
		<path d="M350 220 c0 -5 11 -12 25 -16 28 -7 32 -25 10 -44 -13 -10 -19 -10
		      -33 4 -10 9 -34 16 -53 15 -34 -1 -34 -1 -1 -10 18 -5 32 -16 32 -25 0 -24 26
		      -27 59 -8 35 20 41 53 15 78 -17 18 -54 22 -54 6z"/>
		<path d="M168 183 c7 -3 16 -2 19 1 4 3 -2 6 -13 5 -11 0 -14 -3 -6 -6z"/>
</g>
</svg>
