<?xml version="1.0" encoding="UTF-8" standalone="no"?>
<svg>
<g transform="translate(0.000000,48.000000) scale(0.100000,-0.100000)">
		<path d="M135 409 c-8 -12 23 -49 41 -49 25 0 23 17 -6 38 -18 14 -31 18 -35
		      11z"/>
		<path d="M263 347 c20 -17 22 -29 5 -25 -7 2 -14 -2 -15 -7 -2 -6 5 -10 15
		      -10 26 0 23 49 -3 53 -19 3 -19 2 -2 -11z"/>
		<path d="M86 342 c-8 -14 64 -26 77 -13 8 8 5 11 -8 11 -11 0 -30 3 -41 6 -12
		      3 -24 1 -28 -4z"/>
		<path d="M71 276 c5 -19 16 -48 24 -63 8 -15 15 -34 15 -40 0 -16 98 -66 116
		      -59 8 3 14 14 14 25 0 17 4 16 29 -10 16 -16 34 -29 40 -29 14 0 51 74 51 102
		      0 18 -5 13 -19 -18 -25 -54 -40 -63 -62 -36 -16 21 -49 30 -49 15 -1 -58 -80
		      -14 -115 63 -14 30 -25 61 -25 69 0 8 -6 15 -14 15 -12 0 -12 -7 -5 -34z"/>
		<path d="M360 301 c0 -6 5 -13 10 -16 6 -3 10 -16 10 -29 0 -13 9 -31 20 -41
		      17 -15 20 -16 20 -3 0 9 -7 21 -15 28 -8 7 -12 16 -9 21 6 11 -14 49 -26 49
		      -6 0 -10 -4 -10 -9z"/>
		<path d="M343 250 c-1 -11 2 -20 8 -20 5 0 9 9 9 20 0 11 -4 20 -8 20 -4 0 -8
		      -9 -9 -20z"/>
		<path d="M298 243 c6 -2 18 -2 25 0 6 3 1 5 -13 5 -14 0 -19 -2 -12 -5z"/>
		<path d="M280 219 c0 -5 9 -9 20 -9 11 0 20 2 20 4 0 2 -9 6 -20 9 -11 3 -20
		      1 -20 -4z"/>
</g>
</svg>
