<?xml version="1.0" encoding="UTF-8" standalone="no"?>
<svg>
<g><path d="m 2.5,4 c -0.25,0 -0.75,0.75 -1,1.25 0,0.5 0.77771,1.66657 1,2 C 2.62087,7.55218 2.69913,7.82882 2.75,8.09375 2.61263,7.95866 2.45312,7.85156 2.25,7.75 c 0,0.75 0.25,1 0.5,2.25 0,1 0.75,3.75 0,5.25 0.5,0 1,-0.25 1.5,-0.25 C 4.5,12.5 4,11 3.25,9 3.1875,8.8125 3.12891,8.66406 3.0625,8.53125 3.05547,8.51719 3.03837,8.51355 3.03125,8.5 2.9874,8.08839 2.93039,7.63135 2.75,7 2.61652,6.4661 3.5,5.5 3.5,5 3.25,4.5 2.75,4 2.5,4 z m 3.75,0.75 c -0.25,0 -1,0.75 -1,1.25 0,0.25 0.5,1 0.5,1.5 0,0.60436 -0.37509,2.03973 -0.3125,3.0625 6e-4,0.01 -6.8e-4,0.021 0,0.031 C 5.07753,12.2747 5.20505,13.9748 5,15 c 0.5,0 1,0.25 1.5,0.25 -0.5,-1 -0.25,-1.5 -0.25,-4.75 0,-1 0,-0.75 0.25,-1.75 C 6.25,8.75 6,9 5.75,9.5 c 0.10434,-0.87712 0.34222,-1.84195 0.5,-2 0.5,-0.5 1,-1 1,-1.5 0,-0.5 -0.75,-1.25 -1,-1.25 z m -6,5.75 c 0,0.25 0.25,0.5 0.5,1.25 C 1,13.75 0.97479,13.74 1,15.5 1.5,15.25 1.8662,15.33 2.25,15.25 2.25,14 2.25,12 1,11 0.75,10.75 0.75,10.75 0.25,10.5 z M 8.75,9.75 C 8.75,10 8.5,11 8.25,12.25 8,13.5 8,14 8.25,15.5 8,15.5 7.3838,15.33 7,15.25 c 0.5,-0.5 -0.25,-1.5 0.75,-4 0.25,-0.75 0.25,-1 1,-1.5 z"/></g>
</svg>
