<?xml version="1.0" encoding="UTF-8" standalone="no"?>
<svg>
<g><path d="m 6.5,4 c 0.25,0 0.75,0.75 1,1.25 0,0.5 -0.77771,1.66657 -1,2 C 6.37913,7.55218 6.30087,7.82882 6.25,8.09375 6.38737,7.95866 6.54688,7.85156 6.75,7.75 c 0,0.75 -0.25,1 -0.5,2.25 0,1 -0.75,3.75 0,5.25 C 5.75,15.25 5.25,15 4.75,15 4.5,12.5 5,11 5.75,9 5.8125,8.8125 5.87109,8.66406 5.9375,8.53125 5.94453,8.51719 5.96163,8.51355 5.96875,8.5 6.0126,8.08839 6.06961,7.63135 6.25,7 6.38348,6.4661 5.5,5.5 5.5,5 5.75,4.5 6.25,4 6.5,4 z M 2.75,4.75 c 0.25,0 1,0.75 1,1.25 0,0.25 -0.5,1 -0.5,1.5 0,0.60436 0.37509,2.03973 0.3125,3.0625 -6e-4,0.01 6.8e-4,0.021 0,0.031 C 3.92247,12.2747 3.79495,13.9748 4,15 3.5,15 3,15.25 2.5,15.25 3,14.25 2.75,13.75 2.75,10.5 2.75,9.5 2.75,9.75 2.5,8.75 2.75,8.75 3,9 3.25,9.5 3.14566,8.62288 2.90778,7.65805 2.75,7.5 2.25,7 1.75,6.5 1.75,6 c 0,-0.5 0.75,-1.25 1,-1.25 z m 6,5.75 C 8.75,10.75 8.5,11 8.25,11.75 8,13.75 8.02521,13.74 8,15.5 7.5,15.25 7.1338,15.33 6.75,15.25 6.75,14 6.75,12 8,11 8.25,10.75 8.25,10.75 8.75,10.5 z M 0.25,9.75 C 0.25,10 0.5,11 0.75,12.25 1,13.5 1,14 0.75,15.5 1,15.5 1.6162,15.33 2,15.25 1.5,14.75 2.25,13.75 1.25,11.25 1,10.5 1,10.25 0.25,9.75 z"/></g>
</svg>
