<?xml version="1.0" encoding="UTF-8" standalone="no"?>
<svg>
<g><path d="m 2.2711865,0 c -1.013273,0 -2.25000004,0.82813695 -2.25000004,2.4999999 0.0508,0.2322998 -0.0214799981,0.6308594 0.228516,0.6308594 0.50000005,0 0.154616,-0.4034596 0.271484,-0.6308594 0,-0.75 0.50000004,-1.9999999 1.50000004,-1.9999999 0.5,0 1.75,0 2.5,0.7499999 0.25,0.25 1.2499999,1.5 1.2499999,1.5 0,-0.75 -0.25,-1 -0.25,-1.25 0,-0.9999999 1.221791,-0.9204112 1.75,-0.49999995 0.478516,0.38085935 0.728516,0.85069535 0.728516,1.38085935 0,0.5 0,0.75 0.25,0.75 0.25,0 0.267583,-0.4222095 0.271484,-0.6308594 0,-2.7499999 -3,-2.7499999 -3.7499999,-1.74999995 C 3.9870865,0.259938 3.2711865,0 2.2711865,0 Z"/></g>
</svg>
